{
copyright = "Copyright 2021 The Gantari Project Authors";
designer = "Anugrah Pasau";
familyName = Gantari;
customParameters = (
{
name = glyphOrder;
value = (
.notdef,
space,
exclam,
quotedbl,
numbersign,
dollar,
percent,
ampersand,
quotesingle,
parenleft,
parenright,
asterisk,
plus,
comma,
hyphen,
period,
slash,
zero,
one,
two,
three,
four,
five,
six,
seven,
eight,
nine,
colon,
semicolon,
less,
equal,
greater,
question,
at,
A,
B,
C,
D,
E,
F,
G,
H,
I,
J,
K,
L,
M,
N,
O,
P,
Q,
R,
S,
T,
U,
V,
W,
X,
Y,
Z,
bracketleft,
backslash,
bracketright,
asciicircum,
underscore,
grave,
a,
b,
c,
d,
e,
f,
g,
h,
i,
j,
k,
l,
m,
n,
o,
p,
q,
r,
s,
t,
u,
v,
w,
x,
y,
z,
braceleft,
bar,
braceright,
asciitilde,
uni00A0,
exclamdown,
cent,
sterling,
currency,
yen,
brokenbar,
section,
dieresis,
copyright,
ordfeminine,
guillemotleft,
logicalnot,
uni00AD,
registered,
macron,
degree,
plusminus,
twosuperior,
threesuperior,
acute,
mu,
paragraph,
periodcentered,
cedilla,
onesuperior,
ordmasculine,
guillemotright,
onequarter,
onehalf,
threequarters,
questiondown,
Agrave,
Aacute,
Acircumflex,
Atilde,
Adieresis,
Aring,
AE,
Ccedilla,
Egrave,
Eacute,
Ecircumflex,
Edieresis,
Igrave,
Iacute,
Icircumflex,
Idieresis,
Eth,
Ntilde,
Ograve,
Oacute,
Ocircumflex,
Otilde,
Odieresis,
multiply,
Oslash,
Ugrave,
Uacute,
Ucircumflex,
Udieresis,
Yacute,
Thorn,
germandbls,
agrave,
aacute,
acircumflex,
atilde,
adieresis,
aring,
ae,
ccedilla,
egrave,
eacute,
ecircumflex,
edieresis,
igrave,
iacute,
icircumflex,
idieresis,
eth,
ntilde,
ograve,
oacute,
ocircumflex,
otilde,
odieresis,
divide,
oslash,
ugrave,
uacute,
ucircumflex,
udieresis,
yacute,
thorn,
ydieresis,
dotlessi,
Lslash,
lslash,
OE,
oe,
Scaron,
scaron,
Ydieresis,
Zcaron,
zcaron,
florin,
circumflex,
caron,
breve,
dotaccent,
ring,
ogonek,
tilde,
hungarumlaut,
pi,
endash,
emdash,
quoteleft,
quoteright,
quotesinglbase,
quotedblleft,
quotedblright,
quotedblbase,
dagger,
daggerdbl,
bullet,
ellipsis,
perthousand,
guilsinglleft,
guilsinglright,
fraction,
Euro,

glyphs = (
{
glyphname = .notdef;
layers = (
{
layerId = "19C37293-DF0C-4049-8F1C-5BECA685D590";
paths = (
{
closed = 1;
nodes = (
"406 0 LINE",
"406 668 LINE",
"90 668 LINE",
"90 0 LINE"
);
},
{
closed = 1;
nodes = (
"376 28 LINE",
"120 28 LINE",
"120 640 LINE",
"376 640 LINE"
);
}
);
width = 496;
}
);
},
{
glyphname = exclam;
layers = (
{
layerId = "19C37293-DF0C-4049-8F1C-5BECA685D590";
paths = (
{
closed = 1;
nodes = (
"200 -9 OFFCURVE",
"234 27 OFFCURVE",
"234 75 CURVE SMOOTH",
"234 123 OFFCURVE",
"200 159 OFFCURVE",
"145 159 CURVE SMOOTH",
"92 159 OFFCURVE",
"57 123 OFFCURVE",
"57 75 CURVE SMOOTH",
"57 27 OFFCURVE",
"92 -9 OFFCURVE",
"145 -9 CURVE SMOOTH"
);
},
{
closed = 1;
nodes = (
"202 227 LINE",
"229 486 LINE",
"229 668 LINE",
"62 668 LINE",
"62 486 LINE",
"88 227 LINE"
);
}
);
width = 291;
}
);
unicode = 0021;
},
{
glyphname = quotedbl;
layers = (
{
layerId = "19C37293-DF0C-4049-8F1C-5BECA685D590";
paths = (
{
closed = 1;
nodes = (
"202 354 LINE",
"224 668 LINE",
"67 668 LINE",
"89 354 LINE"
);
},
{
closed = 1;
nodes = (
"418 354 LINE",
"440 668 LINE",
"284 668 LINE",
"306 354 LINE"
);
}
);
width = 507;
}
);
leftKerningGroup = _quotedbl;
rightKerningGroup = _quotedbl;
unicode = 0022;
},
{
glyphname = numbersign;
layers = (
{
layerId = "19C37293-DF0C-4049-8F1C-5BECA685D590";
paths = (
{
closed = 1;
nodes = (
"449 0 LINE",
"478 161 LINE",
"571 161 LINE",
"589 266 LINE",
"495 266 LINE",
"519 402 LINE",
"613 402 LINE",
"632 507 LINE",
"538 507 LINE",
"567 668 LINE",
"434 668 LINE",
"405 507 LINE",
"298 507 LINE",
"327 668 LINE",
"194 668 LINE",
"166 507 LINE",
"73 507 LINE",
"54 402 LINE",
"148 402 LINE",
"124 266 LINE",
"30 266 LINE",
"11 161 LINE",
"105 161 LINE",
"76 0 LINE",
"209 0 LINE",
"238 161 LINE",
"345 161 LINE",
"316 0 LINE"
);
},
{
closed = 1;
nodes = (
"363 266 LINE",
"256 266 LINE",
"280 402 LINE",
"387 402 LINE"
);
}
);
width = 643;
}
);
unicode = 0023;
},
{
glyphname = dollar;
layers = (
{
layerId = "19C37293-DF0C-4049-8F1C-5BECA685D590";
paths = (
{
closed = 1;
nodes = (
"241 -100 LINE",
"262 -9 LINE",
"269 -10 OFFCURVE",
"276 -10 OFFCURVE",
"284 -10 CURVE SMOOTH",
"465 -10 OFFCURVE",
"560 76 OFFCURVE",
"560 217 CURVE SMOOTH",
"560 308 OFFCURVE",
"506 382 OFFCURVE",
"375 406 CURVE SMOOTH",
"358 409 LINE",
"385 526 LINE",
"416 515 OFFCURVE",
"448 500 OFFCURVE",
"483 481 CURVE",
"540 606 LINE",
"497 635 OFFCURVE",
"457 653 OFFCURVE",
"417 664 CURVE",
"441 768 LINE",
"351 768 LINE",
"330 677 LINE",
"322 678 OFFCURVE",
"315 678 OFFCURVE",
"307 678 CURVE SMOOTH",
"127 678 OFFCURVE",
"52 576 OFFCURVE",
"52 452 CURVE SMOOTH",
"52 360 OFFCURVE",
"105 302 OFFCURVE",
"237 278 CURVE",
"238 277 LINE",
"207 141 LINE",
"168 154 OFFCURVE",
"129 174 OFFCURVE",
"89 201 CURVE",
"32 76 LINE",
"79 40 OFFCURVE",
"124 16 OFFCURVE",
"175 3 CURVE",
"151 -100 LINE"
);
},
{
closed = 1;
nodes = (
"391 156 OFFCURVE",
"357 130 OFFCURVE",
"293 127 CURVE",
"324 261 LINE",
"367 253 OFFCURVE",
"391 228 OFFCURVE",
"391 197 CURVE SMOOTH"
);
},
{
closed = 1;
nodes = (
"221 514 OFFCURVE",
"244 538 OFFCURVE",
"299 541 CURVE",
"272 426 LINE",
"239 435 OFFCURVE",
"221 451 OFFCURVE",
"221 479 CURVE SMOOTH"
);
}
);
width = 592;
}
);
unicode = 0024;
},
{
glyphname = percent;
layers = (
{
layerId = "19C37293-DF0C-4049-8F1C-5BECA685D590";
paths = (
{
closed = 1;
nodes = (
"318 268 OFFCURVE",
"374 353 OFFCURVE",
"374 471 CURVE SMOOTH",
"374 589 OFFCURVE",
"318 674 OFFCURVE",
"203 674 CURVE SMOOTH",
"88 674 OFFCURVE",
"32 589 OFFCURVE",
"32 471 CURVE SMOOTH",
"32 353 OFFCURVE",
"88 268 OFFCURVE",
"203 268 CURVE SMOOTH"
);
},
{
closed = 1;
nodes = (
"170 364 OFFCURVE",
"151 391 OFFCURVE",
"151 471 CURVE SMOOTH",
"151 551 OFFCURVE",
"170 578 OFFCURVE",
"203 578 CURVE SMOOTH",
"236 578 OFFCURVE",
"255 551 OFFCURVE",
"255 471 CURVE SMOOTH",
"255 391 OFFCURVE",
"236 364 OFFCURVE",
"203 364 CURVE SMOOTH"
);
},
{
closed = 1;
nodes = (
"335 0 LINE",
"692 668 LINE",
"584 668 LINE",
"227 0 LINE"
);
},
{
closed = 1;
nodes = (
"832 -6 OFFCURVE",
"888 79 OFFCURVE",
"888 197 CURVE SMOOTH",
"888 315 OFFCURVE",
"832 400 OFFCURVE",
"716 400 CURVE SMOOTH",
"601 400 OFFCURVE",
"545 315 OFFCURVE",
"545 197 CURVE SMOOTH",
"545 79 OFFCURVE",
"601 -6 OFFCURVE",
"716 -6 CURVE SMOOTH"
);
},
{
closed = 1;
nodes = (
"683 90 OFFCURVE",
"664 117 OFFCURVE",
"664 197 CURVE SMOOTH",
"664 277 OFFCURVE",
"683 304 OFFCURVE",
"716 304 CURVE SMOOTH",
"751 304 OFFCURVE",
"768 277 OFFCURVE",
"768 197 CURVE SMOOTH",
"768 117 OFFCURVE",
"751 90 OFFCURVE",
"716 90 CURVE SMOOTH"
);
}
);
width = 919;
}
);
unicode = 0025;
},
{
glyphname = ampersand;
layers = (
{
layerId = "19C37293-DF0C-4049-8F1C-5BECA685D590";
paths = (
{
closed = 1;
nodes = (
"502 0 LINE",
"684 0 LINE",
"538 157 LINE",
"652 324 LINE",
"502 324 LINE",
"452 250 LINE",
"377 332 LINE",
"388 337 LINE SMOOTH",
"485 381 OFFCURVE",
"520 441 OFFCURVE",
"520 504 CURVE SMOOTH",
"520 595 OFFCURVE",
"451 678 OFFCURVE",
"319 678 CURVE SMOOTH",
"187 678 OFFCURVE",
"118 595 OFFCURVE",
"118 504 CURVE SMOOTH",
"118 463 OFFCURVE",
"130 414 OFFCURVE",
"177 361 CURVE",
"160 355 LINE SMOOTH",
"75 324 OFFCURVE",
"32 260 OFFCURVE",
"32 172 CURVE SMOOTH",
"32 72 OFFCURVE",
"110 -10 OFFCURVE",
"248 -10 CURVE SMOOTH",
"337 -10 OFFCURVE",
"399 10 OFFCURVE",
"452 55 CURVE"
);
},
{
closed = 1;
nodes = (
"225 115 OFFCURVE",
"192 148 OFFCURVE",
"192 189 CURVE SMOOTH",
"192 225 OFFCURVE",
"209 253 OFFCURVE",
"240 266 CURVE",
"255 274 LINE",
"369 148 LINE",
"341 126 OFFCURVE",
"310 115 OFFCURVE",
"277 115 CURVE SMOOTH"
);
},
{
closed = 1;
nodes = (
"264 532 OFFCURVE",
"287 555 OFFCURVE",
"319 555 CURVE SMOOTH",
"351 555 OFFCURVE",
"374 532 OFFCURVE",
"374 497 CURVE SMOOTH",
"374 461 OFFCURVE",
"358 429 OFFCURVE",
"323 416 CURVE",
"306 409 LINE",
"277 444 OFFCURVE",
"264 469 OFFCURVE",
"264 497 CURVE SMOOTH"
);
}
);
width = 672;
}
);
unicode = 0026;
},
{
glyphname = quotesingle;
layers = (
{
layerId = "19C37293-DF0C-4049-8F1C-5BECA685D590";
paths = (
{
closed = 1;
nodes = (
"202 354 LINE",
"224 668 LINE",
"67 668 LINE",
"89 354 LINE"
);
}
);
width = 291;
}
);
leftKerningGroup = _quotedbl;
rightKerningGroup = _quotedbl;
unicode = 0027;
},
{
glyphname = parenleft;
layers = (
{
layerId = "19C37293-DF0C-4049-8F1C-5BECA685D590";
paths = (
{
closed = 1;
nodes = (
"42 43 OFFCURVE",
"126 -173 OFFCURVE",
"227 -252 CURVE",
"343 -252 LINE",
"261 -157 OFFCURVE",
"193 44 OFFCURVE",
"193 243 CURVE SMOOTH",
"193 442 OFFCURVE",
"261 643 OFFCURVE",
"343 738 CURVE",
"227 738 LINE",
"126 659 OFFCURVE",
"42 443 OFFCURVE",
"42 243 CURVE SMOOTH"
);
}
);
width = 354;
}
);
unicode = 0028;
},
{
glyphname = parenright;
layers = (
{
layerId = "19C37293-DF0C-4049-8F1C-5BECA685D590";
paths = (
{
closed = 1;
nodes = (
"313 444 OFFCURVE",
"228 657 OFFCURVE",
"128 738 CURVE",
"11 738 LINE",
"94 642 OFFCURVE",
"161 442 OFFCURVE",
"161 243 CURVE SMOOTH",
"161 44 OFFCURVE",
"94 -156 OFFCURVE",
"11 -252 CURVE",
"128 -252 LINE",
"228 -171 OFFCURVE",
"313 42 OFFCURVE",
"313 243 CURVE SMOOTH"
);
}
);
width = 354;
}
);
unicode = 0029;
},
{
glyphname = asterisk;
layers = (
{
layerId = "19C37293-DF0C-4049-8F1C-5BECA685D590";
paths = (
{
closed = 1;
nodes = (
"312 270 LINE",
"406 338 LINE",
"319 442 LINE",
"450 474 LINE",
"414 584 LINE",
"289 533 LINE",
"299 668 LINE",
"183 668 LINE",
"193 533 LINE",
"67 584 LINE",
"32 474 LINE",
"163 442 LINE",
"75 338 LINE",
"170 270 LINE",
"241 384 LINE"
);
}
);
width = 482;
}
);
unicode = 002A;
},
{
glyphname = plus;
layers = (
{
layerId = "19C37293-DF0C-4049-8F1C-5BECA685D590";
paths = (
{
closed = 1;
nodes = (
"361 96 LINE",
"361 269 LINE",
"529 269 LINE",
"529 399 LINE",
"361 399 LINE",
"361 572 LINE",
"221 572 LINE",
"221 399 LINE",
"53 399 LINE",
"53 269 LINE",
"221 269 LINE",
"221 96 LINE"
);
}
);
width = 582;
}
);
leftKerningGroup = _plus;
rightKerningGroup = _plus;
unicode = 002B;
},
{
glyphname = comma;
layers = (
{
layerId = "19C37293-DF0C-4049-8F1C-5BECA685D590";
paths = (
{
closed = 1;
nodes = (
"106 -164 LINE",
"181 -113 OFFCURVE",
"215 -51 OFFCURVE",
"215 48 CURVE SMOOTH",
"215 142 LINE",
"76 142 LINE",
"76 48 LINE SMOOTH",
"76 -3 OFFCURVE",
"56 -72 OFFCURVE",
"25 -125 CURVE"
);
}
);
width = 291;
}
);
leftKerningGroup = _comma;
rightKerningGroup = _comma;
unicode = 002C;
},
{
glyphname = hyphen;
layers = (
{
layerId = "19C37293-DF0C-4049-8F1C-5BECA685D590";
paths = (
{
closed = 1;
nodes = (
"336 225 LINE",
"336 347 LINE",
"32 347 LINE",
"32 225 LINE"
);
}
);
width = 368;
}
);
leftKerningGroup = _hypen;
rightKerningGroup = _hypen;
unicode = 002D;
},
{
glyphname = period;
layers = (
{
layerId = "19C37293-DF0C-4049-8F1C-5BECA685D590";
paths = (
{
closed = 1;
nodes = (
"200 -9 OFFCURVE",
"234 27 OFFCURVE",
"234 75 CURVE SMOOTH",
"234 123 OFFCURVE",
"200 159 OFFCURVE",
"145 159 CURVE SMOOTH",
"92 159 OFFCURVE",
"57 123 OFFCURVE",
"57 75 CURVE SMOOTH",
"57 27 OFFCURVE",
"92 -9 OFFCURVE",
"145 -9 CURVE SMOOTH"
);
}
);
width = 291;
}
);
leftKerningGroup = _comma;
rightKerningGroup = _comma;
unicode = 002E;
},
{
glyphname = slash;
layers = (
{
layerId = "19C37293-DF0C-4049-8F1C-5BECA685D590";
paths = (
{
closed = 1;
nodes = (
"150 0 LINE",
"368 668 LINE",
"227 668 LINE",
"9 0 LINE"
);
}
);
width = 377;
}
);
unicode = 002F;
},
{
glyphname = zero;
layers = (
{
layerId = "19C37293-DF0C-4049-8F1C-5BECA685D590";
paths = (
{
closed = 1;
nodes = (
"515 -10 OFFCURVE",
"610 134 OFFCURVE",
"610 334 CURVE SMOOTH",
"610 534 OFFCURVE",
"515 678 OFFCURVE",
"321 678 CURVE SMOOTH",
"127 678 OFFCURVE",
"32 534 OFFCURVE",
"32 334 CURVE SMOOTH",
"32 134 OFFCURVE",
"127 -10 OFFCURVE",
"321 -10 CURVE SMOOTH"
);
},
{
closed = 1;
nodes = (
"246 126 OFFCURVE",
"201 187 OFFCURVE",
"201 334 CURVE SMOOTH",
"201 481 OFFCURVE",
"246 542 OFFCURVE",
"321 542 CURVE SMOOTH",
"394 542 OFFCURVE",
"441 481 OFFCURVE",
"441 334 CURVE SMOOTH",
"441 187 OFFCURVE",
"394 126 OFFCURVE",
"321 126 CURVE SMOOTH"
);
}
);
width = 642;
}
);
unicode = 0030;
},
{
glyphname = one;
layers = (
{
layerId = "19C37293-DF0C-4049-8F1C-5BECA685D590";
paths = (
{
closed = 1;
nodes = (
"337 0 LINE",
"337 668 LINE",
"221 668 LINE",
"12 562 LINE",
"66 445 LINE",
"170 498 LINE",
"170 0 LINE"
);
}
);
width = 399;
}
);
unicode = 0031;
},
{
glyphname = two;
layers = (
{
layerId = "19C37293-DF0C-4049-8F1C-5BECA685D590";
paths = (
{
closed = 1;
nodes = (
"522 0 LINE",
"522 136 LINE",
"242 136 LINE",
"386 261 LINE SMOOTH",
"475 337 OFFCURVE",
"512 396 OFFCURVE",
"512 465 CURVE SMOOTH",
"512 600 OFFCURVE",
"411 678 OFFCURVE",
"263 678 CURVE SMOOTH",
"178 678 OFFCURVE",
"109 651 OFFCURVE",
"32 592 CURVE",
"85 476 LINE",
"158 519 OFFCURVE",
"204 542 OFFCURVE",
"255 542 CURVE SMOOTH",
"308 542 OFFCURVE",
"343 513 OFFCURVE",
"343 465 CURVE SMOOTH",
"343 436 OFFCURVE",
"326 403 OFFCURVE",
"289 368 CURVE",
"32 136 LINE",
"32 0 LINE"
);
}
);
width = 554;
}
);
unicode = 0032;
},
{
glyphname = three;
layers = (
{
layerId = "19C37293-DF0C-4049-8F1C-5BECA685D590";
paths = (
{
closed = 1;
nodes = (
"437 -10 OFFCURVE",
"542 74 OFFCURVE",
"542 190 CURVE SMOOTH",
"542 261 OFFCURVE",
"501 315 OFFCURVE",
"425 344 CURVE",
"493 371 OFFCURVE",
"532 420 OFFCURVE",
"532 488 CURVE SMOOTH",
"532 603 OFFCURVE",
"427 678 OFFCURVE",
"278 678 CURVE SMOOTH",
"198 678 OFFCURVE",
"118 651 OFFCURVE",
"42 592 CURVE",
"95 476 LINE",
"171 521 OFFCURVE",
"234 542 OFFCURVE",
"278 542 CURVE SMOOTH",
"326 542 OFFCURVE",
"363 520 OFFCURVE",
"363 475 CURVE SMOOTH",
"363 430 OFFCURVE",
"326 408 OFFCURVE",
"278 408 CURVE SMOOTH",
"179 408 LINE",
"179 280 LINE",
"278 280 LINE SMOOTH",
"334 280 OFFCURVE",
"373 252 OFFCURVE",
"373 203 CURVE SMOOTH",
"373 154 OFFCURVE",
"334 126 OFFCURVE",
"278 126 CURVE SMOOTH",
"226 126 OFFCURVE",
"161 147 OFFCURVE",
"85 192 CURVE",
"32 76 LINE",
"107 19 OFFCURVE",
"189 -10 OFFCURVE",
"278 -10 CURVE SMOOTH"
);
}
);
width = 574;
}
);
unicode = 0033;
},
{
glyphname = four;
layers = (
{
layerId = "19C37293-DF0C-4049-8F1C-5BECA685D590";
paths = (
{
closed = 1;
nodes = (
"502 0 LINE",
"502 134 LINE",
"590 134 LINE",
"590 262 LINE",
"502 262 LINE",
"502 668 LINE",
"334 668 LINE",
"32 289 LINE",
"32 134 LINE",
"344 134 LINE",
"344 0 LINE"
);
},
{
closed = 1;
nodes = (
"344 262 LINE",
"169 262 LINE",
"344 489 LINE"
);
}
);
width = 622;
}
);
unicode = 0034;
},
{
glyphname = five;
layers = (
{
layerId = "19C37293-DF0C-4049-8F1C-5BECA685D590";
paths = (
{
closed = 1;
nodes = (
"451 -10 OFFCURVE",
"550 92 OFFCURVE",
"550 222 CURVE SMOOTH",
"550 351 OFFCURVE",
"462 437 OFFCURVE",
"318 437 CURVE SMOOTH",
"277 437 OFFCURVE",
"239 427 OFFCURVE",
"210 408 CURVE",
"237 542 LINE",
"500 542 LINE",
"500 678 LINE",
"112 678 LINE",
"42 285 LINE",
"183 261 LINE",
"198 292 OFFCURVE",
"227 314 OFFCURVE",
"276 314 CURVE SMOOTH",
"341 314 OFFCURVE",
"381 276 OFFCURVE",
"381 220 CURVE SMOOTH",
"381 164 OFFCURVE",
"341 126 OFFCURVE",
"276 126 CURVE SMOOTH",
"215 126 OFFCURVE",
"162 145 OFFCURVE",
"86 192 CURVE",
"32 76 LINE",
"106 18 OFFCURVE",
"171 -10 OFFCURVE",
"286 -10 CURVE SMOOTH"
);
}
);
width = 582;
}
);
unicode = 0035;
},
{
glyphname = six;
layers = (
{
layerId = "19C37293-DF0C-4049-8F1C-5BECA685D590";
paths = (
{
closed = 1;
nodes = (
"481 -10 OFFCURVE",
"580 92 OFFCURVE",
"580 222 CURVE SMOOTH",
"580 351 OFFCURVE",
"492 437 OFFCURVE",
"348 437 CURVE SMOOTH",
"284 437 OFFCURVE",
"232 413 OFFCURVE",
"201 377 CURVE",
"206 502 OFFCURVE",
"285 542 OFFCURVE",
"361 542 CURVE SMOOTH",
"405 542 OFFCURVE",
"454 528 OFFCURVE",
"511 485 CURVE",
"562 592 LINE",
"511 649 OFFCURVE",
"432 678 OFFCURVE",
"344 678 CURVE SMOOTH",
"139 678 OFFCURVE",
"32 524 OFFCURVE",
"32 294 CURVE SMOOTH",
"32 91 OFFCURVE",
"147 -10 OFFCURVE",
"316 -10 CURVE SMOOTH"
);
},
{
closed = 1;
nodes = (
"245 126 OFFCURVE",
"210 165 OFFCURVE",
"201 220 CURVE",
"201 276 OFFCURVE",
"241 314 OFFCURVE",
"306 314 CURVE SMOOTH",
"371 314 OFFCURVE",
"411 276 OFFCURVE",
"411 220 CURVE SMOOTH",
"411 164 OFFCURVE",
"371 126 OFFCURVE",
"306 126 CURVE SMOOTH"
);
}
);
width = 612;
}
);
unicode = 0036;
},
{
glyphname = seven;
layers = (
{
layerId = "19C37293-DF0C-4049-8F1C-5BECA685D590";
paths = (
{
closed = 1;
nodes = (
"247 0 LINE",
"502 551 LINE",
"502 668 LINE",
"12 668 LINE",
"12 532 LINE",
"340 532 LINE",
"87 0 LINE"
);
}
);
width = 514;
}
);
unicode = 0037;
},
{
glyphname = eight;
layers = (
{
layerId = "19C37293-DF0C-4049-8F1C-5BECA685D590";
paths = (
{
closed = 1;
nodes = (
"476 -10 OFFCURVE",
"580 74 OFFCURVE",
"580 190 CURVE SMOOTH",
"580 259 OFFCURVE",
"542 313 OFFCURVE",
"463 344 CURVE",
"534 373 OFFCURVE",
"570 421 OFFCURVE",
"570 488 CURVE SMOOTH",
"570 603 OFFCURVE",
"465 678 OFFCURVE",
"306 678 CURVE SMOOTH",
"145 678 OFFCURVE",
"42 603 OFFCURVE",
"42 488 CURVE SMOOTH",
"42 421 OFFCURVE",
"77 372 OFFCURVE",
"148 344 CURVE",
"71 313 OFFCURVE",
"32 259 OFFCURVE",
"32 190 CURVE SMOOTH",
"32 74 OFFCURVE",
"136 -10 OFFCURVE",
"306 -10 CURVE SMOOTH"
);
},
{
closed = 1;
nodes = (
"239 118 OFFCURVE",
"201 153 OFFCURVE",
"201 202 CURVE SMOOTH",
"201 251 OFFCURVE",
"239 286 OFFCURVE",
"306 286 CURVE SMOOTH",
"373 286 OFFCURVE",
"411 251 OFFCURVE",
"411 202 CURVE SMOOTH",
"411 153 OFFCURVE",
"373 118 OFFCURVE",
"306 118 CURVE SMOOTH"
);
},
{
closed = 1;
nodes = (
"246 402 OFFCURVE",
"211 431 OFFCURVE",
"211 476 CURVE SMOOTH",
"211 521 OFFCURVE",
"246 550 OFFCURVE",
"306 550 CURVE SMOOTH",
"366 550 OFFCURVE",
"401 521 OFFCURVE",
"401 476 CURVE SMOOTH",
"401 431 OFFCURVE",
"366 402 OFFCURVE",
"306 402 CURVE SMOOTH"
);
}
);
width = 612;
}
);
unicode = 0038;
},
{
glyphname = nine;
layers = (
{
layerId = "19C37293-DF0C-4049-8F1C-5BECA685D590";
paths = (
{
closed = 1;
nodes = (
"328 231 OFFCURVE",
"380 255 OFFCURVE",
"411 291 CURVE",
"406 166 OFFCURVE",
"327 126 OFFCURVE",
"251 126 CURVE SMOOTH",
"207 126 OFFCURVE",
"158 140 OFFCURVE",
"101 183 CURVE",
"50 76 LINE",
"101 19 OFFCURVE",
"180 -10 OFFCURVE",
"268 -10 CURVE SMOOTH",
"473 -10 OFFCURVE",
"580 144 OFFCURVE",
"580 374 CURVE SMOOTH",
"580 577 OFFCURVE",
"463 678 OFFCURVE",
"296 678 CURVE SMOOTH",
"131 678 OFFCURVE",
"32 576 OFFCURVE",
"32 446 CURVE SMOOTH",
"32 317 OFFCURVE",
"120 231 OFFCURVE",
"264 231 CURVE SMOOTH"
);
},
{
closed = 1;
nodes = (
"241 354 OFFCURVE",
"201 392 OFFCURVE",
"201 448 CURVE SMOOTH",
"201 504 OFFCURVE",
"241 542 OFFCURVE",
"306 542 CURVE SMOOTH",
"367 542 OFFCURVE",
"402 503 OFFCURVE",
"411 448 CURVE",
"411 392 OFFCURVE",
"371 354 OFFCURVE",
"306 354 CURVE SMOOTH"
);
}
);
width = 612;
}
);
unicode = 0039;
},
{
glyphname = colon;
layers = (
{
layerId = "19C37293-DF0C-4049-8F1C-5BECA685D590";
paths = (
{
closed = 1;
nodes = (
"200 -9 OFFCURVE",
"234 27 OFFCURVE",
"234 75 CURVE SMOOTH",
"234 123 OFFCURVE",
"200 159 OFFCURVE",
"145 159 CURVE SMOOTH",
"92 159 OFFCURVE",
"57 123 OFFCURVE",
"57 75 CURVE SMOOTH",
"57 27 OFFCURVE",
"92 -9 OFFCURVE",
"145 -9 CURVE SMOOTH"
);
},
{
closed = 1;
nodes = (
"200 327 OFFCURVE",
"234 363 OFFCURVE",
"234 411 CURVE SMOOTH",
"234 459 OFFCURVE",
"200 495 OFFCURVE",
"145 495 CURVE SMOOTH",
"92 495 OFFCURVE",
"57 459 OFFCURVE",
"57 411 CURVE SMOOTH",
"57 363 OFFCURVE",
"92 327 OFFCURVE",
"145 327 CURVE SMOOTH"
);
}
);
width = 291;
}
);
unicode = 003A;
},
{
glyphname = semicolon;
layers = (
{
layerId = "19C37293-DF0C-4049-8F1C-5BECA685D590";
paths = (
{
closed = 1;
nodes = (
"106 -164 LINE",
"181 -113 OFFCURVE",
"215 -51 OFFCURVE",
"215 48 CURVE SMOOTH",
"215 142 LINE",
"76 142 LINE",
"76 48 LINE SMOOTH",
"76 -3 OFFCURVE",
"56 -72 OFFCURVE",
"25 -125 CURVE"
);
},
{
closed = 1;
nodes = (
"200 327 OFFCURVE",
"234 363 OFFCURVE",
"234 411 CURVE SMOOTH",
"234 459 OFFCURVE",
"200 495 OFFCURVE",
"145 495 CURVE SMOOTH",
"92 495 OFFCURVE",
"57 459 OFFCURVE",
"57 411 CURVE SMOOTH",
"57 363 OFFCURVE",
"92 327 OFFCURVE",
"145 327 CURVE SMOOTH"
);
}
);
width = 291;
}
);
unicode = 003B;
},
{
glyphname = less;
layers = (
{
layerId = "19C37293-DF0C-4049-8F1C-5BECA685D590";
paths = (
{
closed = 1;
nodes = (
"529 100 LINE",
"529 240 LINE",
"217 334 LINE",
"529 428 LINE",
"529 568 LINE",
"53 404 LINE",
"53 264 LINE"
);
}
);
width = 582;
}
);
unicode = 003C;
},
{
glyphname = equal;
layers = (
{
layerId = "19C37293-DF0C-4049-8F1C-5BECA685D590";
paths = (
{
closed = 1;
nodes = (
"529 156 LINE",
"529 286 LINE",
"53 286 LINE",
"53 156 LINE"
);
},
{
closed = 1;
nodes = (
"529 382 LINE",
"529 512 LINE",
"53 512 LINE",
"53 382 LINE"
);
}
);
width = 582;
}
);
unicode = 003D;
},
{
glyphname = greater;
layers = (
{
layerId = "19C37293-DF0C-4049-8F1C-5BECA685D590";
paths = (
{
closed = 1;
nodes = (
"529 264 LINE",
"529 404 LINE",
"53 568 LINE",
"53 421 LINE",
"351 334 LINE",
"53 247 LINE",
"53 100 LINE"
);
}
);
width = 582;
}
);
unicode = 003E;
},
{
glyphname = question;
layers = (
{
layerId = "19C37293-DF0C-4049-8F1C-5BECA685D590";
paths = (
{
closed = 1;
nodes = (
"286 -9 OFFCURVE",
"319 27 OFFCURVE",
"319 75 CURVE SMOOTH",
"319 123 OFFCURVE",
"286 159 OFFCURVE",
"231 159 CURVE SMOOTH",
"176 159 OFFCURVE",
"143 123 OFFCURVE",
"143 75 CURVE SMOOTH",
"143 27 OFFCURVE",
"176 -9 OFFCURVE",
"231 -9 CURVE SMOOTH"
);
},
{
closed = 1;
nodes = (
"297 227 LINE",
"297 241 LINE SMOOTH",
"297 322 OFFCURVE",
"456 370 OFFCURVE",
"456 485 CURVE SMOOTH",
"456 607 OFFCURVE",
"356 678 OFFCURVE",
"222 678 CURVE SMOOTH",
"139 678 OFFCURVE",
"74 651 OFFCURVE",
"6 592 CURVE",
"56 484 LINE",
"131 527 OFFCURVE",
"168 542 OFFCURVE",
"205 542 CURVE SMOOTH",
"252 542 OFFCURVE",
"287 515 OFFCURVE",
"287 468 CURVE SMOOTH",
"287 401 OFFCURVE",
"165 361 OFFCURVE",
"165 258 CURVE SMOOTH",
"165 227 LINE"
);
}
);
width = 474;
}
);
unicode = 003F;
},
{
glyphname = at;
layers = (
{
layerId = "19C37293-DF0C-4049-8F1C-5BECA685D590";
paths = (
{
closed = 1;
nodes = (
"466 94 OFFCURVE",
"512 122 OFFCURVE",
"541 179 CURVE",
"568 122 OFFCURVE",
"612 94 OFFCURVE",
"673 94 CURVE SMOOTH",
"775 94 OFFCURVE",
"859 170 OFFCURVE",
"859 324 CURVE SMOOTH",
"859 523 OFFCURVE",
"696 678 OFFCURVE",
"445 678 CURVE SMOOTH",
"196 678 OFFCURVE",
"32 512 OFFCURVE",
"32 284 CURVE SMOOTH",
"32 56 OFFCURVE",
"196 -110 OFFCURVE",
"445 -110 CURVE SMOOTH",
"526 -110 OFFCURVE",
"596 -92 OFFCURVE",
"652 -53 CURVE",
"617 28 LINE",
"570 3 OFFCURVE",
"509 -12 OFFCURVE",
"445 -12 CURVE SMOOTH",
"260 -12 OFFCURVE",
"138 104 OFFCURVE",
"138 284 CURVE SMOOTH",
"138 464 OFFCURVE",
"260 580 OFFCURVE",
"445 580 CURVE SMOOTH",
"631 580 OFFCURVE",
"753 473 OFFCURVE",
"753 324 CURVE SMOOTH",
"753 235 OFFCURVE",
"728 197 OFFCURVE",
"685 197 CURVE SMOOTH",
"652 197 OFFCURVE",
"629 224 OFFCURVE",
"629 271 CURVE SMOOTH",
"629 466 LINE",
"509 466 LINE",
"509 426 LINE",
"485 457 OFFCURVE",
"452 474 OFFCURVE",
"403 474 CURVE SMOOTH",
"307 474 OFFCURVE",
"240 401 OFFCURVE",
"240 284 CURVE SMOOTH",
"240 167 OFFCURVE",
"307 94 OFFCURVE",
"403 94 CURVE SMOOTH"
);
},
{
closed = 1;
nodes = (
"391 197 OFFCURVE",
"362 229 OFFCURVE",
"362 284 CURVE SMOOTH",
"362 339 OFFCURVE",
"391 371 OFFCURVE",
"438 371 CURVE SMOOTH",
"485 371 OFFCURVE",
"513 339 OFFCURVE",
"513 284 CURVE SMOOTH",
"513 229 OFFCURVE",
"485 197 OFFCURVE",
"438 197 CURVE SMOOTH"
);
}
);
width = 891;
}
);
unicode = 0040;
},
{
glyphname = A;
layers = (
{
layerId = "19C37293-DF0C-4049-8F1C-5BECA685D590";
paths = (
{
closed = 1;
nodes = (
"701 0 LINE",
"447 668 LINE",
"262 668 LINE",
"8 0 LINE",
"189 0 LINE",
"226 108 LINE",
"483 108 LINE",
"520 0 LINE"
);
},
{
closed = 1;
nodes = (
"440 244 LINE",
"269 244 LINE",
"354 494 LINE"
);
}
);
width = 709;
}
);
leftKerningGroup = _A1;
rightKerningGroup = _A;
unicode = 0041;
},
{
glyphname = B;
layers = (
{
layerId = "19C37293-DF0C-4049-8F1C-5BECA685D590";
paths = (
{
closed = 1;
nodes = (
"662 266 OFFCURVE",
"623 320 OFFCURVE",
"535 344 CURVE",
"612 371 OFFCURVE",
"642 424 OFFCURVE",
"642 496 CURVE SMOOTH",
"642 617 OFFCURVE",
"557 668 OFFCURVE",
"392 668 CURVE SMOOTH",
"62 668 LINE",
"62 0 LINE",
"392 0 LINE SMOOTH",
"579 0 OFFCURVE",
"662 58 OFFCURVE",
"662 182 CURVE SMOOTH"
);
},
{
closed = 1;
nodes = (
"493 154 OFFCURVE",
"462 132 OFFCURVE",
"374 132 CURVE SMOOTH",
"229 132 LINE",
"229 283 LINE",
"374 283 LINE SMOOTH",
"462 283 OFFCURVE",
"493 262 OFFCURVE",
"493 207 CURVE SMOOTH"
);
},
{
closed = 1;
nodes = (
"473 424 OFFCURVE",
"451 405 OFFCURVE",
"374 405 CURVE SMOOTH",
"229 405 LINE",
"229 536 LINE",
"374 536 LINE SMOOTH",
"451 536 OFFCURVE",
"473 516 OFFCURVE",
"473 471 CURVE SMOOTH"
);
}
);
width = 694;
}
);
unicode = 0042;
},
{
glyphname = C;
layers = (
{
layerId = "19C37293-DF0C-4049-8F1C-5BECA685D590";
paths = (
{
closed = 1;
nodes = (
"478 -10 OFFCURVE",
"553 11 OFFCURVE",
"629 62 CURVE",
"572 188 LINE",
"505 151 OFFCURVE",
"450 135 OFFCURVE",
"390 135 CURVE SMOOTH",
"277 135 OFFCURVE",
"201 215 OFFCURVE",
"201 334 CURVE SMOOTH",
"201 453 OFFCURVE",
"277 533 OFFCURVE",
"390 533 CURVE SMOOTH",
"450 533 OFFCURVE",
"505 517 OFFCURVE",
"572 480 CURVE",
"629 606 LINE",
"553 657 OFFCURVE",
"478 678 OFFCURVE",
"390 678 CURVE SMOOTH",
"173 678 OFFCURVE",
"32 534 OFFCURVE",
"32 334 CURVE SMOOTH",
"32 134 OFFCURVE",
"172 -10 OFFCURVE",
"390 -10 CURVE SMOOTH"
);
}
);
width = 655;
}
);
leftKerningGroup = _C1;
rightKerningGroup = _C;
unicode = 0043;
},
{
glyphname = D;
layers = (
{
layerId = "19C37293-DF0C-4049-8F1C-5BECA685D590";
paths = (
{
closed = 1;
nodes = (
"678 555 OFFCURVE",
"549 668 OFFCURVE",
"310 668 CURVE SMOOTH",
"62 668 LINE",
"62 0 LINE",
"310 0 LINE SMOOTH",
"549 0 OFFCURVE",
"678 113 OFFCURVE",
"678 334 CURVE SMOOTH"
);
},
{
closed = 1;
nodes = (
"509 203 OFFCURVE",
"455 140 OFFCURVE",
"308 140 CURVE SMOOTH",
"229 140 LINE",
"229 528 LINE",
"308 528 LINE SMOOTH",
"455 528 OFFCURVE",
"509 463 OFFCURVE",
"509 334 CURVE SMOOTH"
);
}
);
width = 710;
}
);
rightKerningGroup = _D;
unicode = 0044;
},
{
glyphname = E;
layers = (
{
layerId = "19C37293-DF0C-4049-8F1C-5BECA685D590";
paths = (
{
closed = 1;
nodes = (
"558 0 LINE",
"558 140 LINE",
"229 140 LINE",
"229 279 LINE",
"528 279 LINE",
"528 409 LINE",
"229 409 LINE",
"229 528 LINE",
"558 528 LINE",
"558 668 LINE",
"62 668 LINE",
"62 0 LINE"
);
}
);
width = 603;
}
);
unicode = 0045;
},
{
glyphname = F;
layers = (
{
layerId = "19C37293-DF0C-4049-8F1C-5BECA685D590";
paths = (
{
closed = 1;
nodes = (
"229 0 LINE",
"229 279 LINE",
"528 279 LINE",
"528 409 LINE",
"229 409 LINE",
"229 528 LINE",
"558 528 LINE",
"558 668 LINE",
"62 668 LINE",
"62 0 LINE"
);
}
);
width = 593;
}
);
unicode = 0046;
},
{
glyphname = G;
layers = (
{
layerId = "19C37293-DF0C-4049-8F1C-5BECA685D590";
paths = (
{
closed = 1;
nodes = (
"523 -10 OFFCURVE",
"627 43 OFFCURVE",
"688 131 CURVE",
"688 389 LINE",
"380 389 LINE",
"380 261 LINE",
"521 261 LINE",
"521 185 LINE",
"488 152 OFFCURVE",
"444 135 OFFCURVE",
"390 135 CURVE SMOOTH",
"277 135 OFFCURVE",
"201 215 OFFCURVE",
"201 334 CURVE SMOOTH",
"201 453 OFFCURVE",
"277 533 OFFCURVE",
"390 533 CURVE SMOOTH",
"451 533 OFFCURVE",
"516 517 OFFCURVE",
"584 480 CURVE",
"640 605 LINE",
"564 656 OFFCURVE",
"478 678 OFFCURVE",
"390 678 CURVE SMOOTH",
"173 678 OFFCURVE",
"32 534 OFFCURVE",
"32 334 CURVE SMOOTH",
"32 134 OFFCURVE",
"172 -10 OFFCURVE",
"390 -10 CURVE SMOOTH"
);
}
);
width = 730;
}
);
leftKerningGroup = _C1;
rightKerningGroup = _G;
unicode = 0047;
},
{
glyphname = H;
layers = (
{
layerId = "19C37293-DF0C-4049-8F1C-5BECA685D590";
paths = (
{
closed = 1;
nodes = (
"658 0 LINE",
"658 668 LINE",
"491 668 LINE",
"491 416 LINE",
"229 416 LINE",
"229 668 LINE",
"62 668 LINE",
"62 0 LINE",
"229 0 LINE",
"229 272 LINE",
"491 272 LINE",
"491 0 LINE"
);
}
);
width = 720;
}
);
unicode = 0048;
},
{
glyphname = I;
layers = (
{
layerId = "19C37293-DF0C-4049-8F1C-5BECA685D590";
paths = (
{
closed = 1;
nodes = (
"229 0 LINE",
"229 668 LINE",
"62 668 LINE",
"62 0 LINE"
);
}
);
width = 291;
}
);
unicode = 0049;
},
{
glyphname = J;
layers = (
{
layerId = "19C37293-DF0C-4049-8F1C-5BECA685D590";
paths = (
{
closed = 1;
nodes = (
"385 -10 OFFCURVE",
"464 87 OFFCURVE",
"464 259 CURVE SMOOTH",
"464 668 LINE",
"297 668 LINE",
"297 251 LINE SMOOTH",
"297 170 OFFCURVE",
"260 135 OFFCURVE",
"197 135 CURVE SMOOTH",
"160 135 OFFCURVE",
"115 153 OFFCURVE",
"78 178 CURVE",
"22 59 LINE",
"82 10 OFFCURVE",
"136 -10 OFFCURVE",
"216 -10 CURVE SMOOTH"
);
}
);
width = 526;
}
);
leftKerningGroup = _J1;
rightKerningGroup = _J;
unicode = 004A;
},
{
glyphname = K;
layers = (
{
layerId = "19C37293-DF0C-4049-8F1C-5BECA685D590";
paths = (
{
closed = 1;
nodes = (
"660 0 LINE",
"404 379 LINE",
"650 668 LINE",
"454 668 LINE",
"229 394 LINE",
"229 668 LINE",
"62 668 LINE",
"62 0 LINE",
"229 0 LINE",
"229 172 LINE",
"300 257 LINE",
"464 0 LINE"
);
}
);
width = 668;
}
);
rightKerningGroup = _K;
unicode = 004B;
},
{
glyphname = L;
layers = (
{
layerId = "19C37293-DF0C-4049-8F1C-5BECA685D590";
paths = (
{
closed = 1;
nodes = (
"508 0 LINE",
"508 145 LINE",
"229 145 LINE",
"229 668 LINE",
"62 668 LINE",
"62 0 LINE"
);
}
);
width = 543;
}
);
rightKerningGroup = _L;
unicode = 004C;
},
{
glyphname = M;
layers = (
{
layerId = "19C37293-DF0C-4049-8F1C-5BECA685D590";
paths = (
{
closed = 1;
nodes = (
"851 0 LINE",
"851 668 LINE",
"587 668 LINE",
"456 226 LINE",
"325 668 LINE",
"62 668 LINE",
"62 0 LINE",
"229 0 LINE",
"229 509 LINE",
"385 0 LINE",
"528 0 LINE",
"684 509 LINE",
"684 0 LINE"
);
}
);
width = 913;
}
);
unicode = 004D;
},
{
glyphname = N;
layers = (
{
layerId = "19C37293-DF0C-4049-8F1C-5BECA685D590";
paths = (
{
closed = 1;
nodes = (
"658 0 LINE",
"658 668 LINE",
"491 668 LINE",
"491 253 LINE",
"239 668 LINE",
"62 668 LINE",
"62 0 LINE",
"229 0 LINE",
"229 415 LINE",
"481 0 LINE"
);
}
);
width = 720;
}
);
unicode = 004E;
},
{
glyphname = O;
layers = (
{
layerId = "19C37293-DF0C-4049-8F1C-5BECA685D590";
paths = (
{
closed = 1;
nodes = (
"608 -10 OFFCURVE",
"748 134 OFFCURVE",
"748 334 CURVE SMOOTH",
"748 534 OFFCURVE",
"608 678 OFFCURVE",
"390 678 CURVE SMOOTH",
"173 678 OFFCURVE",
"32 534 OFFCURVE",
"32 334 CURVE SMOOTH",
"32 134 OFFCURVE",
"172 -10 OFFCURVE",
"390 -10 CURVE SMOOTH"
);
},
{
closed = 1;
nodes = (
"277 135 OFFCURVE",
"201 215 OFFCURVE",
"201 334 CURVE SMOOTH",
"201 453 OFFCURVE",
"277 533 OFFCURVE",
"390 533 CURVE SMOOTH",
"502 533 OFFCURVE",
"579 453 OFFCURVE",
"579 334 CURVE SMOOTH",
"579 215 OFFCURVE",
"502 135 OFFCURVE",
"390 135 CURVE SMOOTH"
);
}
);
width = 780;
}
);
leftKerningGroup = _C1;
rightKerningGroup = _D;
unicode = 004F;
},
{
glyphname = P;
layers = (
{
layerId = "19C37293-DF0C-4049-8F1C-5BECA685D590";
paths = (
{
closed = 1;
nodes = (
"617 586 OFFCURVE",
"534 668 OFFCURVE",
"358 668 CURVE SMOOTH",
"62 668 LINE",
"62 0 LINE",
"229 0 LINE",
"229 223 LINE",
"358 223 LINE SMOOTH",
"534 223 OFFCURVE",
"617 304 OFFCURVE",
"617 445 CURVE SMOOTH"
);
},
{
closed = 1;
nodes = (
"448 381 OFFCURVE",
"406 355 OFFCURVE",
"330 355 CURVE SMOOTH",
"229 355 LINE",
"229 536 LINE",
"330 536 LINE SMOOTH",
"407 536 OFFCURVE",
"448 510 OFFCURVE",
"448 445 CURVE SMOOTH"
);
}
);
width = 649;
}
);
unicode = 0050;
},
{
glyphname = Q;
layers = (
{
layerId = "19C37293-DF0C-4049-8F1C-5BECA685D590";
paths = (
{
closed = 1;
nodes = (
"662 -192 OFFCURVE",
"720 -177 OFFCURVE",
"788 -138 CURVE",
"739 -29 LINE",
"690 -52 OFFCURVE",
"649 -64 OFFCURVE",
"615 -64 CURVE SMOOTH",
"555 -64 OFFCURVE",
"527 -32 OFFCURVE",
"523 11 CURVE",
"663 57 OFFCURVE",
"748 178 OFFCURVE",
"748 334 CURVE SMOOTH",
"748 534 OFFCURVE",
"608 678 OFFCURVE",
"390 678 CURVE SMOOTH",
"173 678 OFFCURVE",
"32 534 OFFCURVE",
"32 334 CURVE SMOOTH",
"32 134 OFFCURVE",
"172 -10 OFFCURVE",
"390 -10 CURVE",
"390 -106 OFFCURVE",
"458 -192 OFFCURVE",
"602 -192 CURVE SMOOTH"
);
},
{
closed = 1;
nodes = (
"277 135 OFFCURVE",
"201 215 OFFCURVE",
"201 334 CURVE SMOOTH",
"201 453 OFFCURVE",
"277 533 OFFCURVE",
"390 533 CURVE SMOOTH",
"502 533 OFFCURVE",
"579 453 OFFCURVE",
"579 334 CURVE SMOOTH",
"579 215 OFFCURVE",
"502 135 OFFCURVE",
"390 135 CURVE SMOOTH"
);
}
);
width = 780;
}
);
leftKerningGroup = _C1;
rightKerningGroup = _D;
unicode = 0051;
},
{
glyphname = R;
layers = (
{
layerId = "19C37293-DF0C-4049-8F1C-5BECA685D590";
paths = (
{
closed = 1;
nodes = (
"617 596 OFFCURVE",
"526 668 OFFCURVE",
"358 668 CURVE SMOOTH",
"62 668 LINE",
"62 0 LINE",
"229 0 LINE",
"229 245 LINE",
"291 245 LINE",
"456 0 LINE",
"651 0 LINE",
"464 258 LINE",
"563 285 OFFCURVE",
"617 348 OFFCURVE",
"617 456 CURVE SMOOTH"
);
},
{
closed = 1;
nodes = (
"448 400 OFFCURVE",
"414 375 OFFCURVE",
"330 375 CURVE SMOOTH",
"229 375 LINE",
"229 536 LINE",
"330 536 LINE SMOOTH",
"417 536 OFFCURVE",
"448 511 OFFCURVE",
"448 455 CURVE SMOOTH"
);
}
);
width = 649;
}
);
rightKerningGroup = _R;
unicode = 0052;
},
{
glyphname = S;
layers = (
{
layerId = "19C37293-DF0C-4049-8F1C-5BECA685D590";
paths = (
{
closed = 1;
nodes = (
"465 -10 OFFCURVE",
"560 76 OFFCURVE",
"560 217 CURVE SMOOTH",
"560 308 OFFCURVE",
"506 382 OFFCURVE",
"375 406 CURVE SMOOTH",
"291 422 LINE SMOOTH",
"246 430 OFFCURVE",
"221 447 OFFCURVE",
"221 479 CURVE SMOOTH",
"221 518 OFFCURVE",
"248 541 OFFCURVE",
"311 541 CURVE SMOOTH",
"358 541 OFFCURVE",
"418 517 OFFCURVE",
"483 481 CURVE",
"540 606 LINE",
"460 662 OFFCURVE",
"383 678 OFFCURVE",
"307 678 CURVE SMOOTH",
"127 678 OFFCURVE",
"52 576 OFFCURVE",
"52 452 CURVE SMOOTH",
"52 360 OFFCURVE",
"105 302 OFFCURVE",
"237 278 CURVE SMOOTH",
"321 262 LINE SMOOTH",
"366 254 OFFCURVE",
"391 229 OFFCURVE",
"391 197 CURVE SMOOTH",
"391 154 OFFCURVE",
"353 127 OFFCURVE",
"284 127 CURVE SMOOTH",
"233 127 OFFCURVE",
"164 153 OFFCURVE",
"89 201 CURVE",
"32 76 LINE",
"112 15 OFFCURVE",
"188 -10 OFFCURVE",
"284 -10 CURVE SMOOTH"
);
}
);
width = 592;
}
);
leftKerningGroup = _S;
rightKerningGroup = _S;
unicode = 0053;
},
{
glyphname = T;
layers = (
{
layerId = "19C37293-DF0C-4049-8F1C-5BECA685D590";
paths = (
{
closed = 1;
nodes = (
"392 0 LINE",
"392 523 LINE",
"581 523 LINE",
"581 668 LINE",
"35 668 LINE",
"35 523 LINE",
"225 523 LINE",
"225 0 LINE"
);
}
);
width = 616;
}
);
leftKerningGroup = _T;
rightKerningGroup = _T;
unicode = 0054;
},
{
glyphname = U;
layers = (
{
layerId = "19C37293-DF0C-4049-8F1C-5BECA685D590";
paths = (
{
closed = 1;
nodes = (
"551 -10 OFFCURVE",
"658 80 OFFCURVE",
"658 276 CURVE SMOOTH",
"658 668 LINE",
"491 668 LINE",
"491 276 LINE SMOOTH",
"491 184 OFFCURVE",
"448 135 OFFCURVE",
"360 135 CURVE SMOOTH",
"272 135 OFFCURVE",
"229 184 OFFCURVE",
"229 276 CURVE SMOOTH",
"229 668 LINE",
"62 668 LINE",
"62 276 LINE SMOOTH",
"62 80 OFFCURVE",
"169 -10 OFFCURVE",
"360 -10 CURVE SMOOTH"
);
}
);
width = 720;
}
);
leftKerningGroup = _U;
rightKerningGroup = _U;
unicode = 0055;
},
{
glyphname = V;
layers = (
{
layerId = "19C37293-DF0C-4049-8F1C-5BECA685D590";
paths = (
{
closed = 1;
nodes = (
"447 0 LINE",
"701 668 LINE",
"515 668 LINE",
"354 191 LINE",
"194 668 LINE",
"8 668 LINE",
"262 0 LINE"
);
}
);
width = 709;
}
);
unicode = 0056;
},
{
glyphname = W;
layers = (
{
layerId = "19C37293-DF0C-4049-8F1C-5BECA685D590";
paths = (
{
closed = 1;
nodes = (
"803 0 LINE",
"1005 668 LINE",
"819 668 LINE",
"703 209 LINE",
"595 668 LINE",
"418 668 LINE",
"310 209 LINE",
"194 668 LINE",
"8 668 LINE",
"210 0 LINE",
"394 0 LINE",
"506 440 LINE",
"619 0 LINE"
);
}
);
width = 1013;
}
);
leftKerningGroup = _W;
rightKerningGroup = _W;
unicode = 0057;
},
{
glyphname = X;
layers = (
{
layerId = "19C37293-DF0C-4049-8F1C-5BECA685D590";
paths = (
{
closed = 1;
nodes = (
"681 0 LINE",
"448 344 LINE",
"671 668 LINE",
"476 668 LINE",
"344 466 LINE",
"213 668 LINE",
"18 668 LINE",
"240 344 LINE",
"8 0 LINE",
"203 0 LINE",
"344 222 LINE",
"486 0 LINE"
);
}
);
width = 689;
}
);
unicode = 0058;
},
{
glyphname = Y;
layers = (
{
layerId = "19C37293-DF0C-4049-8F1C-5BECA685D590";
paths = (
{
closed = 1;
nodes = (
"428 0 LINE",
"428 250 LINE",
"681 668 LINE",
"486 668 LINE",
"344 408 LINE",
"203 668 LINE",
"8 668 LINE",
"261 250 LINE",
"261 0 LINE"
);
}
);
width = 689;
}
);
leftKerningGroup = _Y;
rightKerningGroup = _Y;
unicode = 0059;
},
{
glyphname = Z;
layers = (
{
layerId = "19C37293-DF0C-4049-8F1C-5BECA685D590";
paths = (
{
closed = 1;
nodes = (
"566 0 LINE",
"566 145 LINE",
"245 145 LINE",
"556 542 LINE",
"556 668 LINE",
"43 668 LINE",
"43 523 LINE",
"343 523 LINE",
"33 126 LINE",
"33 0 LINE"
);
}
);
width = 599;
}
);
leftKerningGroup = _Z;
rightKerningGroup = _Z;
unicode = 005A;
},
{
glyphname = bracketleft;
layers = (
{
layerId = "19C37293-DF0C-4049-8F1C-5BECA685D590";
paths = (
{
closed = 1;
nodes = (
"345 -252 LINE",
"345 -128 LINE",
"203 -128 LINE",
"203 614 LINE",
"345 614 LINE",
"345 738 LINE",
"62 738 LINE",
"62 -252 LINE"
);
}
);
width = 382;
}
);
unicode = 005B;
},
{
glyphname = backslash;
layers = (
{
layerId = "19C37293-DF0C-4049-8F1C-5BECA685D590";
paths = (
{
closed = 1;
nodes = (
"368 0 LINE",
"150 668 LINE",
"9 668 LINE",
"227 0 LINE"
);
}
);
width = 377;
}
);
unicode = 005C;
},
{
glyphname = bracketright;
layers = (
{
layerId = "19C37293-DF0C-4049-8F1C-5BECA685D590";
paths = (
{
closed = 1;
nodes = (
"321 -252 LINE",
"321 738 LINE",
"38 738 LINE",
"38 614 LINE",
"179 614 LINE",
"179 -128 LINE",
"38 -128 LINE",
"38 -252 LINE"
);
}
);
width = 382;
}
);
unicode = 005D;
},
{
glyphname = asciicircum;
layers = (
{
layerId = "19C37293-DF0C-4049-8F1C-5BECA685D590";
paths = (
{
closed = 1;
nodes = (
"511 263 LINE",
"369 668 LINE",
"213 668 LINE",
"71 263 LINE",
"211 263 LINE",
"291 524 LINE",
"371 263 LINE"
);
}
);
width = 582;
}
);
unicode = 005E;
},
{
glyphname = underscore;
layers = (
{
layerId = "19C37293-DF0C-4049-8F1C-5BECA685D590";
paths = (
{
closed = 1;
nodes = (
"508 -147 LINE",
"508 -41 LINE",
"0 -41 LINE",
"0 -147 LINE"
);
}
);
width = 508;
}
);
unicode = 005F;
},
{
glyphname = grave;
layers = (
{
layerId = "19C37293-DF0C-4049-8F1C-5BECA685D590";
paths = (
{
closed = 1;
nodes = (
"393 537 LINE",
"330 696 LINE",
"176 696 LINE",
"287 537 LINE"
);
}
);
width = 600;
}
);
unicode = 0060;
},
{
glyphname = a;
layers = (
{
layerId = "19C37293-DF0C-4049-8F1C-5BECA685D590";
paths = (
{
closed = 1;
nodes = (
"275 -10 OFFCURVE",
"318 5 OFFCURVE",
"357 46 CURVE",
"357 0 LINE",
"507 0 LINE",
"507 286 LINE SMOOTH",
"507 419 OFFCURVE",
"422 480 OFFCURVE",
"269 480 CURVE SMOOTH",
"202 480 OFFCURVE",
"131 461 OFFCURVE",
"66 418 CURVE",
"114 307 LINE",
"174 339 OFFCURVE",
"218 351 OFFCURVE",
"258 351 CURVE SMOOTH",
"298 351 OFFCURVE",
"335 335 OFFCURVE",
"346 294 CURVE",
"202 277 LINE",
"109 264 OFFCURVE",
"32 231 OFFCURVE",
"32 133 CURVE SMOOTH",
"32 37 OFFCURVE",
"109 -10 OFFCURVE",
"202 -10 CURVE SMOOTH"
);
},
{
closed = 1;
nodes = (
"213 108 OFFCURVE",
"192 120 OFFCURVE",
"192 143 CURVE SMOOTH",
"192 165 OFFCURVE",
"213 179 OFFCURVE",
"255 185 CURVE SMOOTH",
"349 198 LINE",
"349 186 LINE SMOOTH",
"349 143 OFFCURVE",
"311 108 OFFCURVE",
"254 108 CURVE SMOOTH"
);
}
);
width = 560;
}
);
leftKerningGroup = _a1;
rightKerningGroup = _a;
unicode = 0061;
},
{
glyphname = b;
layers = (
{
layerId = "19C37293-DF0C-4049-8F1C-5BECA685D590";
paths = (
{
closed = 1;
nodes = (
"470 -10 OFFCURVE",
"570 83 OFFCURVE",
"570 235 CURVE SMOOTH",
"570 387 OFFCURVE",
"470 480 OFFCURVE",
"345 480 CURVE SMOOTH",
"285 480 OFFCURVE",
"240 459 OFFCURVE",
"211 426 CURVE",
"211 668 LINE",
"53 668 LINE",
"53 0 LINE",
"203 0 LINE",
"203 53 LINE",
"232 14 OFFCURVE",
"280 -10 OFFCURVE",
"345 -10 CURVE SMOOTH"
);
},
{
closed = 1;
nodes = (
"247 126 OFFCURVE",
"205 167 OFFCURVE",
"205 235 CURVE SMOOTH",
"205 303 OFFCURVE",
"247 344 OFFCURVE",
"307 344 CURVE SMOOTH",
"367 344 OFFCURVE",
"409 303 OFFCURVE",
"409 235 CURVE SMOOTH",
"409 167 OFFCURVE",
"367 126 OFFCURVE",
"307 126 CURVE SMOOTH"
);
}
);
width = 602;
}
);
rightKerningGroup = _b;
unicode = 0062;
},
{
glyphname = c;
layers = (
{
layerId = "19C37293-DF0C-4049-8F1C-5BECA685D590";
paths = (
{
closed = 1;
nodes = (
"360 -10 OFFCURVE",
"419 8 OFFCURVE",
"470 43 CURVE",
"417 161 LINE",
"372 137 OFFCURVE",
"338 126 OFFCURVE",
"295 126 CURVE SMOOTH",
"234 126 OFFCURVE",
"192 167 OFFCURVE",
"192 235 CURVE SMOOTH",
"192 303 OFFCURVE",
"234 344 OFFCURVE",
"295 344 CURVE SMOOTH",
"338 344 OFFCURVE",
"372 333 OFFCURVE",
"417 309 CURVE",
"470 427 LINE",
"419 462 OFFCURVE",
"360 480 OFFCURVE",
"295 480 CURVE SMOOTH",
"142 480 OFFCURVE",
"32 382 OFFCURVE",
"32 235 CURVE SMOOTH",
"32 88 OFFCURVE",
"142 -10 OFFCURVE",
"295 -10 CURVE SMOOTH"
);
}
);
width = 496;
}
);
leftKerningGroup = _c1;
unicode = 0063;
},
{
glyphname = d;
layers = (
{
layerId = "19C37293-DF0C-4049-8F1C-5BECA685D590";
paths = (
{
closed = 1;
nodes = (
"321 -10 OFFCURVE",
"370 14 OFFCURVE",
"399 53 CURVE",
"399 0 LINE",
"548 0 LINE",
"548 668 LINE",
"390 668 LINE",
"390 426 LINE",
"362 459 OFFCURVE",
"316 480 OFFCURVE",
"257 480 CURVE SMOOTH",
"130 480 OFFCURVE",
"32 387 OFFCURVE",
"32 235 CURVE SMOOTH",
"32 83 OFFCURVE",
"130 -10 OFFCURVE",
"257 -10 CURVE SMOOTH"
);
},
{
closed = 1;
nodes = (
"235 126 OFFCURVE",
"192 167 OFFCURVE",
"192 235 CURVE SMOOTH",
"192 303 OFFCURVE",
"235 344 OFFCURVE",
"295 344 CURVE SMOOTH",
"355 344 OFFCURVE",
"397 303 OFFCURVE",
"397 235 CURVE SMOOTH",
"397 167 OFFCURVE",
"355 126 OFFCURVE",
"295 126 CURVE SMOOTH"
);
}
);
width = 602;
}
);
leftKerningGroup = _c1;
unicode = 0064;
},
{
glyphname = e;
layers = (
{
layerId = "19C37293-DF0C-4049-8F1C-5BECA685D590";
paths = (
{
closed = 1;
nodes = (
"379 -10 OFFCURVE",
"449 11 OFFCURVE",
"508 51 CURVE",
"463 158 LINE",
"420 133 OFFCURVE",
"372 116 OFFCURVE",
"320 116 CURVE SMOOTH",
"247 116 OFFCURVE",
"201 142 OFFCURVE",
"192 195 CURVE",
"510 195 LINE",
"521 216 OFFCURVE",
"528 250 OFFCURVE",
"528 275 CURVE SMOOTH",
"528 396 OFFCURVE",
"428 480 OFFCURVE",
"285 480 CURVE SMOOTH",
"142 480 OFFCURVE",
"32 385 OFFCURVE",
"32 235 CURVE SMOOTH",
"32 70 OFFCURVE",
"155 -10 OFFCURVE",
"303 -10 CURVE SMOOTH"
);
},
{
closed = 1;
nodes = (
"342 362 OFFCURVE",
"368 336 OFFCURVE",
"368 303 CURVE SMOOTH",
"368 300 OFFCURVE",
"367 297 OFFCURVE",
"366 293 CURVE",
"192 293 LINE",
"200 333 OFFCURVE",
"236 362 OFFCURVE",
"289 362 CURVE SMOOTH"
);
}
);
width = 560;
}
);
leftKerningGroup = _c1;
rightKerningGroup = _b;
unicode = 0065;
},
{
glyphname = f;
layers = (
{
layerId = "19C37293-DF0C-4049-8F1C-5BECA685D590";
paths = (
{
closed = 1;
nodes = (
"268 0 LINE",
"268 342 LINE",
"379 342 LINE",
"379 470 LINE",
"268 470 LINE",
"268 498 LINE SMOOTH",
"268 529 OFFCURVE",
"284 546 OFFCURVE",
"321 546 CURVE SMOOTH",
"337 546 OFFCURVE",
"364 545 OFFCURVE",
"379 542 CURVE",
"379 663 LINE",
"356 670 OFFCURVE",
"319 674 OFFCURVE",
"283 674 CURVE SMOOTH",
"159 674 OFFCURVE",
"110 621 OFFCURVE",
"110 513 CURVE SMOOTH",
"110 470 LINE",
"18 470 LINE",
"18 342 LINE",
"110 342 LINE",
"110 0 LINE"
);
}
);
width = 397;
}
);
unicode = 0066;
},
{
glyphname = g;
layers = (
{
layerId = "19C37293-DF0C-4049-8F1C-5BECA685D590";
paths = (
{
closed = 1;
nodes = (
"317 20 OFFCURVE",
"362 41 OFFCURVE",
"390 72 CURVE",
"390 44 LINE SMOOTH",
"390 -27 OFFCURVE",
"343 -61 OFFCURVE",
"267 -61 CURVE SMOOTH",
"219 -61 OFFCURVE",
"163 -46 OFFCURVE",
"99 -7 CURVE",
"51 -120 LINE",
"119 -171 OFFCURVE",
"192 -192 OFFCURVE",
"276 -192 CURVE SMOOTH",
"440 -192 OFFCURVE",
"548 -101 OFFCURVE",
"548 70 CURVE SMOOTH",
"548 470 LINE",
"399 470 LINE",
"399 418 LINE",
"370 455 OFFCURVE",
"322 480 OFFCURVE",
"257 480 CURVE SMOOTH",
"140 480 OFFCURVE",
"32 398 OFFCURVE",
"32 250 CURVE SMOOTH",
"32 102 OFFCURVE",
"140 20 OFFCURVE",
"257 20 CURVE SMOOTH"
);
},
{
closed = 1;
nodes = (
"235 148 OFFCURVE",
"192 186 OFFCURVE",
"192 250 CURVE SMOOTH",
"192 314 OFFCURVE",
"235 352 OFFCURVE",
"295 352 CURVE SMOOTH",
"355 352 OFFCURVE",
"397 314 OFFCURVE",
"397 250 CURVE SMOOTH",
"397 186 OFFCURVE",
"355 148 OFFCURVE",
"295 148 CURVE SMOOTH"
);
}
);
width = 602;
}
);
leftKerningGroup = _c1;
unicode = 0067;
},
{
glyphname = h;
layers = (
{
layerId = "19C37293-DF0C-4049-8F1C-5BECA685D590";
paths = (
{
closed = 1;
nodes = (
"517 0 LINE",
"517 294 LINE SMOOTH",
"517 421 OFFCURVE",
"451 480 OFFCURVE",
"346 480 CURVE SMOOTH",
"283 480 OFFCURVE",
"240 460 OFFCURVE",
"211 428 CURVE",
"211 668 LINE",
"53 668 LINE",
"53 0 LINE",
"211 0 LINE",
"211 245 LINE SMOOTH",
"211 312 OFFCURVE",
"245 344 OFFCURVE",
"296 344 CURVE SMOOTH",
"338 344 OFFCURVE",
"359 319 OFFCURVE",
"359 270 CURVE SMOOTH",
"359 0 LINE"
);
}
);
width = 570;
}
);
rightKerningGroup = _h;
unicode = 0068;
},
{
glyphname = i;
layers = (
{
layerId = "19C37293-DF0C-4049-8F1C-5BECA685D590";
paths = (
{
closed = 1;
nodes = (
"211 0 LINE",
"211 470 LINE",
"53 470 LINE",
"53 0 LINE"
);
},
{
closed = 1;
nodes = (
"187 532 OFFCURVE",
"221 566 OFFCURVE",
"221 617 CURVE SMOOTH",
"221 666 OFFCURVE",
"187 701 OFFCURVE",
"132 701 CURVE SMOOTH",
"77 701 OFFCURVE",
"43 666 OFFCURVE",
"43 617 CURVE SMOOTH",
"43 566 OFFCURVE",
"77 532 OFFCURVE",
"132 532 CURVE SMOOTH"
);
}
);
width = 265;
}
);
unicode = 0069;
},
{
glyphname = j;
layers = (
{
layerId = "19C37293-DF0C-4049-8F1C-5BECA685D590";
paths = (
{
closed = 1;
nodes = (
"162 -188 OFFCURVE",
"211 -135 OFFCURVE",
"211 -27 CURVE SMOOTH",
"211 470 LINE",
"53 470 LINE",
"53 -12 LINE SMOOTH",
"53 -43 OFFCURVE",
"38 -60 OFFCURVE",
"1 -60 CURVE SMOOTH",
"-14 -60 OFFCURVE",
"-25 -61 OFFCURVE",
"-41 -58 CURVE",
"-41 -179 LINE",
"-18 -184 OFFCURVE",
"12 -188 OFFCURVE",
"39 -188 CURVE SMOOTH"
);
},
{
closed = 1;
nodes = (
"187 532 OFFCURVE",
"221 566 OFFCURVE",
"221 617 CURVE SMOOTH",
"221 666 OFFCURVE",
"187 701 OFFCURVE",
"132 701 CURVE SMOOTH",
"77 701 OFFCURVE",
"43 666 OFFCURVE",
"43 617 CURVE SMOOTH",
"43 566 OFFCURVE",
"77 532 OFFCURVE",
"132 532 CURVE SMOOTH"
);
}
);
width = 265;
}
);
unicode = 006A;
},
{
glyphname = k;
layers = (
{
layerId = "19C37293-DF0C-4049-8F1C-5BECA685D590";
paths = (
{
closed = 1;
nodes = (
"553 0 LINE",
"365 281 LINE",
"543 470 LINE",
"363 470 LINE",
"211 305 LINE",
"211 668 LINE",
"53 668 LINE",
"53 0 LINE",
"211 0 LINE",
"211 118 LINE",
"260 170 LINE",
"370 0 LINE"
);
}
);
width = 561;
}
);
rightKerningGroup = _k;
unicode = 006B;
},
{
glyphname = l;
layers = (
{
layerId = "19C37293-DF0C-4049-8F1C-5BECA685D590";
paths = (
{
closed = 1;
nodes = (
"211 0 LINE",
"211 668 LINE",
"53 668 LINE",
"53 0 LINE"
);
}
);
width = 265;
}
);
unicode = 006C;
},
{
glyphname = m;
layers = (
{
layerId = "19C37293-DF0C-4049-8F1C-5BECA685D590";
paths = (
{
closed = 1;
nodes = (
"795 0 LINE",
"795 294 LINE SMOOTH",
"795 421 OFFCURVE",
"734 480 OFFCURVE",
"618 480 CURVE SMOOTH",
"549 480 OFFCURVE",
"499 459 OFFCURVE",
"470 416 CURVE",
"443 457 OFFCURVE",
"395 480 OFFCURVE",
"338 480 CURVE SMOOTH",
"275 480 OFFCURVE",
"232 459 OFFCURVE",
"203 423 CURVE",
"203 470 LINE",
"53 470 LINE",
"53 0 LINE",
"211 0 LINE",
"211 245 LINE SMOOTH",
"211 312 OFFCURVE",
"240 344 OFFCURVE",
"288 344 CURVE SMOOTH",
"328 344 OFFCURVE",
"345 319 OFFCURVE",
"345 270 CURVE SMOOTH",
"345 0 LINE",
"503 0 LINE",
"503 245 LINE SMOOTH",
"503 312 OFFCURVE",
"532 344 OFFCURVE",
"579 344 CURVE SMOOTH",
"620 344 OFFCURVE",
"637 319 OFFCURVE",
"637 270 CURVE SMOOTH",
"637 0 LINE"
);
}
);
width = 848;
}
);
leftKerningGroup = _m1;
rightKerningGroup = _h;
unicode = 006D;
},
{
glyphname = n;
layers = (
{
layerId = "19C37293-DF0C-4049-8F1C-5BECA685D590";
paths = (
{
closed = 1;
nodes = (
"517 0 LINE",
"517 294 LINE SMOOTH",
"517 421 OFFCURVE",
"451 480 OFFCURVE",
"346 480 CURVE SMOOTH",
"278 480 OFFCURVE",
"232 457 OFFCURVE",
"203 418 CURVE",
"203 470 LINE",
"53 470 LINE",
"53 0 LINE",
"211 0 LINE",
"211 245 LINE SMOOTH",
"211 312 OFFCURVE",
"245 344 OFFCURVE",
"296 344 CURVE SMOOTH",
"338 344 OFFCURVE",
"359 319 OFFCURVE",
"359 270 CURVE SMOOTH",
"359 0 LINE"
);
}
);
width = 570;
}
);
leftKerningGroup = _m1;
rightKerningGroup = _h;
unicode = 006E;
},
{
glyphname = o;
layers = (
{
layerId = "19C37293-DF0C-4049-8F1C-5BECA685D590";
paths = (
{
closed = 1;
nodes = (
"448 -10 OFFCURVE",
"558 88 OFFCURVE",
"558 235 CURVE SMOOTH",
"558 382 OFFCURVE",
"448 480 OFFCURVE",
"295 480 CURVE SMOOTH",
"142 480 OFFCURVE",
"32 382 OFFCURVE",
"32 235 CURVE SMOOTH",
"32 88 OFFCURVE",
"142 -10 OFFCURVE",
"295 -10 CURVE SMOOTH"
);
},
{
closed = 1;
nodes = (
"234 126 OFFCURVE",
"192 167 OFFCURVE",
"192 235 CURVE SMOOTH",
"192 303 OFFCURVE",
"234 344 OFFCURVE",
"295 344 CURVE SMOOTH",
"356 344 OFFCURVE",
"398 303 OFFCURVE",
"398 235 CURVE SMOOTH",
"398 167 OFFCURVE",
"356 126 OFFCURVE",
"295 126 CURVE SMOOTH"
);
}
);
width = 590;
}
);
leftKerningGroup = _c1;
rightKerningGroup = _b;
unicode = 006F;
},
{
glyphname = p;
layers = (
{
layerId = "19C37293-DF0C-4049-8F1C-5BECA685D590";
paths = (
{
closed = 1;
nodes = (
"470 -10 OFFCURVE",
"570 83 OFFCURVE",
"570 235 CURVE SMOOTH",
"570 387 OFFCURVE",
"470 480 OFFCURVE",
"345 480 CURVE SMOOTH",
"280 480 OFFCURVE",
"232 456 OFFCURVE",
"203 417 CURVE",
"203 470 LINE",
"53 470 LINE",
"53 -182 LINE",
"211 -182 LINE",
"211 44 LINE",
"240 11 OFFCURVE",
"285 -10 OFFCURVE",
"345 -10 CURVE SMOOTH"
);
},
{
closed = 1;
nodes = (
"247 126 OFFCURVE",
"205 167 OFFCURVE",
"205 235 CURVE SMOOTH",
"205 303 OFFCURVE",
"247 344 OFFCURVE",
"307 344 CURVE SMOOTH",
"367 344 OFFCURVE",
"409 303 OFFCURVE",
"409 235 CURVE SMOOTH",
"409 167 OFFCURVE",
"367 126 OFFCURVE",
"307 126 CURVE SMOOTH"
);
}
);
width = 602;
}
);
leftKerningGroup = _m1;
rightKerningGroup = _b;
unicode = 0070;
},
{
glyphname = q;
layers = (
{
layerId = "19C37293-DF0C-4049-8F1C-5BECA685D590";
paths = (
{
closed = 1;
nodes = (
"316 -10 OFFCURVE",
"362 11 OFFCURVE",
"390 44 CURVE",
"390 -182 LINE",
"548 -182 LINE",
"548 470 LINE",
"399 470 LINE",
"399 417 LINE",
"370 456 OFFCURVE",
"321 480 OFFCURVE",
"257 480 CURVE SMOOTH",
"130 480 OFFCURVE",
"32 387 OFFCURVE",
"32 235 CURVE SMOOTH",
"32 83 OFFCURVE",
"130 -10 OFFCURVE",
"257 -10 CURVE SMOOTH"
);
},
{
closed = 1;
nodes = (
"235 126 OFFCURVE",
"192 167 OFFCURVE",
"192 235 CURVE SMOOTH",
"192 303 OFFCURVE",
"235 344 OFFCURVE",
"295 344 CURVE SMOOTH",
"355 344 OFFCURVE",
"397 303 OFFCURVE",
"397 235 CURVE SMOOTH",
"397 167 OFFCURVE",
"355 126 OFFCURVE",
"295 126 CURVE SMOOTH"
);
}
);
width = 602;
}
);
leftKerningGroup = _c1;
unicode = 0071;
},
{
glyphname = r;
layers = (
{
layerId = "19C37293-DF0C-4049-8F1C-5BECA685D590";
paths = (
{
closed = 1;
nodes = (
"211 0 LINE",
"211 227 LINE SMOOTH",
"211 295 OFFCURVE",
"250 327 OFFCURVE",
"301 327 CURVE SMOOTH",
"321 327 OFFCURVE",
"341 323 OFFCURVE",
"361 319 CURVE",
"361 470 LINE",
"353 474 OFFCURVE",
"338 476 OFFCURVE",
"322 476 CURVE SMOOTH",
"273 476 OFFCURVE",
"230 457 OFFCURVE",
"203 404 CURVE",
"203 470 LINE",
"53 470 LINE",
"53 0 LINE"
);
}
);
width = 387;
}
);
leftKerningGroup = _m1;
rightKerningGroup = _r;
unicode = 0072;
},
{
glyphname = s;
layers = (
{
layerId = "19C37293-DF0C-4049-8F1C-5BECA685D590";
paths = (
{
closed = 1;
nodes = (
"384 -10 OFFCURVE",
"458 60 OFFCURVE",
"458 156 CURVE SMOOTH",
"458 233 OFFCURVE",
"405 282 OFFCURVE",
"305 299 CURVE SMOOTH",
"251 309 LINE SMOOTH",
"216 316 OFFCURVE",
"207 323 OFFCURVE",
"207 336 CURVE SMOOTH",
"207 355 OFFCURVE",
"225 365 OFFCURVE",
"260 365 CURVE SMOOTH",
"299 365 OFFCURVE",
"351 346 OFFCURVE",
"394 323 CURVE",
"443 428 LINE",
"387 461 OFFCURVE",
"321 480 OFFCURVE",
"253 480 CURVE SMOOTH",
"109 480 OFFCURVE",
"47 404 OFFCURVE",
"47 314 CURVE SMOOTH",
"47 241 OFFCURVE",
"96 196 OFFCURVE",
"195 179 CURVE SMOOTH",
"249 169 LINE SMOOTH",
"285 162 OFFCURVE",
"298 155 OFFCURVE",
"298 136 CURVE SMOOTH",
"298 115 OFFCURVE",
"278 105 OFFCURVE",
"239 105 CURVE SMOOTH",
"203 105 OFFCURVE",
"148 121 OFFCURVE",
"84 160 CURVE",
"32 50 LINE",
"95 10 OFFCURVE",
"164 -10 OFFCURVE",
"237 -10 CURVE SMOOTH"
);
}
);
width = 490;
}
);
leftKerningGroup = _s;
rightKerningGroup = _s;
unicode = 0073;
},
{
glyphname = t;
layers = (
{
layerId = "19C37293-DF0C-4049-8F1C-5BECA685D590";
paths = (
{
closed = 1;
nodes = (
"319 -6 OFFCURVE",
"356 -2 OFFCURVE",
"379 5 CURVE",
"379 126 LINE",
"364 123 OFFCURVE",
"337 122 OFFCURVE",
"321 122 CURVE SMOOTH",
"284 122 OFFCURVE",
"268 139 OFFCURVE",
"268 170 CURVE SMOOTH",
"268 342 LINE",
"379 342 LINE",
"379 470 LINE",
"268 470 LINE",
"268 604 LINE",
"110 604 LINE",
"110 470 LINE",
"18 470 LINE",
"18 342 LINE",
"110 342 LINE",
"110 155 LINE SMOOTH",
"110 47 OFFCURVE",
"159 -6 OFFCURVE",
"283 -6 CURVE SMOOTH"
);
}
);
width = 413;
}
);
leftKerningGroup = _t1;
unicode = 0074;
},
{
glyphname = u;
layers = (
{
layerId = "19C37293-DF0C-4049-8F1C-5BECA685D590";
paths = (
{
closed = 1;
nodes = (
"292 -10 OFFCURVE",
"338 13 OFFCURVE",
"367 52 CURVE",
"367 0 LINE",
"517 0 LINE",
"517 470 LINE",
"359 470 LINE",
"359 225 LINE SMOOTH",
"359 158 OFFCURVE",
"325 126 OFFCURVE",
"274 126 CURVE SMOOTH",
"232 126 OFFCURVE",
"211 151 OFFCURVE",
"211 200 CURVE SMOOTH",
"211 470 LINE",
"53 470 LINE",
"53 176 LINE SMOOTH",
"53 49 OFFCURVE",
"119 -10 OFFCURVE",
"224 -10 CURVE SMOOTH"
);
}
);
width = 570;
}
);
leftKerningGroup = _u;
unicode = 0075;
},
{
glyphname = v;
layers = (
{
layerId = "19C37293-DF0C-4049-8F1C-5BECA685D590";
paths = (
{
closed = 1;
nodes = (
"357 0 LINE",
"531 470 LINE",
"362 470 LINE",
"269 157 LINE",
"177 470 LINE",
"8 470 LINE",
"182 0 LINE"
);
}
);
width = 539;
}
);
leftKerningGroup = _v;
rightKerningGroup = _v;
unicode = 0076;
},
{
glyphname = w;
layers = (
{
layerId = "19C37293-DF0C-4049-8F1C-5BECA685D590";
paths = (
{
closed = 1;
nodes = (
"640 0 LINE",
"801 470 LINE",
"632 470 LINE",
"556 192 LINE",
"472 470 LINE",
"337 470 LINE",
"253 192 LINE",
"177 470 LINE",
"8 470 LINE",
"168 0 LINE",
"323 0 LINE",
"404 269 LINE",
"486 0 LINE"
);
}
);
width = 809;
}
);
leftKerningGroup = _w;
rightKerningGroup = _w;
unicode = 0077;
},
{
glyphname = x;
layers = (
{
layerId = "19C37293-DF0C-4049-8F1C-5BECA685D590";
paths = (
{
closed = 1;
nodes = (
"531 0 LINE",
"368 243 LINE",
"521 470 LINE",
"347 470 LINE",
"269 337 LINE",
"191 470 LINE",
"18 470 LINE",
"171 243 LINE",
"8 0 LINE",
"181 0 LINE",
"269 141 LINE",
"357 0 LINE"
);
}
);
width = 539;
}
);
unicode = 0078;
},
{
glyphname = y;
layers = (
{
layerId = "19C37293-DF0C-4049-8F1C-5BECA685D590";
paths = (
{
closed = 1;
nodes = (
"231 -188 OFFCURVE",
"308 -135 OFFCURVE",
"357 0 CURVE",
"531 470 LINE",
"362 470 LINE",
"269 147 LINE",
"177 470 LINE",
"8 470 LINE",
"195 -35 LINE",
"176 -52 OFFCURVE",
"152 -60 OFFCURVE",
"122 -60 CURVE SMOOTH",
"95 -60 OFFCURVE",
"66 -52 OFFCURVE",
"43 -43 CURVE",
"2 -160 LINE",
"33 -176 OFFCURVE",
"88 -188 OFFCURVE",
"135 -188 CURVE SMOOTH"
);
}
);
width = 539;
}
);
leftKerningGroup = _v;
rightKerningGroup = _v;
unicode = 0079;
},
{
glyphname = z;
layers = (
{
layerId = "19C37293-DF0C-4049-8F1C-5BECA685D590";
paths = (
{
closed = 1;
nodes = (
"458 0 LINE",
"458 128 LINE",
"236 128 LINE",
"448 357 LINE",
"448 470 LINE",
"43 470 LINE",
"43 342 LINE",
"244 342 LINE",
"33 113 LINE",
"33 0 LINE"
);
}
);
width = 491;
}
);
leftKerningGroup = _z;
rightKerningGroup = _z;
unicode = 007A;
},
{
glyphname = braceleft;
layers = (
{
layerId = "19C37293-DF0C-4049-8F1C-5BECA685D590";
paths = (
{
closed = 1;
nodes = (
"345 -252 LINE",
"345 -128 LINE",
"313 -128 LINE SMOOTH",
"264 -128 OFFCURVE",
"243 -107 OFFCURVE",
"243 -58 CURVE SMOOTH",
"243 163 LINE SMOOTH",
"243 203 OFFCURVE",
"224 232 OFFCURVE",
"173 243 CURVE",
"224 254 OFFCURVE",
"243 283 OFFCURVE",
"243 323 CURVE SMOOTH",
"243 544 LINE SMOOTH",
"243 593 OFFCURVE",
"264 614 OFFCURVE",
"313 614 CURVE SMOOTH",
"345 614 LINE",
"345 738 LINE",
"261 738 LINE SMOOTH",
"169 738 OFFCURVE",
"102 671 OFFCURVE",
"102 579 CURVE SMOOTH",
"102 375 LINE SMOOTH",
"102 324 OFFCURVE",
"83 305 OFFCURVE",
"32 305 CURVE",
"32 181 LINE",
"83 181 OFFCURVE",
"102 162 OFFCURVE",
"102 111 CURVE SMOOTH",
"102 -93 LINE SMOOTH",
"102 -185 OFFCURVE",
"169 -252 OFFCURVE",
"261 -252 CURVE SMOOTH"
);
}
);
width = 382;
}
);
unicode = 007B;
},
{
glyphname = bar;
layers = (
{
layerId = "19C37293-DF0C-4049-8F1C-5BECA685D590";
paths = (
{
closed = 1;
nodes = (
"186 -252 LINE",
"186 738 LINE",
"62 738 LINE",
"62 -252 LINE"
);
}
);
width = 248;
}
);
unicode = 007C;
},
{
glyphname = braceright;
layers = (
{
layerId = "19C37293-DF0C-4049-8F1C-5BECA685D590";
paths = (
{
closed = 1;
nodes = (
"38 -252 LINE",
"121 -252 LINE SMOOTH",
"214 -252 OFFCURVE",
"281 -185 OFFCURVE",
"281 -93 CURVE SMOOTH",
"281 111 LINE SMOOTH",
"281 162 OFFCURVE",
"300 181 OFFCURVE",
"351 181 CURVE",
"351 305 LINE",
"300 305 OFFCURVE",
"281 324 OFFCURVE",
"281 375 CURVE SMOOTH",
"281 579 LINE SMOOTH",
"281 671 OFFCURVE",
"214 738 OFFCURVE",
"121 738 CURVE SMOOTH",
"38 738 LINE",
"38 614 LINE",
"70 614 LINE SMOOTH",
"119 614 OFFCURVE",
"139 593 OFFCURVE",
"139 544 CURVE SMOOTH",
"139 323 LINE SMOOTH",
"139 283 OFFCURVE",
"158 254 OFFCURVE",
"209 243 CURVE",
"158 232 OFFCURVE",
"139 203 OFFCURVE",
"139 163 CURVE SMOOTH",
"139 -58 LINE SMOOTH",
"139 -107 OFFCURVE",
"119 -128 OFFCURVE",
"70 -128 CURVE SMOOTH",
"38 -128 LINE"
);
}
);
width = 382;
}
);
unicode = 007D;
},
{
glyphname = asciitilde;
layers = (
{
layerId = "19C37293-DF0C-4049-8F1C-5BECA685D590";
paths = (
{
closed = 1;
nodes = (
"484 230 OFFCURVE",
"529 309 OFFCURVE",
"529 438 CURVE",
"413 438 LINE",
"406 386 OFFCURVE",
"399 360 OFFCURVE",
"371 360 CURVE SMOOTH",
"329 360 OFFCURVE",
"279 438 OFFCURVE",
"194 438 CURVE SMOOTH",
"98 438 OFFCURVE",
"53 359 OFFCURVE",
"53 230 CURVE",
"169 230 LINE",
"176 282 OFFCURVE",
"183 308 OFFCURVE",
"211 308 CURVE SMOOTH",
"253 308 OFFCURVE",
"303 230 OFFCURVE",
"388 230 CURVE SMOOTH"
);
}
);
width = 582;
}
);
leftKerningGroup = _plus;
rightKerningGroup = _plus;
unicode = 007E;
},
{
glyphname = exclamdown;
layers = (
{
layerId = "19C37293-DF0C-4049-8F1C-5BECA685D590";
paths = (
{
closed = 1;
nodes = (
"229 -182 LINE",
"229 0 LINE",
"202 259 LINE",
"88 259 LINE",
"62 0 LINE",
"62 -182 LINE"
);
},
{
closed = 1;
nodes = (
"200 327 OFFCURVE",
"234 363 OFFCURVE",
"234 411 CURVE SMOOTH",
"234 459 OFFCURVE",
"200 495 OFFCURVE",
"145 495 CURVE SMOOTH",
"92 495 OFFCURVE",
"57 459 OFFCURVE",
"57 411 CURVE SMOOTH",
"57 363 OFFCURVE",
"92 327 OFFCURVE",
"145 327 CURVE SMOOTH"
);
}
);
width = 291;
}
);
unicode = 00A1;
},
{
glyphname = cent;
layers = (
{
layerId = "19C37293-DF0C-4049-8F1C-5BECA685D590";
paths = (
{
closed = 1;
nodes = (
"257 -100 LINE",
"277 -9 LINE",
"284 -10 OFFCURVE",
"288 -10 OFFCURVE",
"295 -10 CURVE SMOOTH",
"360 -10 OFFCURVE",
"419 8 OFFCURVE",
"470 43 CURVE",
"417 161 LINE",
"377 138 OFFCURVE",
"345 129 OFFCURVE",
"309 126 CURVE",
"357 335 LINE",
"376 328 OFFCURVE",
"394 320 OFFCURVE",
"417 309 CURVE",
"470 427 LINE",
"443 446 OFFCURVE",
"415 459 OFFCURVE",
"387 467 CURVE",
"411 570 LINE",
"329 570 LINE",
"308 480 LINE",
"295 480 LINE SMOOTH",
"142 480 OFFCURVE",
"32 382 OFFCURVE",
"32 235 CURVE SMOOTH",
"32 120 OFFCURVE",
"98 37 OFFCURVE",
"199 4 CURVE",
"175 -100 LINE"
);
},
{
closed = 1;
nodes = (
"192 296 OFFCURVE",
"226 335 OFFCURVE",
"277 343 CURVE",
"231 145 LINE",
"207 164 OFFCURVE",
"192 195 OFFCURVE",
"192 235 CURVE SMOOTH"
);
}
);
width = 496;
}
);
unicode = 00A2;
},
{
glyphname = sterling;
layers = (
{
layerId = "19C37293-DF0C-4049-8F1C-5BECA685D590";
paths = (
{
closed = 1;
nodes = (
"522 0 LINE",
"522 136 LINE",
"211 136 LINE",
"243 160 OFFCURVE",
"256 190 OFFCURVE",
"256 225 CURVE SMOOTH",
"256 238 OFFCURVE",
"255 251 OFFCURVE",
"252 264 CURVE",
"390 264 LINE",
"390 352 LINE",
"233 352 LINE",
"222 395 OFFCURVE",
"211 432 OFFCURVE",
"211 465 CURVE SMOOTH",
"211 513 OFFCURVE",
"246 542 OFFCURVE",
"299 542 CURVE SMOOTH",
"351 542 OFFCURVE",
"395 528 OFFCURVE",
"473 485 CURVE",
"522 592 LINE",
"445 651 OFFCURVE",
"376 678 OFFCURVE",
"291 678 CURVE SMOOTH",
"143 678 OFFCURVE",
"42 600 OFFCURVE",
"42 465 CURVE SMOOTH",
"42 429 OFFCURVE",
"54 392 OFFCURVE",
"74 352 CURVE",
"12 352 LINE",
"12 264 LINE",
"99 264 LINE",
"102 251 OFFCURVE",
"104 237 OFFCURVE",
"104 225 CURVE SMOOTH",
"104 177 OFFCURVE",
"88 144 OFFCURVE",
"32 117 CURVE",
"32 0 LINE"
);
}
);
width = 554;
}
);
unicode = 00A3;
},
{
glyphname = currency;
layers = (
{
layerId = "19C37293-DF0C-4049-8F1C-5BECA685D590";
paths = (
{
closed = 1;
nodes = (
"617 -11 LINE",
"716 88 LINE",
"587 215 LINE",
"606 250 OFFCURVE",
"615 290 OFFCURVE",
"615 334 CURVE SMOOTH",
"615 379 OFFCURVE",
"606 418 OFFCURVE",
"588 452 CURVE",
"716 580 LINE",
"617 679 LINE",
"484 546 LINE",
"451 561 OFFCURVE",
"413 568 OFFCURVE",
"371 568 CURVE SMOOTH",
"330 568 OFFCURVE",
"292 561 OFFCURVE",
"257 546 CURVE",
"125 679 LINE",
"26 580 LINE",
"154 452 LINE",
"136 418 OFFCURVE",
"127 379 OFFCURVE",
"127 334 CURVE SMOOTH",
"127 289 OFFCURVE",
"136 249 OFFCURVE",
"154 215 CURVE",
"26 88 LINE",
"125 -11 LINE",
"257 122 LINE",
"292 107 OFFCURVE",
"330 100 OFFCURVE",
"371 100 CURVE SMOOTH",
"412 100 OFFCURVE",
"450 107 OFFCURVE",
"485 122 CURVE"
);
},
{
closed = 1;
nodes = (
"308 219 OFFCURVE",
"271 266 OFFCURVE",
"271 334 CURVE SMOOTH",
"271 402 OFFCURVE",
"308 449 OFFCURVE",
"371 449 CURVE SMOOTH",
"434 449 OFFCURVE",
"471 402 OFFCURVE",
"471 334 CURVE SMOOTH",
"471 266 OFFCURVE",
"434 219 OFFCURVE",
"371 219 CURVE SMOOTH"
);
}
);
width = 742;
}
);
unicode = 00A4;
},
{
glyphname = yen;
layers = (
{
layerId = "19C37293-DF0C-4049-8F1C-5BECA685D590";
paths = (
{
closed = 1;
nodes = (
"405 0 LINE",
"405 71 LINE",
"550 71 LINE",
"550 159 LINE",
"405 159 LINE",
"405 227 LINE",
"550 227 LINE",
"550 315 LINE",
"438 315 LINE",
"619 668 LINE",
"430 668 LINE",
"321 427 LINE",
"212 668 LINE",
"23 668 LINE",
"203 315 LINE",
"92 315 LINE",
"92 227 LINE",
"237 227 LINE",
"237 159 LINE",
"92 159 LINE",
"92 71 LINE",
"237 71 LINE",
"237 0 LINE"
);
}
);
width = 642;
}
);
unicode = 00A5;
},
{
glyphname = brokenbar;
layers = (
{
layerId = "19C37293-DF0C-4049-8F1C-5BECA685D590";
paths = (
{
closed = 1;
nodes = (
"186 -252 LINE",
"186 204 LINE",
"62 204 LINE",
"62 -252 LINE"
);
},
{
closed = 1;
nodes = (
"186 282 LINE",
"186 738 LINE",
"62 738 LINE",
"62 282 LINE"
);
}
);
width = 248;
}
);
unicode = 00A6;
},
{
glyphname = section;
layers = (
{
layerId = "19C37293-DF0C-4049-8F1C-5BECA685D590";
paths = (
{
closed = 1;
nodes = (
"563 287 OFFCURVE",
"527 335 OFFCURVE",
"410 402 CURVE",
"296 464 LINE",
"271 479 OFFCURVE",
"252 493 OFFCURVE",
"252 520 CURVE SMOOTH",
"252 548 OFFCURVE",
"273 563 OFFCURVE",
"305 563 CURVE SMOOTH",
"344 563 OFFCURVE",
"396 544 OFFCURVE",
"439 521 CURVE",
"488 626 LINE",
"432 659 OFFCURVE",
"366 678 OFFCURVE",
"298 678 CURVE SMOOTH",
"154 678 OFFCURVE",
"92 602 OFFCURVE",
"92 511 CURVE SMOOTH",
"92 464 OFFCURVE",
"116 429 OFFCURVE",
"157 397 CURVE",
"81 386 OFFCURVE",
"32 331 OFFCURVE",
"32 267 CURVE SMOOTH",
"32 202 OFFCURVE",
"61 158 OFFCURVE",
"180 93 CURVE SMOOTH",
"294 30 LINE",
"326 11 OFFCURVE",
"343 -3 OFFCURVE",
"343 -31 CURVE SMOOTH",
"343 -62 OFFCURVE",
"320 -77 OFFCURVE",
"284 -77 CURVE SMOOTH",
"248 -77 OFFCURVE",
"193 -61 OFFCURVE",
"129 -22 CURVE",
"77 -132 LINE",
"140 -172 OFFCURVE",
"209 -192 OFFCURVE",
"282 -192 CURVE SMOOTH",
"427 -192 OFFCURVE",
"503 -122 OFFCURVE",
"503 -25 CURVE SMOOTH",
"503 22 OFFCURVE",
"480 57 OFFCURVE",
"441 89 CURVE",
"514 101 OFFCURVE",
"563 154 OFFCURVE",
"563 219 CURVE SMOOTH"
);
},
{
closed = 1;
nodes = (
"403 183 OFFCURVE",
"381 159 OFFCURVE",
"349 148 CURVE",
"236 210 LINE SMOOTH",
"208 226 OFFCURVE",
"192 244 OFFCURVE",
"192 273 CURVE SMOOTH",
"192 306 OFFCURVE",
"219 329 OFFCURVE",
"252 340 CURVE",
"354 284 LINE SMOOTH",
"389 265 OFFCURVE",
"403 247 OFFCURVE",
"403 216 CURVE SMOOTH"
);
}
);
width = 595;
}
);
unicode = 00A7;
},
{
glyphname = dieresis;
layers = (
{
layerId = "19C37293-DF0C-4049-8F1C-5BECA685D590";
paths = (
{
closed = 1;
nodes = (
"244 545 OFFCURVE",
"272 576 OFFCURVE",
"272 617 CURVE SMOOTH",
"272 657 OFFCURVE",
"244 688 OFFCURVE",
"197 688 CURVE SMOOTH",
"152 688 OFFCURVE",
"123 657 OFFCURVE",
"123 617 CURVE SMOOTH",
"123 576 OFFCURVE",
"152 545 OFFCURVE",
"197 545 CURVE SMOOTH"
);
},
{
closed = 1;
nodes = (
"448 545 OFFCURVE",
"477 576 OFFCURVE",
"477 617 CURVE SMOOTH",
"477 657 OFFCURVE",
"448 688 OFFCURVE",
"403 688 CURVE SMOOTH",
"356 688 OFFCURVE",
"328 657 OFFCURVE",
"328 617 CURVE SMOOTH",
"328 576 OFFCURVE",
"356 545 OFFCURVE",
"403 545 CURVE SMOOTH"
);
}
);
width = 600;
}
);
unicode = 00A8;
},
{
glyphname = copyright;
layers = (
{
layerId = "19C37293-DF0C-4049-8F1C-5BECA685D590";
paths = (
{
closed = 1;
nodes = (
"611 -10 OFFCURVE",
"754 134 OFFCURVE",
"754 334 CURVE SMOOTH",
"754 534 OFFCURVE",
"611 678 OFFCURVE",
"393 678 CURVE SMOOTH",
"174 678 OFFCURVE",
"32 534 OFFCURVE",
"32 334 CURVE SMOOTH",
"32 134 OFFCURVE",
"174 -10 OFFCURVE",
"393 -10 CURVE SMOOTH"
);
},
{
closed = 1;
nodes = (
"230 76 OFFCURVE",
"125 182 OFFCURVE",
"125 334 CURVE SMOOTH",
"125 486 OFFCURVE",
"230 592 OFFCURVE",
"393 592 CURVE SMOOTH",
"556 592 OFFCURVE",
"661 486 OFFCURVE",
"661 334 CURVE SMOOTH",
"661 182 OFFCURVE",
"556 76 OFFCURVE",
"393 76 CURVE SMOOTH"
);
},
{
closed = 1;
nodes = (
"447 168 OFFCURVE",
"486 180 OFFCURVE",
"519 203 CURVE",
"484 281 LINE",
"453 266 OFFCURVE",
"432 258 OFFCURVE",
"404 258 CURVE SMOOTH",
"364 258 OFFCURVE",
"338 289 OFFCURVE",
"338 334 CURVE SMOOTH",
"338 379 OFFCURVE",
"364 410 OFFCURVE",
"404 410 CURVE SMOOTH",
"432 410 OFFCURVE",
"453 402 OFFCURVE",
"484 387 CURVE",
"519 465 LINE",
"486 488 OFFCURVE",
"447 500 OFFCURVE",
"404 500 CURVE SMOOTH",
"297 500 OFFCURVE",
"232 433 OFFCURVE",
"232 334 CURVE SMOOTH",
"232 235 OFFCURVE",
"297 168 OFFCURVE",
"404 168 CURVE SMOOTH"
);
}
);
width = 786;
}
);
unicode = 00A9;
},
{
glyphname = ordfeminine;
layers = (
{
layerId = "19C37293-DF0C-4049-8F1C-5BECA685D590";
paths = (
{
closed = 1;
nodes = (
"250 232 OFFCURVE",
"290 244 OFFCURVE",
"325 283 CURVE",
"325 240 LINE",
"460 240 LINE",
"460 499 LINE SMOOTH",
"460 620 OFFCURVE",
"385 674 OFFCURVE",
"246 674 CURVE SMOOTH",
"186 674 OFFCURVE",
"123 656 OFFCURVE",
"63 619 CURVE",
"106 518 LINE",
"161 546 OFFCURVE",
"199 558 OFFCURVE",
"236 558 CURVE SMOOTH",
"272 558 OFFCURVE",
"305 543 OFFCURVE",
"314 506 CURVE",
"185 490 LINE SMOOTH",
"101 479 OFFCURVE",
"32 448 OFFCURVE",
"32 361 CURVE SMOOTH",
"32 275 OFFCURVE",
"100 232 OFFCURVE",
"185 232 CURVE SMOOTH"
);
},
{
closed = 1;
nodes = (
"195 338 OFFCURVE",
"177 349 OFFCURVE",
"177 371 CURVE SMOOTH",
"177 391 OFFCURVE",
"196 403 OFFCURVE",
"233 408 CURVE SMOOTH",
"317 419 LINE",
"317 408 LINE SMOOTH",
"317 372 OFFCURVE",
"283 338 OFFCURVE",
"232 338 CURVE SMOOTH"
);
}
);
width = 514;
}
);
unicode = 00AA;
},
{
glyphname = guillemotleft;
layers = (
{
layerId = "19C37293-DF0C-4049-8F1C-5BECA685D590";
paths = (
{
closed = 1;
nodes = (
"273 113 LINE",
"173 286 LINE",
"273 461 LINE",
"132 461 LINE",
"32 286 LINE",
"132 113 LINE"
);
},
{
closed = 1;
nodes = (
"496 113 LINE",
"396 286 LINE",
"496 461 LINE",
"354 461 LINE",
"254 286 LINE",
"354 113 LINE"
);
}
);
width = 527;
}
);
unicode = 00AB;
},
{
glyphname = logicalnot;
layers = (
{
layerId = "19C37293-DF0C-4049-8F1C-5BECA685D590";
paths = (
{
closed = 1;
nodes = (
"529 183 LINE",
"529 485 LINE",
"53 485 LINE",
"53 354 LINE",
"389 354 LINE",
"389 183 LINE"
);
}
);
width = 582;
}
);
unicode = 00AC;
},
{
glyphname = uni00AD;
layers = (
{
layerId = "19C37293-DF0C-4049-8F1C-5BECA685D590";
paths = (
{
closed = 1;
nodes = (
"336 225 LINE",
"336 347 LINE",
"32 347 LINE",
"32 225 LINE"
);
}
);
width = 368;
}
);
leftKerningGroup = _hypen;
rightKerningGroup = _hypen;
unicode = 00AD;
},
{
glyphname = registered;
layers = (
{
layerId = "19C37293-DF0C-4049-8F1C-5BECA685D590";
paths = (
{
closed = 1;
nodes = (
"435 190 OFFCURVE",
"535 296 OFFCURVE",
"535 433 CURVE SMOOTH",
"535 571 OFFCURVE",
"435 678 OFFCURVE",
"283 678 CURVE SMOOTH",
"132 678 OFFCURVE",
"32 571 OFFCURVE",
"32 433 CURVE SMOOTH",
"32 296 OFFCURVE",
"132 190 OFFCURVE",
"283 190 CURVE SMOOTH"
);
},
{
closed = 1;
nodes = (
"163 243 OFFCURVE",
"90 325 OFFCURVE",
"90 433 CURVE SMOOTH",
"90 544 OFFCURVE",
"163 625 OFFCURVE",
"283 625 CURVE SMOOTH",
"403 625 OFFCURVE",
"477 544 OFFCURVE",
"477 433 CURVE SMOOTH",
"477 325 OFFCURVE",
"403 243 OFFCURVE",
"283 243 CURVE SMOOTH"
);
},
{
closed = 1;
nodes = (
"389 529 OFFCURVE",
"355 556 OFFCURVE",
"294 556 CURVE SMOOTH",
"188 556 LINE",
"188 314 LINE",
"251 314 LINE",
"251 402 LINE",
"264 402 LINE",
"324 314 LINE",
"401 314 LINE",
"333 407 LINE",
"369 418 OFFCURVE",
"389 440 OFFCURVE",
"389 480 CURVE SMOOTH"
);
},
{
closed = 1;
nodes = (
"324 460 OFFCURVE",
"313 452 OFFCURVE",
"285 452 CURVE SMOOTH",
"251 452 LINE",
"251 506 LINE",
"285 506 LINE SMOOTH",
"313 506 OFFCURVE",
"324 498 OFFCURVE",
"324 479 CURVE SMOOTH"
);
}
);
width = 567;
}
);
unicode = 00AE;
},
{
glyphname = macron;
layers = (
{
layerId = "19C37293-DF0C-4049-8F1C-5BECA685D590";
paths = (
{
closed = 1;
nodes = (
"457 567 LINE",
"457 666 LINE",
"143 666 LINE",
"143 567 LINE"
);
}
);
width = 600;
}
);
unicode = 00AF;
},
{
glyphname = degree;
layers = (
{
layerId = "19C37293-DF0C-4049-8F1C-5BECA685D590";
paths = (
{
closed = 1;
nodes = (
"274 406 OFFCURVE",
"333 462 OFFCURVE",
"333 542 CURVE SMOOTH",
"333 622 OFFCURVE",
"274 678 OFFCURVE",
"182 678 CURVE SMOOTH",
"90 678 OFFCURVE",
"32 622 OFFCURVE",
"32 542 CURVE SMOOTH",
"32 462 OFFCURVE",
"90 406 OFFCURVE",
"182 406 CURVE SMOOTH"
);
},
{
closed = 1;
nodes = (
"147 483 OFFCURVE",
"121 507 OFFCURVE",
"121 542 CURVE SMOOTH",
"121 577 OFFCURVE",
"147 601 OFFCURVE",
"182 601 CURVE SMOOTH",
"218 601 OFFCURVE",
"244 577 OFFCURVE",
"244 542 CURVE SMOOTH",
"244 507 OFFCURVE",
"218 483 OFFCURVE",
"182 483 CURVE SMOOTH"
);
}
);
width = 365;
}
);
unicode = 00B0;
},
{
glyphname = plusminus;
layers = (
{
layerId = "19C37293-DF0C-4049-8F1C-5BECA685D590";
paths = (
{
closed = 1;
nodes = (
"529 0 LINE",
"529 131 LINE",
"53 131 LINE",
"53 0 LINE"
);
},
{
closed = 1;
nodes = (
"361 189 LINE",
"361 344 LINE",
"529 344 LINE",
"529 474 LINE",
"361 474 LINE",
"361 630 LINE",
"221 630 LINE",
"221 474 LINE",
"53 474 LINE",
"53 344 LINE",
"221 344 LINE",
"221 189 LINE"
);
}
);
width = 582;
}
);
unicode = 00B1;
},
{
glyphname = twosuperior;
layers = (
{
layerId = "19C37293-DF0C-4049-8F1C-5BECA685D590";
paths = (
{
closed = 1;
nodes = (
"321 408 LINE",
"321 504 LINE",
"176 504 LINE",
"236 558 LINE",
"297 610 OFFCURVE",
"315 642 OFFCURVE",
"315 682 CURVE SMOOTH",
"315 762 OFFCURVE",
"256 808 OFFCURVE",
"168 808 CURVE SMOOTH",
"117 808 OFFCURVE",
"77 792 OFFCURVE",
"32 757 CURVE",
"68 678 LINE",
"112 703 OFFCURVE",
"130 712 OFFCURVE",
"153 712 CURVE SMOOTH",
"180 712 OFFCURVE",
"196 695 OFFCURVE",
"196 672 CURVE SMOOTH",
"196 653 OFFCURVE",
"186 636 OFFCURVE",
"162 616 CURVE SMOOTH",
"32 504 LINE",
"32 408 LINE"
);
}
);
width = 353;
}
);
unicode = 00B2;
},
{
glyphname = threesuperior;
layers = (
{
layerId = "19C37293-DF0C-4049-8F1C-5BECA685D590";
paths = (
{
closed = 1;
nodes = (
"273 402 OFFCURVE",
"335 451 OFFCURVE",
"335 519 CURVE SMOOTH",
"335 562 OFFCURVE",
"313 599 OFFCURVE",
"266 611 CURVE",
"309 622 OFFCURVE",
"329 656 OFFCURVE",
"329 696 CURVE SMOOTH",
"329 764 OFFCURVE",
"266 808 OFFCURVE",
"177 808 CURVE SMOOTH",
"130 808 OFFCURVE",
"84 791 OFFCURVE",
"38 757 CURVE",
"75 678 LINE",
"120 705 OFFCURVE",
"144 712 OFFCURVE",
"169 712 CURVE SMOOTH",
"198 712 OFFCURVE",
"209 701 OFFCURVE",
"209 682 CURVE SMOOTH",
"209 663 OFFCURVE",
"198 651 OFFCURVE",
"169 651 CURVE SMOOTH",
"119 651 LINE",
"119 571 LINE",
"169 571 LINE SMOOTH",
"202 571 OFFCURVE",
"215 557 OFFCURVE",
"215 534 CURVE SMOOTH",
"215 511 OFFCURVE",
"202 498 OFFCURVE",
"169 498 CURVE SMOOTH",
"140 498 OFFCURVE",
"114 505 OFFCURVE",
"69 532 CURVE",
"32 452 LINE",
"77 419 OFFCURVE",
"126 402 OFFCURVE",
"177 402 CURVE SMOOTH"
);
}
);
width = 367;
}
);
unicode = 00B3;
},
{
glyphname = acute;
layers = (
{
layerId = "19C37293-DF0C-4049-8F1C-5BECA685D590";
paths = (
{
closed = 1;
nodes = (
"313 537 LINE",
"424 696 LINE",
"270 696 LINE",
"207 537 LINE"
);
}
);
width = 600;
}
);
unicode = 00B4;
},
{
glyphname = mu;
layers = (
{
layerId = "19C37293-DF0C-4049-8F1C-5BECA685D590";
paths = (
{
closed = 1;
nodes = (
"319 -10 OFFCURVE",
"352 11 OFFCURVE",
"367 52 CURVE",
"367 0 LINE",
"517 0 LINE",
"517 470 LINE",
"359 470 LINE",
"359 225 LINE SMOOTH",
"359 158 OFFCURVE",
"325 126 OFFCURVE",
"274 126 CURVE SMOOTH",
"232 126 OFFCURVE",
"211 151 OFFCURVE",
"211 200 CURVE SMOOTH",
"211 470 LINE",
"53 470 LINE",
"53 -182 LINE",
"211 -182 LINE",
"211 9 LINE",
"228 -4 OFFCURVE",
"248 -10 OFFCURVE",
"272 -10 CURVE SMOOTH"
);
}
);
width = 570;
}
);
leftKerningGroup = _m1;
unicode = 00B5;
},
{
glyphname = paragraph;
layers = (
{
layerId = "19C37293-DF0C-4049-8F1C-5BECA685D590";
paths = (
{
closed = 1;
nodes = (
"544 -182 LINE",
"544 668 LINE",
"231 668 LINE SMOOTH",
"116 668 OFFCURVE",
"32 593 OFFCURVE",
"32 478 CURVE SMOOTH",
"32 363 OFFCURVE",
"116 289 OFFCURVE",
"231 289 CURVE",
"231 -182 LINE",
"347 -182 LINE",
"347 556 LINE",
"428 556 LINE",
"428 -182 LINE"
);
}
);
width = 605;
}
);
unicode = 00B6;
},
{
glyphname = periodcentered;
layers = (
{
layerId = "19C37293-DF0C-4049-8F1C-5BECA685D590";
paths = (
{
closed = 1;
nodes = (
"200 202 OFFCURVE",
"234 238 OFFCURVE",
"234 286 CURVE SMOOTH",
"234 334 OFFCURVE",
"200 370 OFFCURVE",
"145 370 CURVE SMOOTH",
"92 370 OFFCURVE",
"57 334 OFFCURVE",
"57 286 CURVE SMOOTH",
"57 238 OFFCURVE",
"92 202 OFFCURVE",
"145 202 CURVE SMOOTH"
);
}
);
width = 291;
}
);
unicode = 00B7;
},
{
glyphname = cedilla;
layers = (
{
layerId = "19C37293-DF0C-4049-8F1C-5BECA685D590";
paths = (
{
closed = 1;
nodes = (
"362 -208 OFFCURVE",
"410 -168 OFFCURVE",
"410 -112 CURVE SMOOTH",
"410 -65 OFFCURVE",
"373 -42 OFFCURVE",
"317 -42 CURVE",
"340 11 LINE",
"270 11 LINE",
"246 -42 LINE",
"246 -76 LINE",
"267 -76 LINE SMOOTH",
"298 -76 OFFCURVE",
"314 -85 OFFCURVE",
"314 -104 CURVE SMOOTH",
"314 -123 OFFCURVE",
"298 -132 OFFCURVE",
"267 -132 CURVE SMOOTH",
"250 -132 OFFCURVE",
"215 -128 OFFCURVE",
"190 -123 CURVE",
"190 -196 LINE",
"225 -205 OFFCURVE",
"258 -208 OFFCURVE",
"277 -208 CURVE SMOOTH"
);
}
);
width = 600;
}
);
unicode = 00B8;
},
{
glyphname = onesuperior;
layers = (
{
layerId = "19C37293-DF0C-4049-8F1C-5BECA685D590";
paths = (
{
closed = 1;
nodes = (
"222 408 LINE",
"222 802 LINE",
"144 802 LINE",
"12 736 LINE",
"50 653 LINE",
"105 681 LINE",
"105 408 LINE"
);
}
);
width = 284;
}
);
unicode = 00B9;
},
{
glyphname = ordmasculine;
layers = (
{
layerId = "19C37293-DF0C-4049-8F1C-5BECA685D590";
paths = (
{
closed = 1;
nodes = (
"409 232 OFFCURVE",
"507 321 OFFCURVE",
"507 453 CURVE SMOOTH",
"507 585 OFFCURVE",
"409 674 OFFCURVE",
"270 674 CURVE SMOOTH",
"130 674 OFFCURVE",
"32 585 OFFCURVE",
"32 453 CURVE SMOOTH",
"32 321 OFFCURVE",
"130 232 OFFCURVE",
"270 232 CURVE SMOOTH"
);
},
{
closed = 1;
nodes = (
"214 355 OFFCURVE",
"177 393 OFFCURVE",
"177 453 CURVE SMOOTH",
"177 513 OFFCURVE",
"214 551 OFFCURVE",
"270 551 CURVE SMOOTH",
"325 551 OFFCURVE",
"363 513 OFFCURVE",
"363 453 CURVE SMOOTH",
"363 393 OFFCURVE",
"325 355 OFFCURVE",
"270 355 CURVE SMOOTH"
);
}
);
width = 539;
}
);
unicode = 00BA;
},
{
glyphname = guillemotright;
layers = (
{
layerId = "19C37293-DF0C-4049-8F1C-5BECA685D590";
paths = (
{
closed = 1;
nodes = (
"173 113 LINE",
"273 286 LINE",
"173 461 LINE",
"32 461 LINE",
"132 286 LINE",
"32 113 LINE"
);
},
{
closed = 1;
nodes = (
"396 113 LINE",
"496 286 LINE",
"396 461 LINE",
"254 461 LINE",
"354 286 LINE",
"254 113 LINE"
);
}
);
width = 527;
}
);
unicode = 00BB;
},
{
glyphname = onequarter;
layers = (
{
layerId = "19C37293-DF0C-4049-8F1C-5BECA685D590";
paths = (
{
closed = 1;
nodes = (
"222 274 LINE",
"222 668 LINE",
"144 668 LINE",
"12 602 LINE",
"50 519 LINE",
"105 547 LINE",
"105 274 LINE"
);
},
{
closed = 1;
nodes = (
"244 0 LINE",
"602 668 LINE",
"495 668 LINE",
"137 0 LINE"
);
},
{
closed = 1;
nodes = (
"703 0 LINE",
"703 74 LINE",
"751 74 LINE",
"751 159 LINE",
"703 159 LINE",
"703 394 LINE",
"598 394 LINE",
"420 170 LINE",
"420 74 LINE",
"597 74 LINE",
"597 0 LINE"
);
},
{
closed = 1;
nodes = (
"597 159 LINE",
"511 159 LINE",
"597 268 LINE"
);
}
);
width = 783;
}
);
unicode = 00BC;
},
{
glyphname = onehalf;
layers = (
{
layerId = "19C37293-DF0C-4049-8F1C-5BECA685D590";
paths = (
{
closed = 1;
nodes = (
"222 274 LINE",
"222 668 LINE",
"144 668 LINE",
"12 602 LINE",
"50 519 LINE",
"105 547 LINE",
"105 274 LINE"
);
},
{
closed = 1;
nodes = (
"244 0 LINE",
"602 668 LINE",
"495 668 LINE",
"137 0 LINE"
);
},
{
closed = 1;
nodes = (
"772 0 LINE",
"772 96 LINE",
"626 96 LINE",
"687 150 LINE",
"748 202 OFFCURVE",
"766 234 OFFCURVE",
"766 274 CURVE SMOOTH",
"766 354 OFFCURVE",
"707 400 OFFCURVE",
"619 400 CURVE SMOOTH",
"568 400 OFFCURVE",
"529 384 OFFCURVE",
"482 349 CURVE",
"519 270 LINE",
"562 295 OFFCURVE",
"581 304 OFFCURVE",
"604 304 CURVE SMOOTH",
"629 304 OFFCURVE",
"646 287 OFFCURVE",
"646 264 CURVE SMOOTH",
"646 246 OFFCURVE",
"635 227 OFFCURVE",
"613 208 CURVE SMOOTH",
"482 96 LINE",
"482 0 LINE"
);
}
);
width = 804;
}
);
unicode = 00BD;
},
{
glyphname = threequarters;
layers = (
{
layerId = "19C37293-DF0C-4049-8F1C-5BECA685D590";
paths = (
{
closed = 1;
nodes = (
"273 268 OFFCURVE",
"335 317 OFFCURVE",
"335 385 CURVE SMOOTH",
"335 428 OFFCURVE",
"313 465 OFFCURVE",
"266 477 CURVE",
"309 488 OFFCURVE",
"329 522 OFFCURVE",
"329 562 CURVE SMOOTH",
"329 630 OFFCURVE",
"266 674 OFFCURVE",
"177 674 CURVE SMOOTH",
"130 674 OFFCURVE",
"84 657 OFFCURVE",
"38 623 CURVE",
"75 544 LINE",
"120 571 OFFCURVE",
"144 578 OFFCURVE",
"169 578 CURVE SMOOTH",
"198 578 OFFCURVE",
"209 567 OFFCURVE",
"209 548 CURVE SMOOTH",
"209 529 OFFCURVE",
"198 517 OFFCURVE",
"169 517 CURVE SMOOTH",
"119 517 LINE",
"119 437 LINE",
"169 437 LINE SMOOTH",
"202 437 OFFCURVE",
"215 423 OFFCURVE",
"215 400 CURVE SMOOTH",
"215 377 OFFCURVE",
"202 364 OFFCURVE",
"169 364 CURVE SMOOTH",
"140 364 OFFCURVE",
"114 371 OFFCURVE",
"69 398 CURVE",
"32 318 LINE",
"77 285 OFFCURVE",
"126 268 OFFCURVE",
"177 268 CURVE SMOOTH"
);
},
{
closed = 1;
nodes = (
"316 0 LINE",
"674 668 LINE",
"566 668 LINE",
"208 0 LINE"
);
},
{
closed = 1;
nodes = (
"775 0 LINE",
"775 74 LINE",
"822 74 LINE",
"822 159 LINE",
"775 159 LINE",
"775 394 LINE",
"669 394 LINE",
"491 170 LINE",
"491 74 LINE",
"668 74 LINE",
"668 0 LINE"
);
},
{
closed = 1;
nodes = (
"668 159 LINE",
"582 159 LINE",
"668 268 LINE"
);
}
);
width = 854;
}
);
unicode = 00BE;
},
{
glyphname = questiondown;
layers = (
{
layerId = "19C37293-DF0C-4049-8F1C-5BECA685D590";
paths = (
{
closed = 1;
nodes = (
"333 -192 OFFCURVE",
"400 -165 OFFCURVE",
"468 -106 CURVE",
"418 2 LINE",
"342 -41 OFFCURVE",
"305 -56 OFFCURVE",
"269 -56 CURVE SMOOTH",
"222 -56 OFFCURVE",
"187 -29 OFFCURVE",
"187 18 CURVE SMOOTH",
"187 85 OFFCURVE",
"309 125 OFFCURVE",
"309 228 CURVE SMOOTH",
"309 259 LINE",
"177 259 LINE",
"177 245 LINE SMOOTH",
"177 163 OFFCURVE",
"17 117 OFFCURVE",
"17 1 CURVE SMOOTH",
"17 -122 OFFCURVE",
"119 -192 OFFCURVE",
"252 -192 CURVE SMOOTH"
);
},
{
closed = 1;
nodes = (
"296 327 OFFCURVE",
"331 363 OFFCURVE",
"331 411 CURVE SMOOTH",
"331 459 OFFCURVE",
"296 495 OFFCURVE",
"243 495 CURVE SMOOTH",
"188 495 OFFCURVE",
"154 459 OFFCURVE",
"154 411 CURVE SMOOTH",
"154 363 OFFCURVE",
"188 327 OFFCURVE",
"243 327 CURVE SMOOTH"
);
}
);
width = 474;
}
);
unicode = 00BF;
},
{
glyphname = Agrave;
layers = (
{
layerId = "19C37293-DF0C-4049-8F1C-5BECA685D590";
paths = (
{
closed = 1;
nodes = (
"701 0 LINE",
"447 668 LINE",
"262 668 LINE",
"8 0 LINE",
"189 0 LINE",
"226 108 LINE",
"483 108 LINE",
"520 0 LINE"
);
},
{
closed = 1;
nodes = (
"440 244 LINE",
"269 244 LINE",
"354 494 LINE"
);
},
{
closed = 1;
nodes = (
"408 729 LINE",
"345 888 LINE",
"191 888 LINE",
"301 729 LINE"
);
}
);
width = 709;
}
);
leftKerningGroup = _A1;
rightKerningGroup = _A;
unicode = 00C0;
},
{
glyphname = Aacute;
layers = (
{
layerId = "19C37293-DF0C-4049-8F1C-5BECA685D590";
paths = (
{
closed = 1;
nodes = (
"701 0 LINE",
"447 668 LINE",
"262 668 LINE",
"8 0 LINE",
"189 0 LINE",
"226 108 LINE",
"483 108 LINE",
"520 0 LINE"
);
},
{
closed = 1;
nodes = (
"440 244 LINE",
"269 244 LINE",
"354 494 LINE"
);
},
{
closed = 1;
nodes = (
"408 729 LINE",
"519 888 LINE",
"365 888 LINE",
"301 729 LINE"
);
}
);
width = 709;
}
);
leftKerningGroup = _A1;
rightKerningGroup = _A;
unicode = 00C1;
},
{
glyphname = Acircumflex;
layers = (
{
layerId = "19C37293-DF0C-4049-8F1C-5BECA685D590";
paths = (
{
closed = 1;
nodes = (
"701 0 LINE",
"447 668 LINE",
"262 668 LINE",
"8 0 LINE",
"189 0 LINE",
"226 108 LINE",
"483 108 LINE",
"520 0 LINE"
);
},
{
closed = 1;
nodes = (
"440 244 LINE",
"269 244 LINE",
"354 494 LINE"
);
},
{
closed = 1;
nodes = (
"521 729 LINE",
"425 888 LINE",
"283 888 LINE",
"188 729 LINE",
"304 729 LINE",
"354 807 LINE",
"405 729 LINE"
);
}
);
width = 709;
}
);
leftKerningGroup = _A1;
rightKerningGroup = _A;
unicode = 00C2;
},
{
glyphname = Atilde;
layers = (
{
layerId = "19C37293-DF0C-4049-8F1C-5BECA685D590";
paths = (
{
closed = 1;
nodes = (
"701 0 LINE",
"447 668 LINE",
"262 668 LINE",
"8 0 LINE",
"189 0 LINE",
"226 108 LINE",
"483 108 LINE",
"520 0 LINE"
);
},
{
closed = 1;
nodes = (
"440 244 LINE",
"269 244 LINE",
"354 494 LINE"
);
},
{
closed = 1;
nodes = (
"501 732 OFFCURVE",
"531 796 OFFCURVE",
"531 885 CURVE",
"445 885 LINE",
"444 848 OFFCURVE",
"434 830 OFFCURVE",
"416 830 CURVE SMOOTH",
"388 830 OFFCURVE",
"348 885 OFFCURVE",
"288 885 CURVE SMOOTH",
"208 885 OFFCURVE",
"178 821 OFFCURVE",
"178 732 CURVE",
"264 732 LINE",
"265 769 OFFCURVE",
"275 787 OFFCURVE",
"293 787 CURVE SMOOTH",
"322 787 OFFCURVE",
"359 732 OFFCURVE",
"420 732 CURVE SMOOTH"
);
}
);
width = 709;
}
);
leftKerningGroup = _A1;
rightKerningGroup = _A;
unicode = 00C3;
},
{
glyphname = Adieresis;
layers = (
{
layerId = "19C37293-DF0C-4049-8F1C-5BECA685D590";
paths = (
{
closed = 1;
nodes = (
"701 0 LINE",
"447 668 LINE",
"262 668 LINE",
"8 0 LINE",
"189 0 LINE",
"226 108 LINE",
"483 108 LINE",
"520 0 LINE"
);
},
{
closed = 1;
nodes = (
"440 244 LINE",
"269 244 LINE",
"354 494 LINE"
);
},
{
closed = 1;
nodes = (
"297 737 OFFCURVE",
"327 768 OFFCURVE",
"327 809 CURVE SMOOTH",
"327 849 OFFCURVE",
"297 880 OFFCURVE",
"252 880 CURVE SMOOTH",
"207 880 OFFCURVE",
"177 849 OFFCURVE",
"177 809 CURVE SMOOTH",
"177 768 OFFCURVE",
"207 737 OFFCURVE",
"252 737 CURVE SMOOTH"
);
},
{
closed = 1;
nodes = (
"502 737 OFFCURVE",
"532 768 OFFCURVE",
"532 809 CURVE SMOOTH",
"532 849 OFFCURVE",
"502 880 OFFCURVE",
"457 880 CURVE SMOOTH",
"412 880 OFFCURVE",
"382 849 OFFCURVE",
"382 809 CURVE SMOOTH",
"382 768 OFFCURVE",
"412 737 OFFCURVE",
"457 737 CURVE SMOOTH"
);
}
);
width = 709;
}
);
leftKerningGroup = _A1;
rightKerningGroup = _A;
unicode = 00C4;
},
{
glyphname = Aring;
layers = (
{
layerId = "19C37293-DF0C-4049-8F1C-5BECA685D590";
paths = (
{
closed = 1;
nodes = (
"701 0 LINE",
"447 668 LINE",
"262 668 LINE",
"8 0 LINE",
"189 0 LINE",
"226 108 LINE",
"483 108 LINE",
"520 0 LINE"
);
},
{
closed = 1;
nodes = (
"440 244 LINE",
"269 244 LINE",
"354 494 LINE"
);
},
{
closed = 1;
nodes = (
"430 699 OFFCURVE",
"476 744 OFFCURVE",
"476 809 CURVE SMOOTH",
"476 873 OFFCURVE",
"430 918 OFFCURVE",
"354 918 CURVE SMOOTH",
"279 918 OFFCURVE",
"233 873 OFFCURVE",
"233 809 CURVE SMOOTH",
"233 744 OFFCURVE",
"279 699 OFFCURVE",
"354 699 CURVE SMOOTH"
);
},
{
closed = 1;
nodes = (
"326 761 OFFCURVE",
"306 781 OFFCURVE",
"306 809 CURVE SMOOTH",
"306 836 OFFCURVE",
"326 856 OFFCURVE",
"354 856 CURVE SMOOTH",
"383 856 OFFCURVE",
"403 836 OFFCURVE",
"403 809 CURVE SMOOTH",
"403 781 OFFCURVE",
"383 761 OFFCURVE",
"354 761 CURVE SMOOTH"
);
}
);
width = 709;
}
);
leftKerningGroup = _A1;
rightKerningGroup = _A;
unicode = 00C5;
},
{
glyphname = AE;
layers = (
{
layerId = "19C37293-DF0C-4049-8F1C-5BECA685D590";
paths = (
{
closed = 1;
nodes = (
"967 0 LINE",
"967 140 LINE",
"638 140 LINE",
"638 279 LINE",
"937 279 LINE",
"937 409 LINE",
"638 409 LINE",
"638 528 LINE",
"967 528 LINE",
"967 668 LINE",
"414 668 LINE",
"8 0 LINE",
"190 0 LINE",
"252 108 LINE",
"471 108 LINE",
"471 0 LINE"
);
},
{
closed = 1;
nodes = (
"471 244 LINE",
"326 244 LINE",
"471 499 LINE"
);
}
);
width = 1012;
}
);
leftKerningGroup = _A1;
unicode = 00C6;
},
{
glyphname = Ccedilla;
layers = (
{
layerId = "19C37293-DF0C-4049-8F1C-5BECA685D590";
paths = (
{
closed = 1;
nodes = (
"425 -208 OFFCURVE",
"471 -168 OFFCURVE",
"471 -112 CURVE SMOOTH",
"471 -65 OFFCURVE",
"434 -42 OFFCURVE",
"378 -42 CURVE",
"392 -10 LINE",
"479 -9 OFFCURVE",
"553 11 OFFCURVE",
"629 62 CURVE",
"572 188 LINE",
"505 151 OFFCURVE",
"450 135 OFFCURVE",
"390 135 CURVE SMOOTH",
"277 135 OFFCURVE",
"201 215 OFFCURVE",
"201 334 CURVE SMOOTH",
"201 453 OFFCURVE",
"277 533 OFFCURVE",
"390 533 CURVE SMOOTH",
"450 533 OFFCURVE",
"505 517 OFFCURVE",
"572 480 CURVE",
"629 606 LINE",
"553 657 OFFCURVE",
"478 678 OFFCURVE",
"390 678 CURVE SMOOTH",
"173 678 OFFCURVE",
"32 534 OFFCURVE",
"32 334 CURVE SMOOTH",
"32 154 OFFCURVE",
"144 22 OFFCURVE",
"323 -5 CURVE",
"307 -42 LINE",
"307 -76 LINE",
"329 -76 LINE SMOOTH",
"360 -76 OFFCURVE",
"375 -85 OFFCURVE",
"375 -104 CURVE SMOOTH",
"375 -123 OFFCURVE",
"360 -132 OFFCURVE",
"329 -132 CURVE SMOOTH",
"310 -132 OFFCURVE",
"277 -128 OFFCURVE",
"252 -123 CURVE",
"252 -196 LINE",
"285 -205 OFFCURVE",
"319 -208 OFFCURVE",
"338 -208 CURVE SMOOTH"
);
}
);
width = 655;
}
);
leftKerningGroup = _C1;
rightKerningGroup = _C;
unicode = 00C7;
},
{
glyphname = Egrave;
layers = (
{
layerId = "19C37293-DF0C-4049-8F1C-5BECA685D590";
paths = (
{
closed = 1;
nodes = (
"558 0 LINE",
"558 140 LINE",
"229 140 LINE",
"229 279 LINE",
"528 279 LINE",
"528 409 LINE",
"229 409 LINE",
"229 528 LINE",
"558 528 LINE",
"558 668 LINE",
"62 668 LINE",
"62 0 LINE"
);
},
{
closed = 1;
nodes = (
"363 729 LINE",
"300 888 LINE",
"146 888 LINE",
"257 729 LINE"
);
}
);
width = 603;
}
);
unicode = 00C8;
},
{
glyphname = Eacute;
layers = (
{
layerId = "19C37293-DF0C-4049-8F1C-5BECA685D590";
paths = (
{
closed = 1;
nodes = (
"558 0 LINE",
"558 140 LINE",
"229 140 LINE",
"229 279 LINE",
"528 279 LINE",
"528 409 LINE",
"229 409 LINE",
"229 528 LINE",
"558 528 LINE",
"558 668 LINE",
"62 668 LINE",
"62 0 LINE"
);
},
{
closed = 1;
nodes = (
"363 729 LINE",
"474 888 LINE",
"320 888 LINE",
"257 729 LINE"
);
}
);
width = 603;
}
);
unicode = 00C9;
},
{
glyphname = Ecircumflex;
layers = (
{
layerId = "19C37293-DF0C-4049-8F1C-5BECA685D590";
paths = (
{
closed = 1;
nodes = (
"558 0 LINE",
"558 140 LINE",
"229 140 LINE",
"229 279 LINE",
"528 279 LINE",
"528 409 LINE",
"229 409 LINE",
"229 528 LINE",
"558 528 LINE",
"558 668 LINE",
"62 668 LINE",
"62 0 LINE"
);
},
{
closed = 1;
nodes = (
"477 729 LINE",
"381 888 LINE",
"239 888 LINE",
"143 729 LINE",
"259 729 LINE",
"310 807 LINE",
"361 729 LINE"
);
}
);
width = 603;
}
);
unicode = 00CA;
},
{
glyphname = Edieresis;
layers = (
{
layerId = "19C37293-DF0C-4049-8F1C-5BECA685D590";
paths = (
{
closed = 1;
nodes = (
"558 0 LINE",
"558 140 LINE",
"229 140 LINE",
"229 279 LINE",
"528 279 LINE",
"528 409 LINE",
"229 409 LINE",
"229 528 LINE",
"558 528 LINE",
"558 668 LINE",
"62 668 LINE",
"62 0 LINE"
);
},
{
closed = 1;
nodes = (
"254 737 OFFCURVE",
"282 768 OFFCURVE",
"282 809 CURVE SMOOTH",
"282 849 OFFCURVE",
"254 880 OFFCURVE",
"207 880 CURVE SMOOTH",
"162 880 OFFCURVE",
"133 849 OFFCURVE",
"133 809 CURVE SMOOTH",
"133 768 OFFCURVE",
"162 737 OFFCURVE",
"207 737 CURVE SMOOTH"
);
},
{
closed = 1;
nodes = (
"458 737 OFFCURVE",
"487 768 OFFCURVE",
"487 809 CURVE SMOOTH",
"487 849 OFFCURVE",
"458 880 OFFCURVE",
"413 880 CURVE SMOOTH",
"366 880 OFFCURVE",
"338 849 OFFCURVE",
"338 809 CURVE SMOOTH",
"338 768 OFFCURVE",
"366 737 OFFCURVE",
"413 737 CURVE SMOOTH"
);
}
);
width = 603;
}
);
unicode = 00CB;
},
{
glyphname = Igrave;
layers = (
{
layerId = "19C37293-DF0C-4049-8F1C-5BECA685D590";
paths = (
{
closed = 1;
nodes = (
"229 0 LINE",
"229 668 LINE",
"62 668 LINE",
"62 0 LINE"
);
},
{
closed = 1;
nodes = (
"198 729 LINE",
"135 888 LINE",
"-19 888 LINE",
"92 729 LINE"
);
}
);
width = 291;
}
);
unicode = 00CC;
},
{
glyphname = Iacute;
layers = (
{
layerId = "19C37293-DF0C-4049-8F1C-5BECA685D590";
paths = (
{
closed = 1;
nodes = (
"229 0 LINE",
"229 668 LINE",
"62 668 LINE",
"62 0 LINE"
);
},
{
closed = 1;
nodes = (
"198 729 LINE",
"309 888 LINE",
"155 888 LINE",
"92 729 LINE"
);
}
);
width = 291;
}
);
unicode = 00CD;
},
{
glyphname = Icircumflex;
layers = (
{
layerId = "19C37293-DF0C-4049-8F1C-5BECA685D590";
paths = (
{
closed = 1;
nodes = (
"229 0 LINE",
"229 668 LINE",
"62 668 LINE",
"62 0 LINE"
);
},
{
closed = 1;
nodes = (
"312 729 LINE",
"216 888 LINE",
"74 888 LINE",
"-21 729 LINE",
"94 729 LINE",
"145 807 LINE",
"196 729 LINE"
);
}
);
width = 291;
}
);
unicode = 00CE;
},
{
glyphname = Idieresis;
layers = (
{
layerId = "19C37293-DF0C-4049-8F1C-5BECA685D590";
paths = (
{
closed = 1;
nodes = (
"229 0 LINE",
"229 668 LINE",
"62 668 LINE",
"62 0 LINE"
);
},
{
closed = 1;
nodes = (
"88 737 OFFCURVE",
"118 768 OFFCURVE",
"118 809 CURVE SMOOTH",
"118 849 OFFCURVE",
"88 880 OFFCURVE",
"43 880 CURVE SMOOTH",
"-2 880 OFFCURVE",
"-32 849 OFFCURVE",
"-32 809 CURVE SMOOTH",
"-32 768 OFFCURVE",
"-2 737 OFFCURVE",
"43 737 CURVE SMOOTH"
);
},
{
closed = 1;
nodes = (
"293 737 OFFCURVE",
"323 768 OFFCURVE",
"323 809 CURVE SMOOTH",
"323 849 OFFCURVE",
"293 880 OFFCURVE",
"248 880 CURVE SMOOTH",
"203 880 OFFCURVE",
"173 849 OFFCURVE",
"173 809 CURVE SMOOTH",
"173 768 OFFCURVE",
"203 737 OFFCURVE",
"248 737 CURVE SMOOTH"
);
}
);
width = 291;
}
);
unicode = 00CF;
},
{
glyphname = Eth;
layers = (
{
layerId = "19C37293-DF0C-4049-8F1C-5BECA685D590";
paths = (
{
closed = 1;
nodes = (
"678 555 OFFCURVE",
"549 668 OFFCURVE",
"310 668 CURVE SMOOTH",
"62 668 LINE",
"62 393 LINE",
"7 393 LINE",
"7 295 LINE",
"62 295 LINE",
"62 0 LINE",
"310 0 LINE SMOOTH",
"549 0 OFFCURVE",
"678 113 OFFCURVE",
"678 334 CURVE SMOOTH"
);
},
{
closed = 1;
nodes = (
"509 203 OFFCURVE",
"455 140 OFFCURVE",
"308 140 CURVE SMOOTH",
"229 140 LINE",
"229 295 LINE",
"352 295 LINE",
"352 393 LINE",
"229 393 LINE",
"229 528 LINE",
"308 528 LINE SMOOTH",
"455 528 OFFCURVE",
"509 463 OFFCURVE",
"509 334 CURVE SMOOTH"
);
}
);
width = 710;
}
);
rightKerningGroup = _D;
unicode = 00D0;
},
{
glyphname = Ntilde;
layers = (
{
layerId = "19C37293-DF0C-4049-8F1C-5BECA685D590";
paths = (
{
closed = 1;
nodes = (
"658 0 LINE",
"658 668 LINE",
"491 668 LINE",
"491 253 LINE",
"239 668 LINE",
"62 668 LINE",
"62 0 LINE",
"229 0 LINE",
"229 415 LINE",
"481 0 LINE"
);
},
{
closed = 1;
nodes = (
"507 732 OFFCURVE",
"537 796 OFFCURVE",
"537 885 CURVE",
"451 885 LINE",
"449 848 OFFCURVE",
"439 830 OFFCURVE",
"421 830 CURVE SMOOTH",
"393 830 OFFCURVE",
"354 885 OFFCURVE",
"294 885 CURVE SMOOTH",
"213 885 OFFCURVE",
"183 821 OFFCURVE",
"183 732 CURVE",
"269 732 LINE",
"271 769 OFFCURVE",
"281 787 OFFCURVE",
"299 787 CURVE SMOOTH",
"328 787 OFFCURVE",
"365 732 OFFCURVE",
"426 732 CURVE SMOOTH"
);
}
);
width = 720;
}
);
unicode = 00D1;
},
{
glyphname = Ograve;
layers = (
{
layerId = "19C37293-DF0C-4049-8F1C-5BECA685D590";
paths = (
{
closed = 1;
nodes = (
"608 -10 OFFCURVE",
"748 134 OFFCURVE",
"748 334 CURVE SMOOTH",
"748 534 OFFCURVE",
"608 678 OFFCURVE",
"390 678 CURVE SMOOTH",
"173 678 OFFCURVE",
"32 534 OFFCURVE",
"32 334 CURVE SMOOTH",
"32 134 OFFCURVE",
"172 -10 OFFCURVE",
"390 -10 CURVE SMOOTH"
);
},
{
closed = 1;
nodes = (
"277 135 OFFCURVE",
"201 215 OFFCURVE",
"201 334 CURVE SMOOTH",
"201 453 OFFCURVE",
"277 533 OFFCURVE",
"390 533 CURVE SMOOTH",
"502 533 OFFCURVE",
"579 453 OFFCURVE",
"579 334 CURVE SMOOTH",
"579 215 OFFCURVE",
"502 135 OFFCURVE",
"390 135 CURVE SMOOTH"
);
},
{
closed = 1;
nodes = (
"443 729 LINE",
"380 888 LINE",
"226 888 LINE",
"337 729 LINE"
);
}
);
width = 780;
}
);
leftKerningGroup = _C1;
rightKerningGroup = _D;
unicode = 00D2;
},
{
glyphname = Oacute;
layers = (
{
layerId = "19C37293-DF0C-4049-8F1C-5BECA685D590";
paths = (
{
closed = 1;
nodes = (
"608 -10 OFFCURVE",
"748 134 OFFCURVE",
"748 334 CURVE SMOOTH",
"748 534 OFFCURVE",
"608 678 OFFCURVE",
"390 678 CURVE SMOOTH",
"173 678 OFFCURVE",
"32 534 OFFCURVE",
"32 334 CURVE SMOOTH",
"32 134 OFFCURVE",
"172 -10 OFFCURVE",
"390 -10 CURVE SMOOTH"
);
},
{
closed = 1;
nodes = (
"277 135 OFFCURVE",
"201 215 OFFCURVE",
"201 334 CURVE SMOOTH",
"201 453 OFFCURVE",
"277 533 OFFCURVE",
"390 533 CURVE SMOOTH",
"502 533 OFFCURVE",
"579 453 OFFCURVE",
"579 334 CURVE SMOOTH",
"579 215 OFFCURVE",
"502 135 OFFCURVE",
"390 135 CURVE SMOOTH"
);
},
{
closed = 1;
nodes = (
"443 729 LINE",
"554 888 LINE",
"400 888 LINE",
"337 729 LINE"
);
}
);
width = 780;
}
);
leftKerningGroup = _C1;
rightKerningGroup = _D;
unicode = 00D3;
},
{
glyphname = Ocircumflex;
layers = (
{
layerId = "19C37293-DF0C-4049-8F1C-5BECA685D590";
paths = (
{
closed = 1;
nodes = (
"608 -10 OFFCURVE",
"748 134 OFFCURVE",
"748 334 CURVE SMOOTH",
"748 534 OFFCURVE",
"608 678 OFFCURVE",
"390 678 CURVE SMOOTH",
"173 678 OFFCURVE",
"32 534 OFFCURVE",
"32 334 CURVE SMOOTH",
"32 134 OFFCURVE",
"172 -10 OFFCURVE",
"390 -10 CURVE SMOOTH"
);
},
{
closed = 1;
nodes = (
"277 135 OFFCURVE",
"201 215 OFFCURVE",
"201 334 CURVE SMOOTH",
"201 453 OFFCURVE",
"277 533 OFFCURVE",
"390 533 CURVE SMOOTH",
"502 533 OFFCURVE",
"579 453 OFFCURVE",
"579 334 CURVE SMOOTH",
"579 215 OFFCURVE",
"502 135 OFFCURVE",
"390 135 CURVE SMOOTH"
);
},
{
closed = 1;
nodes = (
"557 729 LINE",
"461 888 LINE",
"319 888 LINE",
"223 729 LINE",
"339 729 LINE",
"390 807 LINE",
"441 729 LINE"
);
}
);
width = 780;
}
);
leftKerningGroup = _C1;
rightKerningGroup = _D;
unicode = 00D4;
},
{
glyphname = Otilde;
layers = (
{
layerId = "19C37293-DF0C-4049-8F1C-5BECA685D590";
paths = (
{
closed = 1;
nodes = (
"608 -10 OFFCURVE",
"748 134 OFFCURVE",
"748 334 CURVE SMOOTH",
"748 534 OFFCURVE",
"608 678 OFFCURVE",
"390 678 CURVE SMOOTH",
"173 678 OFFCURVE",
"32 534 OFFCURVE",
"32 334 CURVE SMOOTH",
"32 134 OFFCURVE",
"172 -10 OFFCURVE",
"390 -10 CURVE SMOOTH"
);
},
{
closed = 1;
nodes = (
"277 135 OFFCURVE",
"201 215 OFFCURVE",
"201 334 CURVE SMOOTH",
"201 453 OFFCURVE",
"277 533 OFFCURVE",
"390 533 CURVE SMOOTH",
"502 533 OFFCURVE",
"579 453 OFFCURVE",
"579 334 CURVE SMOOTH",
"579 215 OFFCURVE",
"502 135 OFFCURVE",
"390 135 CURVE SMOOTH"
);
},
{
closed = 1;
nodes = (
"537 732 OFFCURVE",
"567 796 OFFCURVE",
"567 885 CURVE",
"481 885 LINE",
"479 848 OFFCURVE",
"469 830 OFFCURVE",
"451 830 CURVE SMOOTH",
"423 830 OFFCURVE",
"384 885 OFFCURVE",
"324 885 CURVE SMOOTH",
"243 885 OFFCURVE",
"213 821 OFFCURVE",
"213 732 CURVE",
"299 732 LINE",
"301 769 OFFCURVE",
"311 787 OFFCURVE",
"329 787 CURVE SMOOTH",
"358 787 OFFCURVE",
"395 732 OFFCURVE",
"456 732 CURVE SMOOTH"
);
}
);
width = 780;
}
);
leftKerningGroup = _C1;
rightKerningGroup = _D;
unicode = 00D5;
},
{
glyphname = Odieresis;
layers = (
{
layerId = "19C37293-DF0C-4049-8F1C-5BECA685D590";
paths = (
{
closed = 1;
nodes = (
"608 -10 OFFCURVE",
"748 134 OFFCURVE",
"748 334 CURVE SMOOTH",
"748 534 OFFCURVE",
"608 678 OFFCURVE",
"390 678 CURVE SMOOTH",
"173 678 OFFCURVE",
"32 534 OFFCURVE",
"32 334 CURVE SMOOTH",
"32 134 OFFCURVE",
"172 -10 OFFCURVE",
"390 -10 CURVE SMOOTH"
);
},
{
closed = 1;
nodes = (
"277 135 OFFCURVE",
"201 215 OFFCURVE",
"201 334 CURVE SMOOTH",
"201 453 OFFCURVE",
"277 533 OFFCURVE",
"390 533 CURVE SMOOTH",
"502 533 OFFCURVE",
"579 453 OFFCURVE",
"579 334 CURVE SMOOTH",
"579 215 OFFCURVE",
"502 135 OFFCURVE",
"390 135 CURVE SMOOTH"
);
},
{
closed = 1;
nodes = (
"334 737 OFFCURVE",
"362 768 OFFCURVE",
"362 809 CURVE SMOOTH",
"362 849 OFFCURVE",
"334 880 OFFCURVE",
"287 880 CURVE SMOOTH",
"242 880 OFFCURVE",
"213 849 OFFCURVE",
"213 809 CURVE SMOOTH",
"213 768 OFFCURVE",
"242 737 OFFCURVE",
"287 737 CURVE SMOOTH"
);
},
{
closed = 1;
nodes = (
"538 737 OFFCURVE",
"567 768 OFFCURVE",
"567 809 CURVE SMOOTH",
"567 849 OFFCURVE",
"538 880 OFFCURVE",
"493 880 CURVE SMOOTH",
"446 880 OFFCURVE",
"418 849 OFFCURVE",
"418 809 CURVE SMOOTH",
"418 768 OFFCURVE",
"446 737 OFFCURVE",
"493 737 CURVE SMOOTH"
);
}
);
width = 780;
}
);
leftKerningGroup = _C1;
rightKerningGroup = _D;
unicode = 00D6;
},
{
glyphname = multiply;
layers = (
{
layerId = "19C37293-DF0C-4049-8F1C-5BECA685D590";
paths = (
{
closed = 1;
nodes = (
"152 96 LINE",
"291 235 LINE",
"430 96 LINE",
"529 195 LINE",
"390 334 LINE",
"529 473 LINE",
"430 572 LINE",
"291 433 LINE",
"152 572 LINE",
"53 473 LINE",
"192 334 LINE",
"53 195 LINE"
);
}
);
width = 582;
}
);
unicode = 00D7;
},
{
glyphname = Oslash;
layers = (
{
layerId = "19C37293-DF0C-4049-8F1C-5BECA685D590";
paths = (
{
closed = 1;
nodes = (
"88 -10 LINE",
"161 59 LINE",
"221 15 OFFCURVE",
"298 -10 OFFCURVE",
"390 -10 CURVE SMOOTH",
"608 -10 OFFCURVE",
"748 134 OFFCURVE",
"748 334 CURVE SMOOTH",
"748 418 OFFCURVE",
"723 491 OFFCURVE",
"679 548 CURVE",
"748 613 LINE",
"692 678 LINE",
"618 608 LINE",
"558 652 OFFCURVE",
"482 678 OFFCURVE",
"390 678 CURVE SMOOTH",
"173 678 OFFCURVE",
"32 534 OFFCURVE",
"32 334 CURVE SMOOTH",
"32 250 OFFCURVE",
"56 178 OFFCURVE",
"100 119 CURVE",
"32 55 LINE"
);
},
{
closed = 1;
nodes = (
"347 135 OFFCURVE",
"309 146 OFFCURVE",
"277 169 CURVE",
"557 433 LINE",
"572 404 OFFCURVE",
"579 371 OFFCURVE",
"579 334 CURVE SMOOTH",
"579 215 OFFCURVE",
"502 135 OFFCURVE",
"390 135 CURVE SMOOTH"
);
},
{
closed = 1;
nodes = (
"201 453 OFFCURVE",
"277 533 OFFCURVE",
"390 533 CURVE SMOOTH",
"434 533 OFFCURVE",
"471 522 OFFCURVE",
"502 499 CURVE",
"222 234 LINE",
"208 263 OFFCURVE",
"201 296 OFFCURVE",
"201 334 CURVE SMOOTH"
);
}
);
width = 780;
}
);
leftKerningGroup = _C1;
rightKerningGroup = _D;
unicode = 00D8;
},
{
glyphname = Ugrave;
layers = (
{
layerId = "19C37293-DF0C-4049-8F1C-5BECA685D590";
paths = (
{
closed = 1;
nodes = (
"551 -10 OFFCURVE",
"658 80 OFFCURVE",
"658 276 CURVE SMOOTH",
"658 668 LINE",
"491 668 LINE",
"491 276 LINE SMOOTH",
"491 184 OFFCURVE",
"448 135 OFFCURVE",
"360 135 CURVE SMOOTH",
"272 135 OFFCURVE",
"229 184 OFFCURVE",
"229 276 CURVE SMOOTH",
"229 668 LINE",
"62 668 LINE",
"62 276 LINE SMOOTH",
"62 80 OFFCURVE",
"169 -10 OFFCURVE",
"360 -10 CURVE SMOOTH"
);
},
{
closed = 1;
nodes = (
"413 729 LINE",
"350 888 LINE",
"196 888 LINE",
"307 729 LINE"
);
}
);
width = 720;
}
);
leftKerningGroup = _U;
rightKerningGroup = _U;
unicode = 00D9;
},
{
glyphname = Uacute;
layers = (
{
layerId = "19C37293-DF0C-4049-8F1C-5BECA685D590";
paths = (
{
closed = 1;
nodes = (
"551 -10 OFFCURVE",
"658 80 OFFCURVE",
"658 276 CURVE SMOOTH",
"658 668 LINE",
"491 668 LINE",
"491 276 LINE SMOOTH",
"491 184 OFFCURVE",
"448 135 OFFCURVE",
"360 135 CURVE SMOOTH",
"272 135 OFFCURVE",
"229 184 OFFCURVE",
"229 276 CURVE SMOOTH",
"229 668 LINE",
"62 668 LINE",
"62 276 LINE SMOOTH",
"62 80 OFFCURVE",
"169 -10 OFFCURVE",
"360 -10 CURVE SMOOTH"
);
},
{
closed = 1;
nodes = (
"413 729 LINE",
"524 888 LINE",
"370 888 LINE",
"307 729 LINE"
);
}
);
width = 720;
}
);
leftKerningGroup = _U;
rightKerningGroup = _U;
unicode = 00DA;
},
{
glyphname = Ucircumflex;
layers = (
{
layerId = "19C37293-DF0C-4049-8F1C-5BECA685D590";
paths = (
{
closed = 1;
nodes = (
"551 -10 OFFCURVE",
"658 80 OFFCURVE",
"658 276 CURVE SMOOTH",
"658 668 LINE",
"491 668 LINE",
"491 276 LINE SMOOTH",
"491 184 OFFCURVE",
"448 135 OFFCURVE",
"360 135 CURVE SMOOTH",
"272 135 OFFCURVE",
"229 184 OFFCURVE",
"229 276 CURVE SMOOTH",
"229 668 LINE",
"62 668 LINE",
"62 276 LINE SMOOTH",
"62 80 OFFCURVE",
"169 -10 OFFCURVE",
"360 -10 CURVE SMOOTH"
);
},
{
closed = 1;
nodes = (
"527 729 LINE",
"431 888 LINE",
"289 888 LINE",
"193 729 LINE",
"309 729 LINE",
"360 807 LINE",
"411 729 LINE"
);
}
);
width = 720;
}
);
leftKerningGroup = _U;
rightKerningGroup = _U;
unicode = 00DB;
},
{
glyphname = Udieresis;
layers = (
{
layerId = "19C37293-DF0C-4049-8F1C-5BECA685D590";
paths = (
{
closed = 1;
nodes = (
"551 -10 OFFCURVE",
"658 80 OFFCURVE",
"658 276 CURVE SMOOTH",
"658 668 LINE",
"491 668 LINE",
"491 276 LINE SMOOTH",
"491 184 OFFCURVE",
"448 135 OFFCURVE",
"360 135 CURVE SMOOTH",
"272 135 OFFCURVE",
"229 184 OFFCURVE",
"229 276 CURVE SMOOTH",
"229 668 LINE",
"62 668 LINE",
"62 276 LINE SMOOTH",
"62 80 OFFCURVE",
"169 -10 OFFCURVE",
"360 -10 CURVE SMOOTH"
);
},
{
closed = 1;
nodes = (
"304 737 OFFCURVE",
"332 768 OFFCURVE",
"332 809 CURVE SMOOTH",
"332 849 OFFCURVE",
"304 880 OFFCURVE",
"257 880 CURVE SMOOTH",
"212 880 OFFCURVE",
"183 849 OFFCURVE",
"183 809 CURVE SMOOTH",
"183 768 OFFCURVE",
"212 737 OFFCURVE",
"257 737 CURVE SMOOTH"
);
},
{
closed = 1;
nodes = (
"508 737 OFFCURVE",
"537 768 OFFCURVE",
"537 809 CURVE SMOOTH",
"537 849 OFFCURVE",
"508 880 OFFCURVE",
"463 880 CURVE SMOOTH",
"416 880 OFFCURVE",
"388 849 OFFCURVE",
"388 809 CURVE SMOOTH",
"388 768 OFFCURVE",
"416 737 OFFCURVE",
"463 737 CURVE SMOOTH"
);
}
);
width = 720;
}
);
leftKerningGroup = _U;
rightKerningGroup = _U;
unicode = 00DC;
},
{
glyphname = Yacute;
layers = (
{
layerId = "19C37293-DF0C-4049-8F1C-5BECA685D590";
paths = (
{
closed = 1;
nodes = (
"428 0 LINE",
"428 250 LINE",
"681 668 LINE",
"486 668 LINE",
"344 408 LINE",
"203 668 LINE",
"8 668 LINE",
"261 250 LINE",
"261 0 LINE"
);
},
{
closed = 1;
nodes = (
"398 729 LINE",
"509 888 LINE",
"355 888 LINE",
"291 729 LINE"
);
}
);
width = 689;
}
);
leftKerningGroup = _Y;
rightKerningGroup = _Y;
unicode = 00DD;
},
{
glyphname = Thorn;
layers = (
{
layerId = "19C37293-DF0C-4049-8F1C-5BECA685D590";
paths = (
{
closed = 1;
nodes = (
"617 474 OFFCURVE",
"533 561 OFFCURVE",
"353 561 CURVE SMOOTH",
"229 561 LINE",
"229 668 LINE",
"62 668 LINE",
"62 0 LINE",
"229 0 LINE",
"229 107 LINE",
"353 107 LINE SMOOTH",
"533 107 OFFCURVE",
"617 194 OFFCURVE",
"617 334 CURVE SMOOTH"
);
},
{
closed = 1;
nodes = (
"448 266 OFFCURVE",
"405 239 OFFCURVE",
"326 239 CURVE SMOOTH",
"229 239 LINE",
"229 429 LINE",
"326 429 LINE SMOOTH",
"406 429 OFFCURVE",
"448 402 OFFCURVE",
"448 334 CURVE SMOOTH"
);
}
);
width = 649;
}
);
rightKerningGroup = _D;
unicode = 00DE;
},
{
glyphname = germandbls;
layers = (
{
layerId = "19C37293-DF0C-4049-8F1C-5BECA685D590";
paths = (
{
closed = 1;
nodes = (
"496 -10 OFFCURVE",
"570 67 OFFCURVE",
"570 187 CURVE SMOOTH",
"570 275 OFFCURVE",
"528 328 OFFCURVE",
"448 355 CURVE",
"499 386 OFFCURVE",
"528 432 OFFCURVE",
"528 496 CURVE SMOOTH",
"528 610 OFFCURVE",
"433 678 OFFCURVE",
"291 678 CURVE SMOOTH",
"127 678 OFFCURVE",
"53 578 OFFCURVE",
"53 435 CURVE SMOOTH",
"53 0 LINE",
"211 0 LINE",
"211 465 LINE SMOOTH",
"211 517 OFFCURVE",
"243 547 OFFCURVE",
"291 547 CURVE SMOOTH",
"336 547 OFFCURVE",
"369 522 OFFCURVE",
"369 475 CURVE SMOOTH",
"369 428 OFFCURVE",
"331 402 OFFCURVE",
"291 402 CURVE",
"291 288 LINE",
"362 288 OFFCURVE",
"409 265 OFFCURVE",
"409 206 CURVE SMOOTH",
"409 155 OFFCURVE",
"375 121 OFFCURVE",
"319 121 CURVE SMOOTH",
"309 121 OFFCURVE",
"300 122 OFFCURVE",
"291 124 CURVE",
"291 0 LINE",
"315 -7 OFFCURVE",
"339 -10 OFFCURVE",
"363 -10 CURVE SMOOTH"
);
}
);
width = 602;
}
);
unicode = 00DF;
},
{
glyphname = agrave;
layers = (
{
layerId = "19C37293-DF0C-4049-8F1C-5BECA685D590";
paths = (
{
closed = 1;
nodes = (
"275 -10 OFFCURVE",
"318 5 OFFCURVE",
"357 46 CURVE",
"357 0 LINE",
"507 0 LINE",
"507 286 LINE SMOOTH",
"507 419 OFFCURVE",
"422 480 OFFCURVE",
"269 480 CURVE SMOOTH",
"202 480 OFFCURVE",
"131 461 OFFCURVE",
"66 418 CURVE",
"114 307 LINE",
"174 339 OFFCURVE",
"218 351 OFFCURVE",
"258 351 CURVE SMOOTH",
"298 351 OFFCURVE",
"335 335 OFFCURVE",
"346 294 CURVE",
"202 277 LINE",
"109 264 OFFCURVE",
"32 231 OFFCURVE",
"32 133 CURVE SMOOTH",
"32 37 OFFCURVE",
"109 -10 OFFCURVE",
"202 -10 CURVE SMOOTH"
);
},
{
closed = 1;
nodes = (
"339 537 LINE",
"276 696 LINE",
"122 696 LINE",
"233 537 LINE"
);
},
{
closed = 1;
nodes = (
"213 108 OFFCURVE",
"192 120 OFFCURVE",
"192 143 CURVE SMOOTH",
"192 165 OFFCURVE",
"213 179 OFFCURVE",
"255 185 CURVE SMOOTH",
"349 198 LINE",
"349 186 LINE SMOOTH",
"349 143 OFFCURVE",
"311 108 OFFCURVE",
"254 108 CURVE SMOOTH"
);
}
);
width = 560;
}
);
leftKerningGroup = _a1;
rightKerningGroup = _a;
unicode = 00E0;
},
{
glyphname = aacute;
layers = (
{
layerId = "19C37293-DF0C-4049-8F1C-5BECA685D590";
paths = (
{
closed = 1;
nodes = (
"275 -10 OFFCURVE",
"318 5 OFFCURVE",
"357 46 CURVE",
"357 0 LINE",
"507 0 LINE",
"507 286 LINE SMOOTH",
"507 419 OFFCURVE",
"422 480 OFFCURVE",
"269 480 CURVE SMOOTH",
"202 480 OFFCURVE",
"131 461 OFFCURVE",
"66 418 CURVE",
"114 307 LINE",
"174 339 OFFCURVE",
"218 351 OFFCURVE",
"258 351 CURVE SMOOTH",
"298 351 OFFCURVE",
"335 335 OFFCURVE",
"346 294 CURVE",
"202 277 LINE",
"109 264 OFFCURVE",
"32 231 OFFCURVE",
"32 133 CURVE SMOOTH",
"32 37 OFFCURVE",
"109 -10 OFFCURVE",
"202 -10 CURVE SMOOTH"
);
},
{
closed = 1;
nodes = (
"339 537 LINE",
"450 696 LINE",
"296 696 LINE",
"233 537 LINE"
);
},
{
closed = 1;
nodes = (
"213 108 OFFCURVE",
"192 120 OFFCURVE",
"192 143 CURVE SMOOTH",
"192 165 OFFCURVE",
"213 179 OFFCURVE",
"255 185 CURVE SMOOTH",
"349 198 LINE",
"349 186 LINE SMOOTH",
"349 143 OFFCURVE",
"311 108 OFFCURVE",
"254 108 CURVE SMOOTH"
);
}
);
width = 560;
}
);
leftKerningGroup = _a1;
rightKerningGroup = _a;
unicode = 00E1;
},
{
glyphname = acircumflex;
layers = (
{
layerId = "19C37293-DF0C-4049-8F1C-5BECA685D590";
paths = (
{
closed = 1;
nodes = (
"275 -10 OFFCURVE",
"318 5 OFFCURVE",
"357 46 CURVE",
"357 0 LINE",
"507 0 LINE",
"507 286 LINE SMOOTH",
"507 419 OFFCURVE",
"422 480 OFFCURVE",
"269 480 CURVE SMOOTH",
"202 480 OFFCURVE",
"131 461 OFFCURVE",
"66 418 CURVE",
"114 307 LINE",
"174 339 OFFCURVE",
"218 351 OFFCURVE",
"258 351 CURVE SMOOTH",
"298 351 OFFCURVE",
"335 335 OFFCURVE",
"346 294 CURVE",
"202 277 LINE",
"109 264 OFFCURVE",
"32 231 OFFCURVE",
"32 133 CURVE SMOOTH",
"32 37 OFFCURVE",
"109 -10 OFFCURVE",
"202 -10 CURVE SMOOTH"
);
},
{
closed = 1;
nodes = (
"453 537 LINE",
"357 696 LINE",
"215 696 LINE",
"120 537 LINE",
"235 537 LINE",
"286 615 LINE",
"337 537 LINE"
);
},
{
closed = 1;
nodes = (
"213 108 OFFCURVE",
"192 120 OFFCURVE",
"192 143 CURVE SMOOTH",
"192 165 OFFCURVE",
"213 179 OFFCURVE",
"255 185 CURVE SMOOTH",
"349 198 LINE",
"349 186 LINE SMOOTH",
"349 143 OFFCURVE",
"311 108 OFFCURVE",
"254 108 CURVE SMOOTH"
);
}
);
width = 560;
}
);
leftKerningGroup = _a1;
rightKerningGroup = _a;
unicode = 00E2;
},
{
glyphname = atilde;
layers = (
{
layerId = "19C37293-DF0C-4049-8F1C-5BECA685D590";
paths = (
{
closed = 1;
nodes = (
"275 -10 OFFCURVE",
"318 5 OFFCURVE",
"357 46 CURVE",
"357 0 LINE",
"507 0 LINE",
"507 286 LINE SMOOTH",
"507 419 OFFCURVE",
"422 480 OFFCURVE",
"269 480 CURVE SMOOTH",
"202 480 OFFCURVE",
"131 461 OFFCURVE",
"66 418 CURVE",
"114 307 LINE",
"174 339 OFFCURVE",
"218 351 OFFCURVE",
"258 351 CURVE SMOOTH",
"298 351 OFFCURVE",
"335 335 OFFCURVE",
"346 294 CURVE",
"202 277 LINE",
"109 264 OFFCURVE",
"32 231 OFFCURVE",
"32 133 CURVE SMOOTH",
"32 37 OFFCURVE",
"109 -10 OFFCURVE",
"202 -10 CURVE SMOOTH"
);
},
{
closed = 1;
nodes = (
"433 540 OFFCURVE",
"463 604 OFFCURVE",
"463 693 CURVE",
"377 693 LINE",
"376 656 OFFCURVE",
"366 638 OFFCURVE",
"348 638 CURVE SMOOTH",
"319 638 OFFCURVE",
"280 693 OFFCURVE",
"220 693 CURVE SMOOTH",
"140 693 OFFCURVE",
"110 629 OFFCURVE",
"110 540 CURVE",
"196 540 LINE",
"197 577 OFFCURVE",
"207 595 OFFCURVE",
"225 595 CURVE SMOOTH",
"254 595 OFFCURVE",
"291 540 OFFCURVE",
"352 540 CURVE SMOOTH"
);
},
{
closed = 1;
nodes = (
"213 108 OFFCURVE",
"192 120 OFFCURVE",
"192 143 CURVE SMOOTH",
"192 165 OFFCURVE",
"213 179 OFFCURVE",
"255 185 CURVE SMOOTH",
"349 198 LINE",
"349 186 LINE SMOOTH",
"349 143 OFFCURVE",
"311 108 OFFCURVE",
"254 108 CURVE SMOOTH"
);
}
);
width = 560;
}
);
leftKerningGroup = _a1;
rightKerningGroup = _a;
unicode = 00E3;
},
{
glyphname = adieresis;
layers = (
{
layerId = "19C37293-DF0C-4049-8F1C-5BECA685D590";
paths = (
{
closed = 1;
nodes = (
"275 -10 OFFCURVE",
"318 5 OFFCURVE",
"357 46 CURVE",
"357 0 LINE",
"507 0 LINE",
"507 286 LINE SMOOTH",
"507 419 OFFCURVE",
"422 480 OFFCURVE",
"269 480 CURVE SMOOTH",
"202 480 OFFCURVE",
"131 461 OFFCURVE",
"66 418 CURVE",
"114 307 LINE",
"174 339 OFFCURVE",
"218 351 OFFCURVE",
"258 351 CURVE SMOOTH",
"298 351 OFFCURVE",
"335 335 OFFCURVE",
"346 294 CURVE",
"202 277 LINE",
"109 264 OFFCURVE",
"32 231 OFFCURVE",
"32 133 CURVE SMOOTH",
"32 37 OFFCURVE",
"109 -10 OFFCURVE",
"202 -10 CURVE SMOOTH"
);
},
{
closed = 1;
nodes = (
"434 545 OFFCURVE",
"464 576 OFFCURVE",
"464 617 CURVE SMOOTH",
"464 657 OFFCURVE",
"434 688 OFFCURVE",
"389 688 CURVE SMOOTH",
"344 688 OFFCURVE",
"314 657 OFFCURVE",
"314 617 CURVE SMOOTH",
"314 576 OFFCURVE",
"344 545 OFFCURVE",
"389 545 CURVE SMOOTH"
);
},
{
closed = 1;
nodes = (
"229 545 OFFCURVE",
"258 576 OFFCURVE",
"258 617 CURVE SMOOTH",
"258 657 OFFCURVE",
"229 688 OFFCURVE",
"184 688 CURVE SMOOTH",
"137 688 OFFCURVE",
"109 657 OFFCURVE",
"109 617 CURVE SMOOTH",
"109 576 OFFCURVE",
"137 545 OFFCURVE",
"184 545 CURVE SMOOTH"
);
},
{
closed = 1;
nodes = (
"213 108 OFFCURVE",
"192 120 OFFCURVE",
"192 143 CURVE SMOOTH",
"192 165 OFFCURVE",
"213 179 OFFCURVE",
"255 185 CURVE SMOOTH",
"349 198 LINE",
"349 186 LINE SMOOTH",
"349 143 OFFCURVE",
"311 108 OFFCURVE",
"254 108 CURVE SMOOTH"
);
}
);
width = 560;
}
);
leftKerningGroup = _a1;
rightKerningGroup = _a;
unicode = 00E4;
},
{
glyphname = aring;
layers = (
{
layerId = "19C37293-DF0C-4049-8F1C-5BECA685D590";
paths = (
{
closed = 1;
nodes = (
"275 -10 OFFCURVE",
"318 5 OFFCURVE",
"357 46 CURVE",
"357 0 LINE",
"507 0 LINE",
"507 286 LINE SMOOTH",
"507 419 OFFCURVE",
"422 480 OFFCURVE",
"269 480 CURVE SMOOTH",
"202 480 OFFCURVE",
"131 461 OFFCURVE",
"66 418 CURVE",
"114 307 LINE",
"174 339 OFFCURVE",
"218 351 OFFCURVE",
"258 351 CURVE SMOOTH",
"298 351 OFFCURVE",
"335 335 OFFCURVE",
"346 294 CURVE",
"202 277 LINE",
"109 264 OFFCURVE",
"32 231 OFFCURVE",
"32 133 CURVE SMOOTH",
"32 37 OFFCURVE",
"109 -10 OFFCURVE",
"202 -10 CURVE SMOOTH"
);
},
{
closed = 1;
nodes = (
"362 507 OFFCURVE",
"408 552 OFFCURVE",
"408 617 CURVE SMOOTH",
"408 681 OFFCURVE",
"362 726 OFFCURVE",
"286 726 CURVE SMOOTH",
"211 726 OFFCURVE",
"165 681 OFFCURVE",
"165 617 CURVE SMOOTH",
"165 552 OFFCURVE",
"211 507 OFFCURVE",
"286 507 CURVE SMOOTH"
);
},
{
closed = 1;
nodes = (
"213 108 OFFCURVE",
"192 120 OFFCURVE",
"192 143 CURVE SMOOTH",
"192 165 OFFCURVE",
"213 179 OFFCURVE",
"255 185 CURVE SMOOTH",
"349 198 LINE",
"349 186 LINE SMOOTH",
"349 143 OFFCURVE",
"311 108 OFFCURVE",
"254 108 CURVE SMOOTH"
);
},
{
closed = 1;
nodes = (
"258 569 OFFCURVE",
"237 589 OFFCURVE",
"237 617 CURVE SMOOTH",
"237 644 OFFCURVE",
"258 664 OFFCURVE",
"286 664 CURVE SMOOTH",
"314 664 OFFCURVE",
"335 644 OFFCURVE",
"335 617 CURVE SMOOTH",
"335 589 OFFCURVE",
"314 569 OFFCURVE",
"286 569 CURVE SMOOTH"
);
}
);
width = 560;
}
);
leftKerningGroup = _a1;
rightKerningGroup = _a;
unicode = 00E5;
},
{
glyphname = ae;
layers = (
{
layerId = "19C37293-DF0C-4049-8F1C-5BECA685D590";
paths = (
{
closed = 1;
nodes = (
"698 -10 OFFCURVE",
"766 10 OFFCURVE",
"825 51 CURVE",
"780 158 LINE",
"737 133 OFFCURVE",
"689 116 OFFCURVE",
"637 116 CURVE SMOOTH",
"564 116 OFFCURVE",
"518 142 OFFCURVE",
"509 195 CURVE",
"827 195 LINE",
"838 216 OFFCURVE",
"845 250 OFFCURVE",
"845 275 CURVE SMOOTH",
"845 396 OFFCURVE",
"745 480 OFFCURVE",
"602 480 CURVE SMOOTH",
"538 480 OFFCURVE",
"483 459 OFFCURVE",
"442 422 CURVE",
"405 461 OFFCURVE",
"348 480 OFFCURVE",
"269 480 CURVE SMOOTH",
"202 480 OFFCURVE",
"131 461 OFFCURVE",
"66 418 CURVE",
"114 307 LINE",
"174 339 OFFCURVE",
"218 351 OFFCURVE",
"258 351 CURVE SMOOTH",
"298 351 OFFCURVE",
"335 335 OFFCURVE",
"346 294 CURVE",
"202 277 LINE",
"109 264 OFFCURVE",
"32 231 OFFCURVE",
"32 133 CURVE SMOOTH",
"32 37 OFFCURVE",
"109 -10 OFFCURVE",
"202 -10 CURVE SMOOTH",
"301 -10 OFFCURVE",
"375 28 OFFCURVE",
"414 75 CURVE",
"461 16 OFFCURVE",
"535 -10 OFFCURVE",
"619 -10 CURVE SMOOTH"
);
},
{
closed = 1;
nodes = (
"213 108 OFFCURVE",
"192 120 OFFCURVE",
"192 143 CURVE SMOOTH",
"192 165 OFFCURVE",
"213 179 OFFCURVE",
"255 185 CURVE SMOOTH",
"349 198 LINE",
"349 186 LINE SMOOTH",
"349 143 OFFCURVE",
"311 108 OFFCURVE",
"254 108 CURVE SMOOTH"
);
},
{
closed = 1;
nodes = (
"658 362 OFFCURVE",
"685 336 OFFCURVE",
"685 303 CURVE SMOOTH",
"685 300 OFFCURVE",
"684 297 OFFCURVE",
"683 293 CURVE",
"509 293 LINE",
"517 333 OFFCURVE",
"553 362 OFFCURVE",
"606 362 CURVE SMOOTH"
);
}
);
width = 877;
}
);
leftKerningGroup = _a1;
rightKerningGroup = _b;
unicode = 00E6;
},
{
glyphname = ccedilla;
layers = (
{
layerId = "19C37293-DF0C-4049-8F1C-5BECA685D590";
paths = (
{
closed = 1;
nodes = (
"329 -208 OFFCURVE",
"376 -168 OFFCURVE",
"376 -112 CURVE SMOOTH",
"376 -65 OFFCURVE",
"339 -42 OFFCURVE",
"283 -42 CURVE",
"297 -10 LINE",
"364 -9 OFFCURVE",
"418 7 OFFCURVE",
"470 43 CURVE",
"417 161 LINE",
"372 137 OFFCURVE",
"338 126 OFFCURVE",
"295 126 CURVE SMOOTH",
"234 126 OFFCURVE",
"192 167 OFFCURVE",
"192 235 CURVE SMOOTH",
"192 303 OFFCURVE",
"234 344 OFFCURVE",
"295 344 CURVE SMOOTH",
"338 344 OFFCURVE",
"372 333 OFFCURVE",
"417 309 CURVE",
"470 427 LINE",
"419 462 OFFCURVE",
"360 480 OFFCURVE",
"295 480 CURVE SMOOTH",
"142 480 OFFCURVE",
"32 382 OFFCURVE",
"32 235 CURVE SMOOTH",
"32 109 OFFCURVE",
"111 21 OFFCURVE",
"229 -3 CURVE",
"213 -42 LINE",
"213 -76 LINE",
"234 -76 LINE SMOOTH",
"265 -76 OFFCURVE",
"281 -85 OFFCURVE",
"281 -104 CURVE SMOOTH",
"281 -123 OFFCURVE",
"265 -132 OFFCURVE",
"234 -132 CURVE SMOOTH",
"215 -132 OFFCURVE",
"182 -128 OFFCURVE",
"157 -123 CURVE",
"157 -196 LINE",
"190 -205 OFFCURVE",
"225 -208 OFFCURVE",
"244 -208 CURVE SMOOTH"
);
}
);
width = 496;
}
);
leftKerningGroup = _c1;
unicode = 00E7;
},
{
glyphname = egrave;
layers = (
{
layerId = "19C37293-DF0C-4049-8F1C-5BECA685D590";
paths = (
{
closed = 1;
nodes = (
"379 -10 OFFCURVE",
"449 11 OFFCURVE",
"508 51 CURVE",
"463 158 LINE",
"420 133 OFFCURVE",
"372 116 OFFCURVE",
"320 116 CURVE SMOOTH",
"247 116 OFFCURVE",
"201 142 OFFCURVE",
"192 195 CURVE",
"510 195 LINE",
"521 216 OFFCURVE",
"528 250 OFFCURVE",
"528 275 CURVE SMOOTH",
"528 396 OFFCURVE",
"428 480 OFFCURVE",
"285 480 CURVE SMOOTH",
"142 480 OFFCURVE",
"32 385 OFFCURVE",
"32 235 CURVE SMOOTH",
"32 70 OFFCURVE",
"155 -10 OFFCURVE",
"303 -10 CURVE SMOOTH"
);
},
{
closed = 1;
nodes = (
"342 362 OFFCURVE",
"368 336 OFFCURVE",
"368 303 CURVE SMOOTH",
"368 300 OFFCURVE",
"367 297 OFFCURVE",
"366 293 CURVE",
"192 293 LINE",
"200 333 OFFCURVE",
"236 362 OFFCURVE",
"289 362 CURVE SMOOTH"
);
},
{
closed = 1;
nodes = (
"338 537 LINE",
"275 696 LINE",
"121 696 LINE",
"232 537 LINE"
);
}
);
width = 560;
}
);
leftKerningGroup = _c1;
rightKerningGroup = _b;
unicode = 00E8;
},
{
glyphname = eacute;
layers = (
{
layerId = "19C37293-DF0C-4049-8F1C-5BECA685D590";
paths = (
{
closed = 1;
nodes = (
"379 -10 OFFCURVE",
"449 11 OFFCURVE",
"508 51 CURVE",
"463 158 LINE",
"420 133 OFFCURVE",
"372 116 OFFCURVE",
"320 116 CURVE SMOOTH",
"247 116 OFFCURVE",
"201 142 OFFCURVE",
"192 195 CURVE",
"510 195 LINE",
"521 216 OFFCURVE",
"528 250 OFFCURVE",
"528 275 CURVE SMOOTH",
"528 396 OFFCURVE",
"428 480 OFFCURVE",
"285 480 CURVE SMOOTH",
"142 480 OFFCURVE",
"32 385 OFFCURVE",
"32 235 CURVE SMOOTH",
"32 70 OFFCURVE",
"155 -10 OFFCURVE",
"303 -10 CURVE SMOOTH"
);
},
{
closed = 1;
nodes = (
"342 362 OFFCURVE",
"368 336 OFFCURVE",
"368 303 CURVE SMOOTH",
"368 300 OFFCURVE",
"367 297 OFFCURVE",
"366 293 CURVE",
"192 293 LINE",
"200 333 OFFCURVE",
"236 362 OFFCURVE",
"289 362 CURVE SMOOTH"
);
},
{
closed = 1;
nodes = (
"338 537 LINE",
"449 696 LINE",
"295 696 LINE",
"232 537 LINE"
);
}
);
width = 560;
}
);
leftKerningGroup = _c1;
rightKerningGroup = _b;
unicode = 00E9;
},
{
glyphname = ecircumflex;
layers = (
{
layerId = "19C37293-DF0C-4049-8F1C-5BECA685D590";
paths = (
{
closed = 1;
nodes = (
"379 -10 OFFCURVE",
"449 11 OFFCURVE",
"508 51 CURVE",
"463 158 LINE",
"420 133 OFFCURVE",
"372 116 OFFCURVE",
"320 116 CURVE SMOOTH",
"247 116 OFFCURVE",
"201 142 OFFCURVE",
"192 195 CURVE",
"510 195 LINE",
"521 216 OFFCURVE",
"528 250 OFFCURVE",
"528 275 CURVE SMOOTH",
"528 396 OFFCURVE",
"428 480 OFFCURVE",
"285 480 CURVE SMOOTH",
"142 480 OFFCURVE",
"32 385 OFFCURVE",
"32 235 CURVE SMOOTH",
"32 70 OFFCURVE",
"155 -10 OFFCURVE",
"303 -10 CURVE SMOOTH"
);
},
{
closed = 1;
nodes = (
"342 362 OFFCURVE",
"368 336 OFFCURVE",
"368 303 CURVE SMOOTH",
"368 300 OFFCURVE",
"367 297 OFFCURVE",
"366 293 CURVE",
"192 293 LINE",
"200 333 OFFCURVE",
"236 362 OFFCURVE",
"289 362 CURVE SMOOTH"
);
},
{
closed = 1;
nodes = (
"452 537 LINE",
"356 696 LINE",
"214 696 LINE",
"118 537 LINE",
"234 537 LINE",
"285 615 LINE",
"336 537 LINE"
);
}
);
width = 560;
}
);
leftKerningGroup = _c1;
rightKerningGroup = _b;
unicode = 00EA;
},
{
glyphname = edieresis;
layers = (
{
layerId = "19C37293-DF0C-4049-8F1C-5BECA685D590";
paths = (
{
closed = 1;
nodes = (
"379 -10 OFFCURVE",
"449 11 OFFCURVE",
"508 51 CURVE",
"463 158 LINE",
"420 133 OFFCURVE",
"372 116 OFFCURVE",
"320 116 CURVE SMOOTH",
"247 116 OFFCURVE",
"201 142 OFFCURVE",
"192 195 CURVE",
"510 195 LINE",
"521 216 OFFCURVE",
"528 250 OFFCURVE",
"528 275 CURVE SMOOTH",
"528 396 OFFCURVE",
"428 480 OFFCURVE",
"285 480 CURVE SMOOTH",
"142 480 OFFCURVE",
"32 385 OFFCURVE",
"32 235 CURVE SMOOTH",
"32 70 OFFCURVE",
"155 -10 OFFCURVE",
"303 -10 CURVE SMOOTH"
);
},
{
closed = 1;
nodes = (
"342 362 OFFCURVE",
"368 336 OFFCURVE",
"368 303 CURVE SMOOTH",
"368 300 OFFCURVE",
"367 297 OFFCURVE",
"366 293 CURVE",
"192 293 LINE",
"200 333 OFFCURVE",
"236 362 OFFCURVE",
"289 362 CURVE SMOOTH"
);
},
{
closed = 1;
nodes = (
"229 545 OFFCURVE",
"257 576 OFFCURVE",
"257 617 CURVE SMOOTH",
"257 657 OFFCURVE",
"229 688 OFFCURVE",
"182 688 CURVE SMOOTH",
"137 688 OFFCURVE",
"108 657 OFFCURVE",
"108 617 CURVE SMOOTH",
"108 576 OFFCURVE",
"137 545 OFFCURVE",
"182 545 CURVE SMOOTH"
);
},
{
closed = 1;
nodes = (
"433 545 OFFCURVE",
"462 576 OFFCURVE",
"462 617 CURVE SMOOTH",
"462 657 OFFCURVE",
"433 688 OFFCURVE",
"388 688 CURVE SMOOTH",
"341 688 OFFCURVE",
"313 657 OFFCURVE",
"313 617 CURVE SMOOTH",
"313 576 OFFCURVE",
"341 545 OFFCURVE",
"388 545 CURVE SMOOTH"
);
}
);
width = 560;
}
);
leftKerningGroup = _c1;
rightKerningGroup = _b;
unicode = 00EB;
},
{
glyphname = igrave;
layers = (
{
layerId = "19C37293-DF0C-4049-8F1C-5BECA685D590";
paths = (
{
closed = 1;
nodes = (
"211 0 LINE",
"211 470 LINE",
"53 470 LINE",
"53 0 LINE"
);
},
{
closed = 1;
nodes = (
"185 537 LINE",
"122 696 LINE",
"-32 696 LINE",
"79 537 LINE"
);
}
);
width = 265;
}
);
unicode = 00EC;
},
{
glyphname = iacute;
layers = (
{
layerId = "19C37293-DF0C-4049-8F1C-5BECA685D590";
paths = (
{
closed = 1;
nodes = (
"211 0 LINE",
"211 470 LINE",
"53 470 LINE",
"53 0 LINE"
);
},
{
closed = 1;
nodes = (
"185 537 LINE",
"296 696 LINE",
"142 696 LINE",
"79 537 LINE"
);
}
);
width = 265;
}
);
unicode = 00ED;
},
{
glyphname = icircumflex;
layers = (
{
layerId = "19C37293-DF0C-4049-8F1C-5BECA685D590";
paths = (
{
closed = 1;
nodes = (
"211 0 LINE",
"211 470 LINE",
"53 470 LINE",
"53 0 LINE"
);
},
{
closed = 1;
nodes = (
"299 537 LINE",
"203 696 LINE",
"61 696 LINE",
"-34 537 LINE",
"81 537 LINE",
"132 615 LINE",
"183 537 LINE"
);
}
);
width = 265;
}
);
unicode = 00EE;
},
{
glyphname = idieresis;
layers = (
{
layerId = "19C37293-DF0C-4049-8F1C-5BECA685D590";
paths = (
{
closed = 1;
nodes = (
"211 0 LINE",
"211 470 LINE",
"53 470 LINE",
"53 0 LINE"
);
},
{
closed = 1;
nodes = (
"75 545 OFFCURVE",
"105 576 OFFCURVE",
"105 617 CURVE SMOOTH",
"105 657 OFFCURVE",
"75 688 OFFCURVE",
"30 688 CURVE SMOOTH",
"-15 688 OFFCURVE",
"-45 657 OFFCURVE",
"-45 617 CURVE SMOOTH",
"-45 576 OFFCURVE",
"-15 545 OFFCURVE",
"30 545 CURVE SMOOTH"
);
},
{
closed = 1;
nodes = (
"280 545 OFFCURVE",
"310 576 OFFCURVE",
"310 617 CURVE SMOOTH",
"310 657 OFFCURVE",
"280 688 OFFCURVE",
"235 688 CURVE SMOOTH",
"190 688 OFFCURVE",
"160 657 OFFCURVE",
"160 617 CURVE SMOOTH",
"160 576 OFFCURVE",
"190 545 OFFCURVE",
"235 545 CURVE SMOOTH"
);
}
);
width = 265;
}
);
unicode = 00EF;
},
{
glyphname = eth;
layers = (
{
layerId = "19C37293-DF0C-4049-8F1C-5BECA685D590";
paths = (
{
closed = 1;
nodes = (
"448 -10 OFFCURVE",
"558 82 OFFCURVE",
"558 222 CURVE SMOOTH",
"558 310 OFFCURVE",
"535 358 OFFCURVE",
"482 435 CURVE",
"394 557 LINE",
"454 578 LINE",
"454 668 LINE",
"343 631 LINE",
"316 668 LINE",
"156 668 LINE",
"213 589 LINE",
"150 568 LINE",
"150 478 LINE",
"266 516 LINE",
"333 422 LINE",
"313 433 OFFCURVE",
"289 438 OFFCURVE",
"262 438 CURVE SMOOTH",
"121 438 OFFCURVE",
"32 355 OFFCURVE",
"32 222 CURVE SMOOTH",
"32 82 OFFCURVE",
"142 -10 OFFCURVE",
"295 -10 CURVE SMOOTH"
);
},
{
closed = 1;
nodes = (
"232 126 OFFCURVE",
"192 167 OFFCURVE",
"192 227 CURVE SMOOTH",
"192 287 OFFCURVE",
"232 328 OFFCURVE",
"295 328 CURVE SMOOTH",
"358 328 OFFCURVE",
"398 287 OFFCURVE",
"398 227 CURVE SMOOTH",
"398 167 OFFCURVE",
"358 126 OFFCURVE",
"295 126 CURVE SMOOTH"
);
}
);
width = 590;
}
);
leftKerningGroup = _c1;
rightKerningGroup = _b;
unicode = 00F0;
},
{
glyphname = ntilde;
layers = (
{
layerId = "19C37293-DF0C-4049-8F1C-5BECA685D590";
paths = (
{
closed = 1;
nodes = (
"517 0 LINE",
"517 294 LINE SMOOTH",
"517 421 OFFCURVE",
"451 480 OFFCURVE",
"346 480 CURVE SMOOTH",
"278 480 OFFCURVE",
"232 457 OFFCURVE",
"203 418 CURVE",
"203 470 LINE",
"53 470 LINE",
"53 0 LINE",
"211 0 LINE",
"211 245 LINE SMOOTH",
"211 312 OFFCURVE",
"245 344 OFFCURVE",
"296 344 CURVE SMOOTH",
"338 344 OFFCURVE",
"359 319 OFFCURVE",
"359 270 CURVE SMOOTH",
"359 0 LINE"
);
},
{
closed = 1;
nodes = (
"432 540 OFFCURVE",
"462 604 OFFCURVE",
"462 693 CURVE",
"376 693 LINE",
"374 656 OFFCURVE",
"364 638 OFFCURVE",
"346 638 CURVE SMOOTH",
"318 638 OFFCURVE",
"279 693 OFFCURVE",
"219 693 CURVE SMOOTH",
"138 693 OFFCURVE",
"108 629 OFFCURVE",
"108 540 CURVE",
"194 540 LINE",
"196 577 OFFCURVE",
"206 595 OFFCURVE",
"224 595 CURVE SMOOTH",
"253 595 OFFCURVE",
"290 540 OFFCURVE",
"351 540 CURVE SMOOTH"
);
}
);
width = 570;
}
);
leftKerningGroup = _m1;
rightKerningGroup = _h;
unicode = 00F1;
},
{
glyphname = ograve;
layers = (
{
layerId = "19C37293-DF0C-4049-8F1C-5BECA685D590";
paths = (
{
closed = 1;
nodes = (
"448 -10 OFFCURVE",
"558 88 OFFCURVE",
"558 235 CURVE SMOOTH",
"558 382 OFFCURVE",
"448 480 OFFCURVE",
"295 480 CURVE SMOOTH",
"142 480 OFFCURVE",
"32 382 OFFCURVE",
"32 235 CURVE SMOOTH",
"32 88 OFFCURVE",
"142 -10 OFFCURVE",
"295 -10 CURVE SMOOTH"
);
},
{
closed = 1;
nodes = (
"234 126 OFFCURVE",
"192 167 OFFCURVE",
"192 235 CURVE SMOOTH",
"192 303 OFFCURVE",
"234 344 OFFCURVE",
"295 344 CURVE SMOOTH",
"356 344 OFFCURVE",
"398 303 OFFCURVE",
"398 235 CURVE SMOOTH",
"398 167 OFFCURVE",
"356 126 OFFCURVE",
"295 126 CURVE SMOOTH"
);
},
{
closed = 1;
nodes = (
"348 537 LINE",
"285 696 LINE",
"131 696 LINE",
"242 537 LINE"
);
}
);
width = 590;
}
);
leftKerningGroup = _c1;
rightKerningGroup = _b;
unicode = 00F2;
},
{
glyphname = oacute;
layers = (
{
layerId = "19C37293-DF0C-4049-8F1C-5BECA685D590";
paths = (
{
closed = 1;
nodes = (
"448 -10 OFFCURVE",
"558 88 OFFCURVE",
"558 235 CURVE SMOOTH",
"558 382 OFFCURVE",
"448 480 OFFCURVE",
"295 480 CURVE SMOOTH",
"142 480 OFFCURVE",
"32 382 OFFCURVE",
"32 235 CURVE SMOOTH",
"32 88 OFFCURVE",
"142 -10 OFFCURVE",
"295 -10 CURVE SMOOTH"
);
},
{
closed = 1;
nodes = (
"234 126 OFFCURVE",
"192 167 OFFCURVE",
"192 235 CURVE SMOOTH",
"192 303 OFFCURVE",
"234 344 OFFCURVE",
"295 344 CURVE SMOOTH",
"356 344 OFFCURVE",
"398 303 OFFCURVE",
"398 235 CURVE SMOOTH",
"398 167 OFFCURVE",
"356 126 OFFCURVE",
"295 126 CURVE SMOOTH"
);
},
{
closed = 1;
nodes = (
"348 537 LINE",
"459 696 LINE",
"305 696 LINE",
"242 537 LINE"
);
}
);
width = 590;
}
);
leftKerningGroup = _c1;
rightKerningGroup = _b;
unicode = 00F3;
},
{
glyphname = ocircumflex;
layers = (
{
layerId = "19C37293-DF0C-4049-8F1C-5BECA685D590";
paths = (
{
closed = 1;
nodes = (
"448 -10 OFFCURVE",
"558 88 OFFCURVE",
"558 235 CURVE SMOOTH",
"558 382 OFFCURVE",
"448 480 OFFCURVE",
"295 480 CURVE SMOOTH",
"142 480 OFFCURVE",
"32 382 OFFCURVE",
"32 235 CURVE SMOOTH",
"32 88 OFFCURVE",
"142 -10 OFFCURVE",
"295 -10 CURVE SMOOTH"
);
},
{
closed = 1;
nodes = (
"234 126 OFFCURVE",
"192 167 OFFCURVE",
"192 235 CURVE SMOOTH",
"192 303 OFFCURVE",
"234 344 OFFCURVE",
"295 344 CURVE SMOOTH",
"356 344 OFFCURVE",
"398 303 OFFCURVE",
"398 235 CURVE SMOOTH",
"398 167 OFFCURVE",
"356 126 OFFCURVE",
"295 126 CURVE SMOOTH"
);
},
{
closed = 1;
nodes = (
"462 537 LINE",
"366 696 LINE",
"224 696 LINE",
"128 537 LINE",
"244 537 LINE",
"295 615 LINE",
"346 537 LINE"
);
}
);
width = 590;
}
);
leftKerningGroup = _c1;
rightKerningGroup = _b;
unicode = 00F4;
},
{
glyphname = otilde;
layers = (
{
layerId = "19C37293-DF0C-4049-8F1C-5BECA685D590";
paths = (
{
closed = 1;
nodes = (
"448 -10 OFFCURVE",
"558 88 OFFCURVE",
"558 235 CURVE SMOOTH",
"558 382 OFFCURVE",
"448 480 OFFCURVE",
"295 480 CURVE SMOOTH",
"142 480 OFFCURVE",
"32 382 OFFCURVE",
"32 235 CURVE SMOOTH",
"32 88 OFFCURVE",
"142 -10 OFFCURVE",
"295 -10 CURVE SMOOTH"
);
},
{
closed = 1;
nodes = (
"234 126 OFFCURVE",
"192 167 OFFCURVE",
"192 235 CURVE SMOOTH",
"192 303 OFFCURVE",
"234 344 OFFCURVE",
"295 344 CURVE SMOOTH",
"356 344 OFFCURVE",
"398 303 OFFCURVE",
"398 235 CURVE SMOOTH",
"398 167 OFFCURVE",
"356 126 OFFCURVE",
"295 126 CURVE SMOOTH"
);
},
{
closed = 1;
nodes = (
"442 540 OFFCURVE",
"472 604 OFFCURVE",
"472 693 CURVE",
"386 693 LINE",
"384 656 OFFCURVE",
"374 638 OFFCURVE",
"356 638 CURVE SMOOTH",
"328 638 OFFCURVE",
"289 693 OFFCURVE",
"229 693 CURVE SMOOTH",
"148 693 OFFCURVE",
"118 629 OFFCURVE",
"118 540 CURVE",
"204 540 LINE",
"206 577 OFFCURVE",
"216 595 OFFCURVE",
"234 595 CURVE SMOOTH",
"263 595 OFFCURVE",
"300 540 OFFCURVE",
"361 540 CURVE SMOOTH"
);
}
);
width = 590;
}
);
leftKerningGroup = _c1;
rightKerningGroup = _b;
unicode = 00F5;
},
{
glyphname = odieresis;
layers = (
{
layerId = "19C37293-DF0C-4049-8F1C-5BECA685D590";
paths = (
{
closed = 1;
nodes = (
"448 -10 OFFCURVE",
"558 88 OFFCURVE",
"558 235 CURVE SMOOTH",
"558 382 OFFCURVE",
"448 480 OFFCURVE",
"295 480 CURVE SMOOTH",
"142 480 OFFCURVE",
"32 382 OFFCURVE",
"32 235 CURVE SMOOTH",
"32 88 OFFCURVE",
"142 -10 OFFCURVE",
"295 -10 CURVE SMOOTH"
);
},
{
closed = 1;
nodes = (
"234 126 OFFCURVE",
"192 167 OFFCURVE",
"192 235 CURVE SMOOTH",
"192 303 OFFCURVE",
"234 344 OFFCURVE",
"295 344 CURVE SMOOTH",
"356 344 OFFCURVE",
"398 303 OFFCURVE",
"398 235 CURVE SMOOTH",
"398 167 OFFCURVE",
"356 126 OFFCURVE",
"295 126 CURVE SMOOTH"
);
},
{
closed = 1;
nodes = (
"239 545 OFFCURVE",
"267 576 OFFCURVE",
"267 617 CURVE SMOOTH",
"267 657 OFFCURVE",
"239 688 OFFCURVE",
"192 688 CURVE SMOOTH",
"147 688 OFFCURVE",
"118 657 OFFCURVE",
"118 617 CURVE SMOOTH",
"118 576 OFFCURVE",
"147 545 OFFCURVE",
"192 545 CURVE SMOOTH"
);
},
{
closed = 1;
nodes = (
"443 545 OFFCURVE",
"472 576 OFFCURVE",
"472 617 CURVE SMOOTH",
"472 657 OFFCURVE",
"443 688 OFFCURVE",
"398 688 CURVE SMOOTH",
"351 688 OFFCURVE",
"323 657 OFFCURVE",
"323 617 CURVE SMOOTH",
"323 576 OFFCURVE",
"351 545 OFFCURVE",
"398 545 CURVE SMOOTH"
);
}
);
width = 590;
}
);
leftKerningGroup = _c1;
rightKerningGroup = _b;
unicode = 00F6;
},
{
glyphname = divide;
layers = (
{
layerId = "19C37293-DF0C-4049-8F1C-5BECA685D590";
paths = (
{
closed = 1;
nodes = (
"339 68 OFFCURVE",
"370 100 OFFCURVE",
"370 144 CURVE SMOOTH",
"370 187 OFFCURVE",
"339 219 OFFCURVE",
"291 219 CURVE SMOOTH",
"242 219 OFFCURVE",
"212 187 OFFCURVE",
"212 144 CURVE SMOOTH",
"212 100 OFFCURVE",
"242 68 OFFCURVE",
"291 68 CURVE SMOOTH"
);
},
{
closed = 1;
nodes = (
"529 269 LINE",
"529 399 LINE",
"53 399 LINE",
"53 269 LINE"
);
},
{
closed = 1;
nodes = (
"339 449 OFFCURVE",
"370 481 OFFCURVE",
"370 524 CURVE SMOOTH",
"370 568 OFFCURVE",
"339 600 OFFCURVE",
"291 600 CURVE SMOOTH",
"242 600 OFFCURVE",
"212 568 OFFCURVE",
"212 524 CURVE SMOOTH",
"212 481 OFFCURVE",
"242 449 OFFCURVE",
"291 449 CURVE SMOOTH"
);
}
);
width = 582;
}
);
unicode = 00F7;
},
{
glyphname = oslash;
layers = (
{
layerId = "19C37293-DF0C-4049-8F1C-5BECA685D590";
paths = (
{
closed = 1;
nodes = (
"82 -10 LINE",
"132 36 LINE",
"177 5 OFFCURVE",
"231 -10 OFFCURVE",
"295 -10 CURVE SMOOTH",
"448 -10 OFFCURVE",
"558 88 OFFCURVE",
"558 235 CURVE SMOOTH",
"558 292 OFFCURVE",
"542 342 OFFCURVE",
"510 383 CURVE",
"558 427 LINE",
"508 480 LINE",
"457 433 LINE",
"413 464 OFFCURVE",
"359 480 OFFCURVE",
"295 480 CURVE SMOOTH",
"142 480 OFFCURVE",
"32 382 OFFCURVE",
"32 235 CURVE SMOOTH",
"32 176 OFFCURVE",
"48 126 OFFCURVE",
"79 86 CURVE",
"32 43 LINE"
);
},
{
closed = 1;
nodes = (
"275 126 OFFCURVE",
"258 130 OFFCURVE",
"243 138 CURVE",
"392 275 LINE",
"396 263 OFFCURVE",
"398 250 OFFCURVE",
"398 235 CURVE SMOOTH",
"398 167 OFFCURVE",
"356 126 OFFCURVE",
"295 126 CURVE SMOOTH"
);
},
{
closed = 1;
nodes = (
"192 303 OFFCURVE",
"234 344 OFFCURVE",
"295 344 CURVE SMOOTH",
"314 344 OFFCURVE",
"331 340 OFFCURVE",
"346 332 CURVE",
"197 195 LINE",
"193 207 OFFCURVE",
"192 220 OFFCURVE",
"192 235 CURVE SMOOTH"
);
}
);
width = 590;
}
);
leftKerningGroup = _c1;
rightKerningGroup = _b;
unicode = 00F8;
},
{
glyphname = ugrave;
layers = (
{
layerId = "19C37293-DF0C-4049-8F1C-5BECA685D590";
paths = (
{
closed = 1;
nodes = (
"292 -10 OFFCURVE",
"338 13 OFFCURVE",
"367 52 CURVE",
"367 0 LINE",
"517 0 LINE",
"517 470 LINE",
"359 470 LINE",
"359 225 LINE SMOOTH",
"359 158 OFFCURVE",
"325 126 OFFCURVE",
"274 126 CURVE SMOOTH",
"232 126 OFFCURVE",
"211 151 OFFCURVE",
"211 200 CURVE SMOOTH",
"211 470 LINE",
"53 470 LINE",
"53 176 LINE SMOOTH",
"53 49 OFFCURVE",
"119 -10 OFFCURVE",
"224 -10 CURVE SMOOTH"
);
},
{
closed = 1;
nodes = (
"338 537 LINE",
"275 696 LINE",
"121 696 LINE",
"232 537 LINE"
);
}
);
width = 570;
}
);
leftKerningGroup = _u;
unicode = 00F9;
},
{
glyphname = uacute;
layers = (
{
layerId = "19C37293-DF0C-4049-8F1C-5BECA685D590";
paths = (
{
closed = 1;
nodes = (
"292 -10 OFFCURVE",
"338 13 OFFCURVE",
"367 52 CURVE",
"367 0 LINE",
"517 0 LINE",
"517 470 LINE",
"359 470 LINE",
"359 225 LINE SMOOTH",
"359 158 OFFCURVE",
"325 126 OFFCURVE",
"274 126 CURVE SMOOTH",
"232 126 OFFCURVE",
"211 151 OFFCURVE",
"211 200 CURVE SMOOTH",
"211 470 LINE",
"53 470 LINE",
"53 176 LINE SMOOTH",
"53 49 OFFCURVE",
"119 -10 OFFCURVE",
"224 -10 CURVE SMOOTH"
);
},
{
closed = 1;
nodes = (
"338 537 LINE",
"449 696 LINE",
"295 696 LINE",
"232 537 LINE"
);
}
);
width = 570;
}
);
leftKerningGroup = _u;
unicode = 00FA;
},
{
glyphname = ucircumflex;
layers = (
{
layerId = "19C37293-DF0C-4049-8F1C-5BECA685D590";
paths = (
{
closed = 1;
nodes = (
"292 -10 OFFCURVE",
"338 13 OFFCURVE",
"367 52 CURVE",
"367 0 LINE",
"517 0 LINE",
"517 470 LINE",
"359 470 LINE",
"359 225 LINE SMOOTH",
"359 158 OFFCURVE",
"325 126 OFFCURVE",
"274 126 CURVE SMOOTH",
"232 126 OFFCURVE",
"211 151 OFFCURVE",
"211 200 CURVE SMOOTH",
"211 470 LINE",
"53 470 LINE",
"53 176 LINE SMOOTH",
"53 49 OFFCURVE",
"119 -10 OFFCURVE",
"224 -10 CURVE SMOOTH"
);
},
{
closed = 1;
nodes = (
"452 537 LINE",
"356 696 LINE",
"214 696 LINE",
"118 537 LINE",
"234 537 LINE",
"285 615 LINE",
"336 537 LINE"
);
}
);
width = 570;
}
);
leftKerningGroup = _u;
unicode = 00FB;
},
{
glyphname = udieresis;
layers = (
{
layerId = "19C37293-DF0C-4049-8F1C-5BECA685D590";
paths = (
{
closed = 1;
nodes = (
"292 -10 OFFCURVE",
"338 13 OFFCURVE",
"367 52 CURVE",
"367 0 LINE",
"517 0 LINE",
"517 470 LINE",
"359 470 LINE",
"359 225 LINE SMOOTH",
"359 158 OFFCURVE",
"325 126 OFFCURVE",
"274 126 CURVE SMOOTH",
"232 126 OFFCURVE",
"211 151 OFFCURVE",
"211 200 CURVE SMOOTH",
"211 470 LINE",
"53 470 LINE",
"53 176 LINE SMOOTH",
"53 49 OFFCURVE",
"119 -10 OFFCURVE",
"224 -10 CURVE SMOOTH"
);
},
{
closed = 1;
nodes = (
"229 545 OFFCURVE",
"257 576 OFFCURVE",
"257 617 CURVE SMOOTH",
"257 657 OFFCURVE",
"229 688 OFFCURVE",
"182 688 CURVE SMOOTH",
"137 688 OFFCURVE",
"108 657 OFFCURVE",
"108 617 CURVE SMOOTH",
"108 576 OFFCURVE",
"137 545 OFFCURVE",
"182 545 CURVE SMOOTH"
);
},
{
closed = 1;
nodes = (
"433 545 OFFCURVE",
"462 576 OFFCURVE",
"462 617 CURVE SMOOTH",
"462 657 OFFCURVE",
"433 688 OFFCURVE",
"388 688 CURVE SMOOTH",
"341 688 OFFCURVE",
"313 657 OFFCURVE",
"313 617 CURVE SMOOTH",
"313 576 OFFCURVE",
"341 545 OFFCURVE",
"388 545 CURVE SMOOTH"
);
}
);
width = 570;
}
);
leftKerningGroup = _u;
unicode = 00FC;
},
{
glyphname = yacute;
layers = (
{
layerId = "19C37293-DF0C-4049-8F1C-5BECA685D590";
paths = (
{
closed = 1;
nodes = (
"231 -188 OFFCURVE",
"308 -135 OFFCURVE",
"357 0 CURVE",
"531 470 LINE",
"362 470 LINE",
"269 147 LINE",
"177 470 LINE",
"8 470 LINE",
"195 -35 LINE",
"176 -52 OFFCURVE",
"152 -60 OFFCURVE",
"122 -60 CURVE SMOOTH",
"95 -60 OFFCURVE",
"66 -52 OFFCURVE",
"43 -43 CURVE",
"2 -160 LINE",
"33 -176 OFFCURVE",
"88 -188 OFFCURVE",
"135 -188 CURVE SMOOTH"
);
},
{
closed = 1;
nodes = (
"323 537 LINE",
"434 696 LINE",
"280 696 LINE",
"216 537 LINE"
);
}
);
width = 539;
}
);
leftKerningGroup = _v;
rightKerningGroup = _v;
unicode = 00FD;
},
{
glyphname = thorn;
layers = (
{
layerId = "19C37293-DF0C-4049-8F1C-5BECA685D590";
paths = (
{
closed = 1;
nodes = (
"470 -10 OFFCURVE",
"570 83 OFFCURVE",
"570 235 CURVE SMOOTH",
"570 387 OFFCURVE",
"470 480 OFFCURVE",
"345 480 CURVE SMOOTH",
"285 480 OFFCURVE",
"240 459 OFFCURVE",
"211 426 CURVE",
"211 668 LINE",
"53 668 LINE",
"53 -182 LINE",
"211 -182 LINE",
"211 43 LINE",
"242 10 OFFCURVE",
"285 -10 OFFCURVE",
"345 -10 CURVE SMOOTH"
);
},
{
closed = 1;
nodes = (
"247 126 OFFCURVE",
"205 167 OFFCURVE",
"205 235 CURVE SMOOTH",
"205 303 OFFCURVE",
"247 344 OFFCURVE",
"307 344 CURVE SMOOTH",
"367 344 OFFCURVE",
"409 303 OFFCURVE",
"409 235 CURVE SMOOTH",
"409 167 OFFCURVE",
"367 126 OFFCURVE",
"307 126 CURVE SMOOTH"
);
}
);
width = 602;
}
);
rightKerningGroup = _b;
unicode = 00FE;
},
{
glyphname = ydieresis;
layers = (
{
layerId = "19C37293-DF0C-4049-8F1C-5BECA685D590";
paths = (
{
closed = 1;
nodes = (
"231 -188 OFFCURVE",
"308 -135 OFFCURVE",
"357 0 CURVE",
"531 470 LINE",
"362 470 LINE",
"269 147 LINE",
"177 470 LINE",
"8 470 LINE",
"195 -35 LINE",
"176 -52 OFFCURVE",
"152 -60 OFFCURVE",
"122 -60 CURVE SMOOTH",
"95 -60 OFFCURVE",
"66 -52 OFFCURVE",
"43 -43 CURVE",
"2 -160 LINE",
"33 -176 OFFCURVE",
"88 -188 OFFCURVE",
"135 -188 CURVE SMOOTH"
);
},
{
closed = 1;
nodes = (
"417 545 OFFCURVE",
"447 576 OFFCURVE",
"447 617 CURVE SMOOTH",
"447 657 OFFCURVE",
"417 688 OFFCURVE",
"372 688 CURVE SMOOTH",
"327 688 OFFCURVE",
"297 657 OFFCURVE",
"297 617 CURVE SMOOTH",
"297 576 OFFCURVE",
"327 545 OFFCURVE",
"372 545 CURVE SMOOTH"
);
},
{
closed = 1;
nodes = (
"212 545 OFFCURVE",
"242 576 OFFCURVE",
"242 617 CURVE SMOOTH",
"242 657 OFFCURVE",
"212 688 OFFCURVE",
"167 688 CURVE SMOOTH",
"122 688 OFFCURVE",
"92 657 OFFCURVE",
"92 617 CURVE SMOOTH",
"92 576 OFFCURVE",
"122 545 OFFCURVE",
"167 545 CURVE SMOOTH"
);
}
);
width = 539;
}
);
leftKerningGroup = _v;
rightKerningGroup = _v;
unicode = 00FF;
},
{
glyphname = dotlessi;
layers = (
{
layerId = "19C37293-DF0C-4049-8F1C-5BECA685D590";
paths = (
{
closed = 1;
nodes = (
"211 0 LINE",
"211 470 LINE",
"53 470 LINE",
"53 0 LINE"
);
}
);
width = 265;
}
);
leftKerningGroup = _m1;
unicode = 0131;
},
{
glyphname = Lslash;
layers = (
{
layerId = "19C37293-DF0C-4049-8F1C-5BECA685D590";
paths = (
{
closed = 1;
nodes = (
"508 0 LINE",
"508 145 LINE",
"229 145 LINE",
"229 324 LINE",
"395 388 LINE",
"395 477 LINE",
"229 413 LINE",
"229 668 LINE",
"62 668 LINE",
"62 348 LINE",
"7 327 LINE",
"7 237 LINE",
"62 258 LINE",
"62 0 LINE"
);
}
);
width = 543;
}
);
rightKerningGroup = _L;
unicode = 0141;
},
{
glyphname = lslash;
layers = (
{
layerId = "19C37293-DF0C-4049-8F1C-5BECA685D590";
paths = (
{
closed = 1;
nodes = (
"220 0 LINE",
"220 320 LINE",
"275 341 LINE",
"275 431 LINE",
"220 409 LINE",
"220 668 LINE",
"62 668 LINE",
"62 348 LINE",
"7 327 LINE",
"7 237 LINE",
"62 258 LINE",
"62 0 LINE"
);
}
);
width = 282;
}
);
unicode = 0142;
},
{
glyphname = OE;
layers = (
{
layerId = "19C37293-DF0C-4049-8F1C-5BECA685D590";
paths = (
{
closed = 1;
nodes = (
"977 0 LINE",
"977 140 LINE",
"648 140 LINE",
"648 279 LINE",
"947 279 LINE",
"947 409 LINE",
"648 409 LINE",
"648 528 LINE",
"977 528 LINE",
"977 668 LINE",
"400 668 LINE SMOOTH",
"161 668 OFFCURVE",
"32 555 OFFCURVE",
"32 334 CURVE SMOOTH",
"32 113 OFFCURVE",
"161 0 OFFCURVE",
"400 0 CURVE SMOOTH"
);
},
{
closed = 1;
nodes = (
"201 463 OFFCURVE",
"255 528 OFFCURVE",
"402 528 CURVE SMOOTH",
"481 528 LINE",
"481 140 LINE",
"402 140 LINE SMOOTH",
"255 140 OFFCURVE",
"201 203 OFFCURVE",
"201 334 CURVE SMOOTH"
);
}
);
width = 1022;
}
);
leftKerningGroup = _C1;
unicode = 0152;
},
{
glyphname = oe;
layers = (
{
layerId = "19C37293-DF0C-4049-8F1C-5BECA685D590";
paths = (
{
closed = 1;
nodes = (
"745 -10 OFFCURVE",
"815 11 OFFCURVE",
"874 51 CURVE",
"829 158 LINE",
"786 133 OFFCURVE",
"739 116 OFFCURVE",
"686 116 CURVE SMOOTH",
"613 116 OFFCURVE",
"567 142 OFFCURVE",
"558 195 CURVE",
"876 195 LINE",
"887 216 OFFCURVE",
"894 250 OFFCURVE",
"894 275 CURVE SMOOTH",
"894 396 OFFCURVE",
"795 480 OFFCURVE",
"651 480 CURVE SMOOTH",
"579 480 OFFCURVE",
"519 453 OFFCURVE",
"476 406 CURVE",
"433 453 OFFCURVE",
"371 480 OFFCURVE",
"295 480 CURVE SMOOTH",
"142 480 OFFCURVE",
"31 382 OFFCURVE",
"31 235 CURVE SMOOTH",
"31 88 OFFCURVE",
"142 -10 OFFCURVE",
"295 -10 CURVE SMOOTH",
"371 -10 OFFCURVE",
"434 17 OFFCURVE",
"477 65 CURVE",
"524 14 OFFCURVE",
"592 -10 OFFCURVE",
"669 -10 CURVE SMOOTH"
);
},
{
closed = 1;
nodes = (
"234 126 OFFCURVE",
"192 167 OFFCURVE",
"192 235 CURVE SMOOTH",
"192 303 OFFCURVE",
"234 344 OFFCURVE",
"295 344 CURVE SMOOTH",
"355 344 OFFCURVE",
"398 303 OFFCURVE",
"398 235 CURVE SMOOTH",
"398 167 OFFCURVE",
"355 126 OFFCURVE",
"295 126 CURVE SMOOTH"
);
},
{
closed = 1;
nodes = (
"708 362 OFFCURVE",
"734 336 OFFCURVE",
"734 303 CURVE SMOOTH",
"734 300 OFFCURVE",
"733 297 OFFCURVE",
"732 293 CURVE",
"558 293 LINE",
"566 333 OFFCURVE",
"602 362 OFFCURVE",
"655 362 CURVE SMOOTH"
);
}
);
width = 926;
}
);
leftKerningGroup = _c1;
rightKerningGroup = _b;
unicode = 0153;
},
{
glyphname = Scaron;
layers = (
{
layerId = "19C37293-DF0C-4049-8F1C-5BECA685D590";
paths = (
{
closed = 1;
nodes = (
"465 -10 OFFCURVE",
"560 76 OFFCURVE",
"560 217 CURVE SMOOTH",
"560 308 OFFCURVE",
"506 382 OFFCURVE",
"375 406 CURVE SMOOTH",
"291 422 LINE SMOOTH",
"246 430 OFFCURVE",
"221 447 OFFCURVE",
"221 479 CURVE SMOOTH",
"221 518 OFFCURVE",
"248 541 OFFCURVE",
"311 541 CURVE SMOOTH",
"358 541 OFFCURVE",
"418 517 OFFCURVE",
"483 481 CURVE",
"540 606 LINE",
"460 662 OFFCURVE",
"383 678 OFFCURVE",
"307 678 CURVE SMOOTH",
"127 678 OFFCURVE",
"52 576 OFFCURVE",
"52 452 CURVE SMOOTH",
"52 360 OFFCURVE",
"105 302 OFFCURVE",
"237 278 CURVE SMOOTH",
"321 262 LINE SMOOTH",
"366 254 OFFCURVE",
"391 229 OFFCURVE",
"391 197 CURVE SMOOTH",
"391 154 OFFCURVE",
"353 127 OFFCURVE",
"284 127 CURVE SMOOTH",
"233 127 OFFCURVE",
"164 153 OFFCURVE",
"89 201 CURVE",
"32 76 LINE",
"112 15 OFFCURVE",
"188 -10 OFFCURVE",
"284 -10 CURVE SMOOTH"
);
},
{
closed = 1;
nodes = (
"367 729 LINE",
"463 888 LINE",
"347 888 LINE",
"296 810 LINE",
"245 888 LINE",
"129 888 LINE",
"225 729 LINE"
);
}
);
width = 592;
}
);
leftKerningGroup = _S;
rightKerningGroup = _S;
unicode = 0160;
},
{
glyphname = scaron;
layers = (
{
layerId = "19C37293-DF0C-4049-8F1C-5BECA685D590";
paths = (
{
closed = 1;
nodes = (
"384 -10 OFFCURVE",
"458 60 OFFCURVE",
"458 156 CURVE SMOOTH",
"458 233 OFFCURVE",
"405 282 OFFCURVE",
"305 299 CURVE SMOOTH",
"251 309 LINE SMOOTH",
"216 316 OFFCURVE",
"207 323 OFFCURVE",
"207 336 CURVE SMOOTH",
"207 355 OFFCURVE",
"225 365 OFFCURVE",
"260 365 CURVE SMOOTH",
"299 365 OFFCURVE",
"351 346 OFFCURVE",
"394 323 CURVE",
"443 428 LINE",
"387 461 OFFCURVE",
"321 480 OFFCURVE",
"253 480 CURVE SMOOTH",
"109 480 OFFCURVE",
"47 404 OFFCURVE",
"47 314 CURVE SMOOTH",
"47 241 OFFCURVE",
"96 196 OFFCURVE",
"195 179 CURVE SMOOTH",
"249 169 LINE SMOOTH",
"285 162 OFFCURVE",
"298 155 OFFCURVE",
"298 136 CURVE SMOOTH",
"298 115 OFFCURVE",
"278 105 OFFCURVE",
"239 105 CURVE SMOOTH",
"203 105 OFFCURVE",
"148 121 OFFCURVE",
"84 160 CURVE",
"32 50 LINE",
"95 10 OFFCURVE",
"164 -10 OFFCURVE",
"237 -10 CURVE SMOOTH"
);
},
{
closed = 1;
nodes = (
"316 537 LINE",
"412 696 LINE",
"296 696 LINE",
"245 618 LINE",
"194 696 LINE",
"78 696 LINE",
"174 537 LINE"
);
}
);
width = 490;
}
);
leftKerningGroup = _s;
rightKerningGroup = _s;
unicode = 0161;
},
{
glyphname = Ydieresis;
layers = (
{
layerId = "19C37293-DF0C-4049-8F1C-5BECA685D590";
paths = (
{
closed = 1;
nodes = (
"428 0 LINE",
"428 250 LINE",
"681 668 LINE",
"486 668 LINE",
"344 408 LINE",
"203 668 LINE",
"8 668 LINE",
"261 250 LINE",
"261 0 LINE"
);
},
{
closed = 1;
nodes = (
"287 737 OFFCURVE",
"317 768 OFFCURVE",
"317 809 CURVE SMOOTH",
"317 849 OFFCURVE",
"287 880 OFFCURVE",
"242 880 CURVE SMOOTH",
"197 880 OFFCURVE",
"167 849 OFFCURVE",
"167 809 CURVE SMOOTH",
"167 768 OFFCURVE",
"197 737 OFFCURVE",
"242 737 CURVE SMOOTH"
);
},
{
closed = 1;
nodes = (
"492 737 OFFCURVE",
"522 768 OFFCURVE",
"522 809 CURVE SMOOTH",
"522 849 OFFCURVE",
"492 880 OFFCURVE",
"447 880 CURVE SMOOTH",
"402 880 OFFCURVE",
"372 849 OFFCURVE",
"372 809 CURVE SMOOTH",
"372 768 OFFCURVE",
"402 737 OFFCURVE",
"447 737 CURVE SMOOTH"
);
}
);
width = 689;
}
);
leftKerningGroup = _Y;
rightKerningGroup = _Y;
unicode = 0178;
},
{
glyphname = Zcaron;
layers = (
{
layerId = "19C37293-DF0C-4049-8F1C-5BECA685D590";
paths = (
{
closed = 1;
nodes = (
"566 0 LINE",
"566 145 LINE",
"245 145 LINE",
"556 542 LINE",
"556 668 LINE",
"43 668 LINE",
"43 523 LINE",
"343 523 LINE",
"33 126 LINE",
"33 0 LINE"
);
},
{
closed = 1;
nodes = (
"371 729 LINE",
"466 888 LINE",
"351 888 LINE",
"300 810 LINE",
"249 888 LINE",
"133 888 LINE",
"229 729 LINE"
);
}
);
width = 599;
}
);
leftKerningGroup = _Z;
rightKerningGroup = _Z;
unicode = 017D;
},
{
glyphname = zcaron;
layers = (
{
layerId = "19C37293-DF0C-4049-8F1C-5BECA685D590";
paths = (
{
closed = 1;
nodes = (
"458 0 LINE",
"458 128 LINE",
"236 128 LINE",
"448 357 LINE",
"448 470 LINE",
"43 470 LINE",
"43 342 LINE",
"244 342 LINE",
"33 113 LINE",
"33 0 LINE"
);
},
{
closed = 1;
nodes = (
"317 537 LINE",
"412 696 LINE",
"297 696 LINE",
"246 618 LINE",
"195 696 LINE",
"79 696 LINE",
"175 537 LINE"
);
}
);
width = 491;
}
);
leftKerningGroup = _z;
rightKerningGroup = _z;
unicode = 017E;
},
{
glyphname = florin;
layers = (
{
layerId = "19C37293-DF0C-4049-8F1C-5BECA685D590";
paths = (
{
closed = 1;
nodes = (
"245 -188 OFFCURVE",
"305 -135 OFFCURVE",
"324 -27 CURVE SMOOTH",
"377 275 LINE",
"515 275 LINE",
"515 399 LINE",
"398 399 LINE",
"416 498 LINE SMOOTH",
"421 529 OFFCURVE",
"440 546 OFFCURVE",
"477 546 CURVE SMOOTH",
"494 546 OFFCURVE",
"543 545 OFFCURVE",
"556 542 CURVE",
"556 663 LINE",
"533 670 OFFCURVE",
"497 674 OFFCURVE",
"461 674 CURVE SMOOTH",
"338 674 OFFCURVE",
"280 621 OFFCURVE",
"260 513 CURVE SMOOTH",
"240 399 LINE",
"103 399 LINE",
"103 275 LINE",
"218 275 LINE",
"168 -12 LINE SMOOTH",
"163 -43 OFFCURVE",
"144 -60 OFFCURVE",
"107 -60 CURVE SMOOTH",
"90 -60 OFFCURVE",
"44 -59 OFFCURVE",
"28 -56 CURVE",
"28 -177 LINE",
"51 -184 OFFCURVE",
"86 -188 OFFCURVE",
"122 -188 CURVE SMOOTH"
);
}
);
width = 584;
}
);
unicode = 0192;
},
{
glyphname = circumflex;
layers = (
{
layerId = "19C37293-DF0C-4049-8F1C-5BECA685D590";
paths = (
{
closed = 1;
nodes = (
"467 537 LINE",
"371 696 LINE",
"229 696 LINE",
"133 537 LINE",
"249 537 LINE",
"300 615 LINE",
"351 537 LINE"
);
}
);
width = 600;
}
);
unicode = 02C6;
},
{
glyphname = caron;
layers = (
{
layerId = "19C37293-DF0C-4049-8F1C-5BECA685D590";
paths = (
{
closed = 1;
nodes = (
"371 537 LINE",
"467 696 LINE",
"351 696 LINE",
"300 618 LINE",
"249 696 LINE",
"133 696 LINE",
"229 537 LINE"
);
}
);
width = 600;
}
);
unicode = 02C7;
},
{
glyphname = breve;
layers = (
{
layerId = "19C37293-DF0C-4049-8F1C-5BECA685D590";
paths = (
{
closed = 1;
nodes = (
"403 527 OFFCURVE",
"457 581 OFFCURVE",
"457 673 CURVE SMOOTH",
"457 696 LINE",
"359 696 LINE",
"359 673 LINE SMOOTH",
"359 642 OFFCURVE",
"337 625 OFFCURVE",
"300 625 CURVE SMOOTH",
"263 625 OFFCURVE",
"241 642 OFFCURVE",
"241 673 CURVE SMOOTH",
"241 696 LINE",
"143 696 LINE",
"143 673 LINE SMOOTH",
"143 581 OFFCURVE",
"197 527 OFFCURVE",
"300 527 CURVE SMOOTH"
);
}
);
width = 600;
}
);
unicode = 02D8;
},
{
glyphname = dotaccent;
layers = (
{
layerId = "19C37293-DF0C-4049-8F1C-5BECA685D590";
paths = (
{
closed = 1;
nodes = (
"345 545 OFFCURVE",
"375 576 OFFCURVE",
"375 617 CURVE SMOOTH",
"375 657 OFFCURVE",
"345 688 OFFCURVE",
"300 688 CURVE SMOOTH",
"255 688 OFFCURVE",
"225 657 OFFCURVE",
"225 617 CURVE SMOOTH",
"225 576 OFFCURVE",
"255 545 OFFCURVE",
"300 545 CURVE SMOOTH"
);
}
);
width = 600;
}
);
unicode = 02D9;
},
{
glyphname = ring;
layers = (
{
layerId = "19C37293-DF0C-4049-8F1C-5BECA685D590";
paths = (
{
closed = 1;
nodes = (
"375 507 OFFCURVE",
"422 552 OFFCURVE",
"422 617 CURVE SMOOTH",
"422 681 OFFCURVE",
"375 726 OFFCURVE",
"300 726 CURVE SMOOTH",
"225 726 OFFCURVE",
"178 681 OFFCURVE",
"178 617 CURVE SMOOTH",
"178 552 OFFCURVE",
"225 507 OFFCURVE",
"300 507 CURVE SMOOTH"
);
},
{
closed = 1;
nodes = (
"272 569 OFFCURVE",
"251 589 OFFCURVE",
"251 617 CURVE SMOOTH",
"251 644 OFFCURVE",
"272 664 OFFCURVE",
"300 664 CURVE SMOOTH",
"328 664 OFFCURVE",
"349 644 OFFCURVE",
"349 617 CURVE SMOOTH",
"349 589 OFFCURVE",
"328 569 OFFCURVE",
"300 569 CURVE SMOOTH"
);
}
);
width = 600;
}
);
unicode = 02DA;
},
{
glyphname = ogonek;
layers = (
{
layerId = "19C37293-DF0C-4049-8F1C-5BECA685D590";
paths = (
{
closed = 1;
nodes = (
"334 -208 OFFCURVE",
"369 -205 OFFCURVE",
"404 -196 CURVE",
"404 -114 LINE",
"373 -121 OFFCURVE",
"342 -123 OFFCURVE",
"325 -123 CURVE SMOOTH",
"303 -123 OFFCURVE",
"292 -115 OFFCURVE",
"292 -100 CURVE SMOOTH",
"292 -75 OFFCURVE",
"337 -29 OFFCURVE",
"404 0 CURVE",
"308 0 LINE",
"241 -25 OFFCURVE",
"196 -69 OFFCURVE",
"196 -120 CURVE SMOOTH",
"196 -180 OFFCURVE",
"238 -208 OFFCURVE",
"315 -208 CURVE SMOOTH"
);
}
);
width = 600;
}
);
unicode = 02DB;
},
{
glyphname = tilde;
layers = (
{
layerId = "19C37293-DF0C-4049-8F1C-5BECA685D590";
paths = (
{
closed = 1;
nodes = (
"447 540 OFFCURVE",
"477 604 OFFCURVE",
"477 693 CURVE",
"391 693 LINE",
"389 656 OFFCURVE",
"379 638 OFFCURVE",
"361 638 CURVE SMOOTH",
"333 638 OFFCURVE",
"294 693 OFFCURVE",
"234 693 CURVE SMOOTH",
"153 693 OFFCURVE",
"123 629 OFFCURVE",
"123 540 CURVE",
"209 540 LINE",
"211 577 OFFCURVE",
"221 595 OFFCURVE",
"239 595 CURVE SMOOTH",
"268 595 OFFCURVE",
"305 540 OFFCURVE",
"366 540 CURVE SMOOTH"
);
}
);
width = 600;
}
);
unicode = 02DC;
},
{
glyphname = hungarumlaut;
layers = (
{
layerId = "19C37293-DF0C-4049-8F1C-5BECA685D590";
paths = (
{
closed = 1;
nodes = (
"217 537 LINE",
"328 696 LINE",
"174 696 LINE",
"111 537 LINE"
);
},
{
closed = 1;
nodes = (
"409 537 LINE",
"520 696 LINE",
"366 696 LINE",
"303 537 LINE"
);
}
);
width = 600;
}
);
unicode = 02DD;
},
{
glyphname = pi;
layers = (
{
layerId = "19C37293-DF0C-4049-8F1C-5BECA685D590";
paths = (
{
closed = 1;
nodes = (
"573 0 LINE",
"573 347 LINE",
"665 347 LINE",
"665 470 LINE",
"18 470 LINE",
"18 347 LINE",
"110 347 LINE",
"110 0 LINE",
"268 0 LINE",
"268 347 LINE",
"415 347 LINE",
"415 0 LINE"
);
}
);
width = 683;
}
);
unicode = 03C0;
},
{
glyphname = endash;
layers = (
{
layerId = "19C37293-DF0C-4049-8F1C-5BECA685D590";
paths = (
{
closed = 1;
nodes = (
"536 225 LINE",
"536 347 LINE",
"32 347 LINE",
"32 225 LINE"
);
}
);
width = 568;
}
);
leftKerningGroup = _hypen;
rightKerningGroup = _hypen;
unicode = 2013;
},
{
glyphname = emdash;
layers = (
{
layerId = "19C37293-DF0C-4049-8F1C-5BECA685D590";
paths = (
{
closed = 1;
nodes = (
"766 225 LINE",
"766 347 LINE",
"32 347 LINE",
"32 225 LINE"
);
}
);
width = 798;
}
);
leftKerningGroup = _hypen;
rightKerningGroup = _hypen;
unicode = 2014;
},
{
glyphname = quoteleft;
layers = (
{
layerId = "19C37293-DF0C-4049-8F1C-5BECA685D590";
paths = (
{
closed = 1;
nodes = (
"215 362 LINE",
"215 455 LINE SMOOTH",
"215 507 OFFCURVE",
"234 575 OFFCURVE",
"266 628 CURVE",
"185 668 LINE",
"109 617 OFFCURVE",
"76 555 OFFCURVE",
"76 455 CURVE SMOOTH",
"76 362 LINE"
);
}
);
width = 291;
}
);
leftKerningGroup = _quoteleft;
rightKerningGroup = _quoteleft;
unicode = 2018;
},
{
glyphname = quoteright;
layers = (
{
layerId = "19C37293-DF0C-4049-8F1C-5BECA685D590";
paths = (
{
closed = 1;
nodes = (
"106 362 LINE",
"181 413 OFFCURVE",
"215 475 OFFCURVE",
"215 574 CURVE SMOOTH",
"215 668 LINE",
"76 668 LINE",
"76 574 LINE SMOOTH",
"76 523 OFFCURVE",
"56 454 OFFCURVE",
"25 402 CURVE"
);
}
);
width = 291;
}
);
leftKerningGroup = _quoteright;
rightKerningGroup = _quoteright;
unicode = 2019;
},
{
glyphname = quotesinglbase;
layers = (
{
layerId = "19C37293-DF0C-4049-8F1C-5BECA685D590";
paths = (
{
closed = 1;
nodes = (
"106 -164 LINE",
"181 -113 OFFCURVE",
"215 -51 OFFCURVE",
"215 48 CURVE SMOOTH",
"215 142 LINE",
"76 142 LINE",
"76 48 LINE SMOOTH",
"76 -3 OFFCURVE",
"56 -72 OFFCURVE",
"25 -125 CURVE"
);
}
);
width = 291;
}
);
leftKerningGroup = _comma;
rightKerningGroup = _comma;
unicode = 201A;
},
{
glyphname = quotedblleft;
layers = (
{
layerId = "19C37293-DF0C-4049-8F1C-5BECA685D590";
paths = (
{
closed = 1;
nodes = (
"215 362 LINE",
"215 455 LINE SMOOTH",
"215 507 OFFCURVE",
"234 575 OFFCURVE",
"266 628 CURVE",
"184 668 LINE",
"109 617 OFFCURVE",
"76 555 OFFCURVE",
"76 455 CURVE SMOOTH",
"76 362 LINE"
);
},
{
closed = 1;
nodes = (
"432 362 LINE",
"432 455 LINE SMOOTH",
"432 507 OFFCURVE",
"451 575 OFFCURVE",
"482 628 CURVE",
"401 668 LINE",
"325 617 OFFCURVE",
"292 555 OFFCURVE",
"292 455 CURVE SMOOTH",
"292 362 LINE"
);
}
);
width = 507;
}
);
leftKerningGroup = _quoteleft;
rightKerningGroup = _quoteleft;
unicode = 201C;
},
{
glyphname = quotedblright;
layers = (
{
layerId = "19C37293-DF0C-4049-8F1C-5BECA685D590";
paths = (
{
closed = 1;
nodes = (
"106 362 LINE",
"181 413 OFFCURVE",
"215 475 OFFCURVE",
"215 574 CURVE SMOOTH",
"215 668 LINE",
"76 668 LINE",
"76 574 LINE SMOOTH",
"76 523 OFFCURVE",
"56 454 OFFCURVE",
"25 402 CURVE"
);
},
{
closed = 1;
nodes = (
"323 362 LINE",
"398 413 OFFCURVE",
"432 475 OFFCURVE",
"432 574 CURVE SMOOTH",
"432 668 LINE",
"292 668 LINE",
"292 574 LINE SMOOTH",
"292 523 OFFCURVE",
"273 454 OFFCURVE",
"242 402 CURVE"
);
}
);
width = 507;
}
);
leftKerningGroup = _quoteright;
rightKerningGroup = _quoteright;
unicode = 201D;
},
{
glyphname = quotedblbase;
layers = (
{
layerId = "19C37293-DF0C-4049-8F1C-5BECA685D590";
paths = (
{
closed = 1;
nodes = (
"106 -164 LINE",
"181 -113 OFFCURVE",
"215 -51 OFFCURVE",
"215 48 CURVE SMOOTH",
"215 142 LINE",
"76 142 LINE",
"76 48 LINE SMOOTH",
"76 -3 OFFCURVE",
"56 -72 OFFCURVE",
"25 -125 CURVE"
);
},
{
closed = 1;
nodes = (
"323 -164 LINE",
"398 -113 OFFCURVE",
"432 -51 OFFCURVE",
"432 48 CURVE SMOOTH",
"432 142 LINE",
"292 142 LINE",
"292 48 LINE SMOOTH",
"292 -3 OFFCURVE",
"273 -72 OFFCURVE",
"242 -125 CURVE"
);
}
);
width = 507;
}
);
leftKerningGroup = _comma;
rightKerningGroup = _comma;
unicode = 201E;
},
{
glyphname = dagger;
layers = (
{
layerId = "19C37293-DF0C-4049-8F1C-5BECA685D590";
paths = (
{
closed = 1;
nodes = (
"327 -100 LINE",
"327 388 LINE",
"480 388 LINE",
"480 510 LINE",
"327 510 LINE",
"327 668 LINE",
"195 668 LINE",
"195 510 LINE",
"42 510 LINE",
"42 388 LINE",
"195 388 LINE",
"195 -100 LINE"
);
}
);
width = 522;
}
);
unicode = 2020;
},
{
glyphname = daggerdbl;
layers = (
{
layerId = "19C37293-DF0C-4049-8F1C-5BECA685D590";
paths = (
{
closed = 1;
nodes = (
"327 -100 LINE",
"327 58 LINE",
"480 58 LINE",
"480 180 LINE",
"327 180 LINE",
"327 388 LINE",
"480 388 LINE",
"480 510 LINE",
"327 510 LINE",
"327 668 LINE",
"195 668 LINE",
"195 510 LINE",
"42 510 LINE",
"42 388 LINE",
"195 388 LINE",
"195 180 LINE",
"42 180 LINE",
"42 58 LINE",
"195 58 LINE",
"195 -100 LINE"
);
}
);
width = 522;
}
);
unicode = 2021;
},
{
glyphname = bullet;
layers = (
{
layerId = "19C37293-DF0C-4049-8F1C-5BECA685D590";
paths = (
{
closed = 1;
nodes = (
"320 137 OFFCURVE",
"381 202 OFFCURVE",
"381 286 CURVE SMOOTH",
"381 370 OFFCURVE",
"320 435 OFFCURVE",
"224 435 CURVE SMOOTH",
"128 435 OFFCURVE",
"67 370 OFFCURVE",
"67 286 CURVE SMOOTH",
"67 202 OFFCURVE",
"128 137 OFFCURVE",
"224 137 CURVE SMOOTH"
);
}
);
width = 448;
}
);
unicode = 2022;
},
{
glyphname = ellipsis;
layers = (
{
layerId = "19C37293-DF0C-4049-8F1C-5BECA685D590";
paths = (
{
closed = 1;
nodes = (
"200 -9 OFFCURVE",
"234 27 OFFCURVE",
"234 75 CURVE SMOOTH",
"234 123 OFFCURVE",
"200 159 OFFCURVE",
"145 159 CURVE SMOOTH",
"92 159 OFFCURVE",
"57 123 OFFCURVE",
"57 75 CURVE SMOOTH",
"57 27 OFFCURVE",
"92 -9 OFFCURVE",
"145 -9 CURVE SMOOTH"
);
},
{
closed = 1;
nodes = (
"491 -9 OFFCURVE",
"524 27 OFFCURVE",
"524 75 CURVE SMOOTH",
"524 123 OFFCURVE",
"491 159 OFFCURVE",
"436 159 CURVE SMOOTH",
"381 159 OFFCURVE",
"348 123 OFFCURVE",
"348 75 CURVE SMOOTH",
"348 27 OFFCURVE",
"381 -9 OFFCURVE",
"436 -9 CURVE SMOOTH"
);
},
{
closed = 1;
nodes = (
"780 -9 OFFCURVE",
"815 27 OFFCURVE",
"815 75 CURVE SMOOTH",
"815 123 OFFCURVE",
"780 159 OFFCURVE",
"727 159 CURVE SMOOTH",
"672 159 OFFCURVE",
"638 123 OFFCURVE",
"638 75 CURVE SMOOTH",
"638 27 OFFCURVE",
"672 -9 OFFCURVE",
"727 -9 CURVE SMOOTH"
);
}
);
width = 872;
}
);
leftKerningGroup = _comma;
rightKerningGroup = _comma;
unicode = 2026;
},
{
glyphname = perthousand;
layers = (
{
layerId = "19C37293-DF0C-4049-8F1C-5BECA685D590";
paths = (
{
closed = 1;
nodes = (
"318 268 OFFCURVE",
"374 353 OFFCURVE",
"374 471 CURVE SMOOTH",
"374 589 OFFCURVE",
"318 674 OFFCURVE",
"203 674 CURVE SMOOTH",
"88 674 OFFCURVE",
"32 589 OFFCURVE",
"32 471 CURVE SMOOTH",
"32 353 OFFCURVE",
"88 268 OFFCURVE",
"203 268 CURVE SMOOTH"
);
},
{
closed = 1;
nodes = (
"170 364 OFFCURVE",
"151 391 OFFCURVE",
"151 471 CURVE SMOOTH",
"151 551 OFFCURVE",
"170 578 OFFCURVE",
"203 578 CURVE SMOOTH",
"236 578 OFFCURVE",
"255 551 OFFCURVE",
"255 471 CURVE SMOOTH",
"255 391 OFFCURVE",
"236 364 OFFCURVE",
"203 364 CURVE SMOOTH"
);
},
{
closed = 1;
nodes = (
"335 0 LINE",
"692 668 LINE",
"584 668 LINE",
"227 0 LINE"
);
},
{
closed = 1;
nodes = (
"832 -6 OFFCURVE",
"888 79 OFFCURVE",
"888 197 CURVE SMOOTH",
"888 315 OFFCURVE",
"832 400 OFFCURVE",
"716 400 CURVE SMOOTH",
"601 400 OFFCURVE",
"545 315 OFFCURVE",
"545 197 CURVE SMOOTH",
"545 79 OFFCURVE",
"601 -6 OFFCURVE",
"716 -6 CURVE SMOOTH"
);
},
{
closed = 1;
nodes = (
"683 90 OFFCURVE",
"664 117 OFFCURVE",
"664 197 CURVE SMOOTH",
"664 277 OFFCURVE",
"683 304 OFFCURVE",
"716 304 CURVE SMOOTH",
"751 304 OFFCURVE",
"768 277 OFFCURVE",
"768 197 CURVE SMOOTH",
"768 117 OFFCURVE",
"751 90 OFFCURVE",
"716 90 CURVE SMOOTH"
);
},
{
closed = 1;
nodes = (
"1212 -6 OFFCURVE",
"1268 79 OFFCURVE",
"1268 197 CURVE SMOOTH",
"1268 315 OFFCURVE",
"1212 400 OFFCURVE",
"1096 400 CURVE SMOOTH",
"981 400 OFFCURVE",
"925 315 OFFCURVE",
"925 197 CURVE SMOOTH",
"925 79 OFFCURVE",
"981 -6 OFFCURVE",
"1096 -6 CURVE SMOOTH"
);
},
{
closed = 1;
nodes = (
"1063 90 OFFCURVE",
"1044 117 OFFCURVE",
"1044 197 CURVE SMOOTH",
"1044 277 OFFCURVE",
"1063 304 OFFCURVE",
"1096 304 CURVE SMOOTH",
"1131 304 OFFCURVE",
"1148 277 OFFCURVE",
"1148 197 CURVE SMOOTH",
"1148 117 OFFCURVE",
"1131 90 OFFCURVE",
"1096 90 CURVE SMOOTH"
);
}
);
width = 1299;
}
);
unicode = 2030;
},
{
glyphname = guilsinglleft;
layers = (
{
layerId = "19C37293-DF0C-4049-8F1C-5BECA685D590";
paths = (
{
closed = 1;
nodes = (
"273 113 LINE",
"173 286 LINE",
"273 461 LINE",
"132 461 LINE",
"32 286 LINE",
"132 113 LINE"
);
}
);
width = 305;
}
);
unicode = 2039;
},
{
glyphname = guilsinglright;
layers = (
{
layerId = "19C37293-DF0C-4049-8F1C-5BECA685D590";
paths = (
{
closed = 1;
nodes = (
"173 113 LINE",
"273 286 LINE",
"173 461 LINE",
"32 461 LINE",
"132 286 LINE",
"32 113 LINE"
);
}
);
width = 305;
}
);
unicode = 203A;
},
{
glyphname = fraction;
layers = (
{
layerId = "19C37293-DF0C-4049-8F1C-5BECA685D590";
paths = (
{
closed = 1;
nodes = (
"7 0 LINE",
"365 668 LINE",
"258 668 LINE",
"-100 0 LINE"
);
}
);
width = 265;
}
);
unicode = 2044;
},
{
glyphname = Euro;
layers = (
{
layerId = "19C37293-DF0C-4049-8F1C-5BECA685D590";
paths = (
{
closed = 1;
nodes = (
"389 214 LINE",
"429 302 LINE",
"232 302 LINE",
"231 313 OFFCURVE",
"231 323 OFFCURVE",
"231 334 CURVE SMOOTH",
"231 345 OFFCURVE",
"231 355 OFFCURVE",
"232 366 CURVE",
"457 366 LINE",
"497 454 LINE",
"255 454 LINE",
"284 515 OFFCURVE",
"335 542 OFFCURVE",
"386 542 CURVE SMOOTH",
"440 542 OFFCURVE",
"482 528 OFFCURVE",
"560 485 CURVE",
"610 592 LINE",
"533 651 OFFCURVE",
"466 678 OFFCURVE",
"378 678 CURVE SMOOTH",
"224 678 OFFCURVE",
"118 589 OFFCURVE",
"78 454 CURVE",
"12 454 LINE",
"12 366 LINE",
"63 366 LINE",
"62 355 OFFCURVE",
"62 345 OFFCURVE",
"62 334 CURVE SMOOTH",
"62 323 OFFCURVE",
"62 313 OFFCURVE",
"63 302 CURVE",
"12 302 LINE",
"12 214 LINE",
"78 214 LINE",
"118 79 OFFCURVE",
"225 -10 OFFCURVE",
"378 -10 CURVE SMOOTH",
"466 -10 OFFCURVE",
"533 17 OFFCURVE",
"610 76 CURVE",
"560 183 LINE",
"482 140 OFFCURVE",
"440 126 OFFCURVE",
"386 126 CURVE SMOOTH",
"337 126 OFFCURVE",
"286 153 OFFCURVE",
"255 214 CURVE"
);
}
);
width = 642;
}
);
unicode = 20AC;
},
{
glyphname = trademark;
layers = (
{
layerId = "19C37293-DF0C-4049-8F1C-5BECA685D590";
paths = (
{
closed = 1;
nodes = (
"143 426 LINE",
"143 613 LINE",
"210 613 LINE",
"210 668 LINE",
"12 668 LINE",
"12 613 LINE",
"80 613 LINE",
"80 426 LINE"
);
},
{
closed = 1;
nodes = (
"522 426 LINE",
"522 668 LINE",
"423 668 LINE",
"380 518 LINE",
"336 668 LINE",
"237 668 LINE",
"237 426 LINE",
"300 426 LINE",
"300 604 LINE",
"353 426 LINE",
"407 426 LINE",
"460 604 LINE",
"460 426 LINE"
);
}
);
width = 564;
}
);
unicode = 2122;
},
{
glyphname = Omega;
layers = (
{
layerId = "19C37293-DF0C-4049-8F1C-5BECA685D590";
paths = (
{
closed = 1;
nodes = (
"738 0 LINE",
"738 145 LINE",
"588 145 LINE",
"684 180 OFFCURVE",
"748 256 OFFCURVE",
"748 365 CURVE SMOOTH",
"748 549 OFFCURVE",
"610 678 OFFCURVE",
"390 678 CURVE SMOOTH",
"170 678 OFFCURVE",
"32 549 OFFCURVE",
"32 365 CURVE SMOOTH",
"32 256 OFFCURVE",
"96 180 OFFCURVE",
"192 145 CURVE",
"42 145 LINE",
"42 0 LINE",
"340 0 LINE",
"340 145 LINE",
"244 180 OFFCURVE",
"201 234 OFFCURVE",
"201 334 CURVE SMOOTH",
"201 462 OFFCURVE",
"273 533 OFFCURVE",
"390 533 CURVE SMOOTH",
"507 533 OFFCURVE",
"579 462 OFFCURVE",
"579 334 CURVE SMOOTH",
"579 234 OFFCURVE",
"536 180 OFFCURVE",
"440 145 CURVE",
"440 0 LINE"
);
}
);
width = 780;
}
);
unicode = 2126;
},
{
glyphname = partialdiff;
layers = (
{
layerId = "19C37293-DF0C-4049-8F1C-5BECA685D590";
paths = (
{
closed = 1;
nodes = (
"455 -10 OFFCURVE",
"587 148 OFFCURVE",
"587 388 CURVE SMOOTH",
"587 555 OFFCURVE",
"492 678 OFFCURVE",
"324 678 CURVE SMOOTH",
"237 678 OFFCURVE",
"163 649 OFFCURVE",
"102 592 CURVE",
"133 485 LINE",
"197 528 OFFCURVE",
"250 542 OFFCURVE",
"294 542 CURVE SMOOTH",
"360 542 OFFCURVE",
"427 504 OFFCURVE",
"427 414 CURVE SMOOTH",
"427 399 OFFCURVE",
"426 380 OFFCURVE",
"422 364 CURVE",
"399 408 OFFCURVE",
"343 436 OFFCURVE",
"268 436 CURVE SMOOTH",
"128 436 OFFCURVE",
"27 352 OFFCURVE",
"27 200 CURVE SMOOTH",
"27 88 OFFCURVE",
"97 -10 OFFCURVE",
"252 -10 CURVE SMOOTH"
);
},
{
closed = 1;
nodes = (
"218 126 OFFCURVE",
"187 160 OFFCURVE",
"187 207 CURVE SMOOTH",
"187 271 OFFCURVE",
"231 315 OFFCURVE",
"306 315 CURVE SMOOTH",
"365 315 OFFCURVE",
"397 281 OFFCURVE",
"397 238 CURVE",
"384 170 OFFCURVE",
"338 126 OFFCURVE",
"273 126 CURVE SMOOTH"
);
}
);
width = 614;
}
);
unicode = 2202;
},
{
glyphname = Delta;
layers = (
{
layerId = "19C37293-DF0C-4049-8F1C-5BECA685D590";
paths = (
{
closed = 1;
nodes = (
"701 0 LINE",
"447 668 LINE",
"262 668 LINE",
"8 0 LINE"
);
},
{
closed = 1;
nodes = (
"473 145 LINE",
"236 145 LINE",
"354 494 LINE"
);
}
);
width = 709;
}
);
leftKerningGroup = _A1;
rightKerningGroup = _A;
unicode = 2206;
},
{
glyphname = product;
layers = (
{
layerId = "19C37293-DF0C-4049-8F1C-5BECA685D590";
paths = (
{
closed = 1;
nodes = (
"517 -182 LINE",
"517 668 LINE",
"53 668 LINE",
"53 -182 LINE",
"211 -182 LINE",
"211 532 LINE",
"359 532 LINE",
"359 -182 LINE"
);
}
);
width = 570;
}
);
unicode = 220F;
},
{
glyphname = summation;
layers = (
{
layerId = "19C37293-DF0C-4049-8F1C-5BECA685D590";
paths = (
{
closed = 1;
nodes = (
"458 -182 LINE",
"458 -59 LINE",
"200 -59 LINE",
"353 243 LINE",
"200 545 LINE",
"458 545 LINE",
"458 668 LINE",
"33 668 LINE",
"33 560 LINE",
"193 243 LINE",
"33 -74 LINE",
"33 -182 LINE"
);
}
);
width = 491;
}
);
unicode = 2211;
},
{
glyphname = minus;
layers = (
{
layerId = "19C37293-DF0C-4049-8F1C-5BECA685D590";
paths = (
{
closed = 1;
nodes = (
"529 269 LINE",
"529 399 LINE",
"53 399 LINE",
"53 269 LINE"
);
}
);
width = 582;
}
);
leftKerningGroup = _plus;
rightKerningGroup = _plus;
unicode = 2212;
},
{
glyphname = radical;
layers = (
{
layerId = "19C37293-DF0C-4049-8F1C-5BECA685D590";
paths = (
{
closed = 1;
nodes = (
"377 -182 LINE",
"681 668 LINE",
"508 668 LINE",
"290 -25 LINE",
"209 230 LINE",
"28 230 LINE",
"28 108 LINE",
"98 108 LINE",
"202 -182 LINE"
);
}
);
width = 689;
}
);
unicode = 221A;
},
{
glyphname = infinity;
layers = (
{
layerId = "19C37293-DF0C-4049-8F1C-5BECA685D590";
paths = (
{
closed = 1;
nodes = (
"770 451 OFFCURVE",
"695 522 OFFCURVE",
"575 522 CURVE SMOOTH",
"518 522 OFFCURVE",
"468 510 OFFCURVE",
"401 424 CURVE",
"334 510 OFFCURVE",
"284 522 OFFCURVE",
"227 522 CURVE SMOOTH",
"107 522 OFFCURVE",
"32 451 OFFCURVE",
"32 334 CURVE SMOOTH",
"32 217 OFFCURVE",
"107 146 OFFCURVE",
"227 146 CURVE SMOOTH",
"284 146 OFFCURVE",
"334 157 OFFCURVE",
"401 243 CURVE",
"468 157 OFFCURVE",
"518 146 OFFCURVE",
"575 146 CURVE SMOOTH",
"695 146 OFFCURVE",
"770 217 OFFCURVE",
"770 334 CURVE SMOOTH"
);
},
{
closed = 1;
nodes = (
"646 287 OFFCURVE",
"615 254 OFFCURVE",
"567 254 CURVE SMOOTH",
"525 254 OFFCURVE",
"499 274 OFFCURVE",
"461 334 CURVE",
"499 394 OFFCURVE",
"525 414 OFFCURVE",
"567 414 CURVE SMOOTH",
"615 414 OFFCURVE",
"646 381 OFFCURVE",
"646 334 CURVE SMOOTH"
);
},
{
closed = 1;
nodes = (
"156 381 OFFCURVE",
"187 414 OFFCURVE",
"235 414 CURVE SMOOTH",
"277 414 OFFCURVE",
"303 394 OFFCURVE",
"341 334 CURVE",
"303 274 OFFCURVE",
"277 254 OFFCURVE",
"235 254 CURVE SMOOTH",
"187 254 OFFCURVE",
"156 287 OFFCURVE",
"156 334 CURVE SMOOTH"
);
}
);
width = 802;
}
);
unicode = 221E;
},
{
glyphname = integral;
layers = (
{
layerId = "19C37293-DF0C-4049-8F1C-5BECA685D590";
paths = (
{
closed = 1;
nodes = (
"248 -188 OFFCURVE",
"298 -135 OFFCURVE",
"298 -27 CURVE SMOOTH",
"298 498 LINE SMOOTH",
"298 529 OFFCURVE",
"314 546 OFFCURVE",
"351 546 CURVE SMOOTH",
"367 546 OFFCURVE",
"394 545 OFFCURVE",
"409 542 CURVE",
"409 663 LINE",
"386 670 OFFCURVE",
"349 674 OFFCURVE",
"313 674 CURVE SMOOTH",
"189 674 OFFCURVE",
"140 621 OFFCURVE",
"140 513 CURVE SMOOTH",
"140 -12 LINE SMOOTH",
"140 -43 OFFCURVE",
"124 -60 OFFCURVE",
"87 -60 CURVE SMOOTH",
"70 -60 OFFCURVE",
"43 -59 OFFCURVE",
"28 -56 CURVE",
"28 -177 LINE",
"52 -184 OFFCURVE",
"89 -188 OFFCURVE",
"125 -188 CURVE SMOOTH"
);
}
);
width = 437;
}
);
unicode = 222B;
},
{
glyphname = approxequal;
layers = (
{
layerId = "19C37293-DF0C-4049-8F1C-5BECA685D590";
paths = (
{
closed = 1;
nodes = (
"484 99 OFFCURVE",
"529 177 OFFCURVE",
"529 308 CURVE",
"413 308 LINE",
"406 255 OFFCURVE",
"399 230 OFFCURVE",
"371 230 CURVE SMOOTH",
"329 230 OFFCURVE",
"279 308 OFFCURVE",
"194 308 CURVE SMOOTH",
"98 308 OFFCURVE",
"53 230 OFFCURVE",
"53 99 CURVE",
"169 99 LINE",
"176 152 OFFCURVE",
"183 178 OFFCURVE",
"211 178 CURVE SMOOTH",
"253 178 OFFCURVE",
"303 99 OFFCURVE",
"388 99 CURVE SMOOTH"
);
},
{
closed = 1;
nodes = (
"484 360 OFFCURVE",
"529 438 OFFCURVE",
"529 569 CURVE",
"413 569 LINE",
"406 516 OFFCURVE",
"399 490 OFFCURVE",
"371 490 CURVE SMOOTH",
"329 490 OFFCURVE",
"279 569 OFFCURVE",
"194 569 CURVE SMOOTH",
"98 569 OFFCURVE",
"53 491 OFFCURVE",
"53 360 CURVE",
"169 360 LINE",
"176 413 OFFCURVE",
"183 438 OFFCURVE",
"211 438 CURVE SMOOTH",
"253 438 OFFCURVE",
"303 360 OFFCURVE",
"388 360 CURVE SMOOTH"
);
}
);
width = 582;
}
);
unicode = 2248;
},
{
glyphname = notequal;
layers = (
{
layerId = "19C37293-DF0C-4049-8F1C-5BECA685D590";
paths = (
{
closed = 1;
nodes = (
"276 68 LINE",
"300 156 LINE",
"529 156 LINE",
"529 286 LINE",
"335 286 LINE",
"361 382 LINE",
"529 382 LINE",
"529 512 LINE",
"395 512 LINE",
"419 600 LINE",
"306 600 LINE",
"282 512 LINE",
"53 512 LINE",
"53 382 LINE",
"247 382 LINE",
"221 286 LINE",
"53 286 LINE",
"53 156 LINE",
"186 156 LINE",
"163 68 LINE"
);
}
);
width = 521;
}
);
unicode = 2260;
},
{
glyphname = lessequal;
layers = (
{
layerId = "19C37293-DF0C-4049-8F1C-5BECA685D590";
paths = (
{
closed = 1;
nodes = (
"529 0 LINE",
"529 131 LINE",
"53 131 LINE",
"53 0 LINE"
);
},
{
closed = 1;
nodes = (
"529 194 LINE",
"529 333 LINE",
"238 411 LINE",
"529 489 LINE",
"529 628 LINE",
"53 481 LINE",
"53 341 LINE"
);
}
);
width = 582;
}
);
unicode = 2264;
},
{
glyphname = greaterequal;
layers = (
{
layerId = "19C37293-DF0C-4049-8F1C-5BECA685D590";
paths = (
{
closed = 1;
nodes = (
"529 0 LINE",
"529 131 LINE",
"53 131 LINE",
"53 0 LINE"
);
},
{
closed = 1;
nodes = (
"529 341 LINE",
"529 481 LINE",
"53 628 LINE",
"53 489 LINE",
"343 411 LINE",
"53 333 LINE",
"53 194 LINE"
);
}
);
width = 582;
}
);
unicode = 2265;
},
{
glyphname = lozenge;
layers = (
{
layerId = "19C37293-DF0C-4049-8F1C-5BECA685D590";
paths = (
{
closed = 1;
nodes = (
"364 0 LINE",
"555 334 LINE",
"364 668 LINE",
"223 668 LINE",
"32 334 LINE",
"223 0 LINE"
);
},
{
closed = 1;
nodes = (
"293 137 LINE",
"179 334 LINE",
"293 531 LINE",
"408 334 LINE"
);
}
);
width = 587;
}
);
unicode = 25CA;
},
{
glyphname = fi;
layers = (
{
layerId = "19C37293-DF0C-4049-8F1C-5BECA685D590";
paths = (
{
closed = 1;
nodes = (
"268 0 LINE",
"268 342 LINE",
"379 342 LINE",
"379 470 LINE",
"268 470 LINE",
"268 498 LINE SMOOTH",
"268 529 OFFCURVE",
"284 546 OFFCURVE",
"321 546 CURVE SMOOTH",
"337 546 OFFCURVE",
"364 545 OFFCURVE",
"379 542 CURVE",
"379 663 LINE",
"356 670 OFFCURVE",
"319 674 OFFCURVE",
"283 674 CURVE SMOOTH",
"159 674 OFFCURVE",
"110 621 OFFCURVE",
"110 513 CURVE SMOOTH",
"110 470 LINE",
"18 470 LINE",
"18 342 LINE",
"110 342 LINE",
"110 0 LINE"
);
},
{
closed = 1;
nodes = (
"609 0 LINE",
"609 470 LINE",
"451 470 LINE",
"451 0 LINE"
);
},
{
closed = 1;
nodes = (
"585 532 OFFCURVE",
"619 566 OFFCURVE",
"619 617 CURVE SMOOTH",
"619 666 OFFCURVE",
"585 701 OFFCURVE",
"530 701 CURVE SMOOTH",
"475 701 OFFCURVE",
"441 666 OFFCURVE",
"441 617 CURVE SMOOTH",
"441 566 OFFCURVE",
"475 532 OFFCURVE",
"530 532 CURVE SMOOTH"
);
}
);
width = 662;
}
);
unicode = FB01;
},
{
glyphname = fl;
layers = (
{
layerId = "19C37293-DF0C-4049-8F1C-5BECA685D590";
paths = (
{
closed = 1;
nodes = (
"268 0 LINE",
"268 342 LINE",
"379 342 LINE",
"379 470 LINE",
"268 470 LINE",
"268 498 LINE SMOOTH",
"268 529 OFFCURVE",
"284 546 OFFCURVE",
"321 546 CURVE SMOOTH",
"337 546 OFFCURVE",
"364 545 OFFCURVE",
"379 542 CURVE",
"379 663 LINE",
"356 670 OFFCURVE",
"319 674 OFFCURVE",
"283 674 CURVE SMOOTH",
"159 674 OFFCURVE",
"110 621 OFFCURVE",
"110 513 CURVE SMOOTH",
"110 470 LINE",
"18 470 LINE",
"18 342 LINE",
"110 342 LINE",
"110 0 LINE"
);
},
{
closed = 1;
nodes = (
"609 0 LINE",
"609 668 LINE",
"451 668 LINE",
"451 0 LINE"
);
}
);
width = 662;
}
);
unicode = FB02;
},
